<svg width="32" height="32" viewBox="0 0 32 32" fill="none" xmlns="http://www.w3.org/2000/svg">
<path fill-rule="evenodd" clip-rule="evenodd" d="M16 32C24.8366 32 32 24.8366 32 16C32 7.16344 24.8366 0 16 0C7.16344 0 0 7.16344 0 16C0 24.8366 7.16344 32 16 32Z" fill="#296ECE"/>
<g clip-path="url(#clip0)">
<path d="M15.7101 4.76027C16.2253 4.48216 16.8542 5.12733 16.5805 5.66019C16.4215 6.09455 15.8187 6.21005 15.5108 5.87896C15.1846 5.5612 15.291 4.93316 15.7101 4.76027ZM10.1685 5.37865C10.4815 5.24528 10.8777 5.54212 10.8458 5.89523C10.879 6.27857 10.4262 6.56072 10.1072 6.37853C9.68453 6.20907 9.73287 5.4988 10.1685 5.37865ZM21.5183 6.3893C21.0292 6.32812 20.9518 5.53208 21.4227 5.3718C21.7879 5.18741 22.123 5.53318 22.1764 5.89156C22.0998 6.19757 21.8523 6.47776 21.5183 6.3893ZM11.4294 7.82023C11.9527 7.47764 12.6993 7.98786 12.6188 8.61701C12.5916 9.25227 11.7766 9.62031 11.3167 9.19085C10.872 8.85352 10.9394 8.07963 11.4294 7.82023ZM19.4171 8.18375C19.6506 7.56096 20.5965 7.54212 20.8622 8.14839C21.1248 8.62019 20.8018 9.20443 20.3339 9.36484C19.714 9.48462 19.1253 8.79099 19.4171 8.18375ZM15.0428 9.32948C15.0377 8.79418 15.5087 8.3953 16.0001 8.35884C16.3261 8.4265 16.6814 8.57027 16.8212 8.91078C17.0819 9.3805 16.8504 10.0273 16.3795 10.2429C16.1642 10.3678 15.9096 10.3209 15.6751 10.3064C15.3166 10.1242 15.0147 9.76689 15.0428 9.32948ZM6.80165 10.1095C7.27963 9.80531 7.9245 10.3604 7.74354 10.8979C7.6439 11.3629 7.04017 11.552 6.69504 11.2552C6.32663 10.9771 6.38501 10.3084 6.80165 10.1095ZM24.4983 10.1085C24.9038 9.78256 25.5731 10.1565 25.5247 10.6865C25.5519 11.1698 24.9733 11.5343 24.5708 11.2854C24.1274 11.0791 24.0822 10.373 24.4983 10.1085ZM17.3603 11.0708C18.0295 10.822 18.8244 11.1198 19.2058 11.7374C19.709 12.4925 19.4412 13.6424 18.6605 14.0756C17.8514 14.588 16.6701 14.1537 16.3713 13.2184C16.032 12.3811 16.5262 11.3333 17.3603 11.0708ZM13.4339 11.1532C14.1756 10.7908 15.1737 11.0948 15.532 11.8802C15.9536 12.6447 15.6276 13.7092 14.8739 14.1039C14.1192 14.5475 13.0545 14.2112 12.6893 13.3904C12.2797 12.5967 12.6434 11.5186 13.4339 11.1532ZM9.50239 12.5446C9.55877 12.0499 10.0096 11.728 10.4644 11.6947C10.9544 11.7559 11.3459 12.1499 11.3992 12.6633C11.367 13.1715 10.9876 13.6683 10.4673 13.6652C9.89492 13.7163 9.39306 13.1267 9.50239 12.5446ZM21.1148 11.8023C21.7024 11.4482 22.5184 11.9636 22.4923 12.6625C22.5326 13.403 21.6295 13.9249 21.0443 13.4905C20.4364 13.1288 20.4838 12.1102 21.1148 11.8023ZM11.836 14.4121C12.5233 14.2163 13.3092 14.5517 13.6463 15.2057C14.0155 15.8639 13.8646 16.7784 13.2911 17.2612C12.5556 17.9694 11.1991 17.6851 10.8076 16.7186C10.3578 15.8326 10.9042 14.6453 11.836 14.4121ZM19.2833 14.4084C19.9515 14.2106 20.7364 14.4772 21.0956 15.1073C21.5705 15.828 21.3438 16.9029 20.6368 17.3674C19.8962 17.9069 18.749 17.6236 18.3414 16.7801C17.8474 15.9076 18.3445 14.6745 19.2833 14.4084ZM7.41543 15.2306C8.00912 14.9982 8.66723 15.6764 8.42671 16.2857C8.27979 16.8408 7.52405 17.046 7.13366 16.6367C6.67684 16.2524 6.84597 15.3973 7.41543 15.2306ZM23.5076 16.1149C23.4905 15.6057 23.8504 15.1547 24.3548 15.1265C24.7614 15.1932 25.1568 15.5327 25.1246 15.9909C25.1619 16.5961 24.4574 17.0075 23.9594 16.7231C23.7259 16.6003 23.6062 16.3524 23.5076 16.1149ZM4.49627 15.5295C4.85345 15.3682 5.29526 15.6886 5.21371 16.0992C5.19456 16.5642 4.53149 16.7429 4.28789 16.3545C4.07266 16.0847 4.20149 15.6687 4.49627 15.5295ZM27.0174 15.5202C27.2689 15.3349 27.6724 15.4681 27.7721 15.7723C27.9411 16.1045 27.6312 16.5596 27.27 16.5035C26.7629 16.5513 26.5989 15.7514 27.0174 15.5202ZM13.7761 17.7521C14.716 17.4991 15.7263 18.3104 15.7322 19.3123C15.7935 20.3246 14.7985 21.2223 13.8363 20.9885C13.0927 20.8646 12.5091 20.123 12.5333 19.345C12.5312 18.601 13.0736 17.9095 13.7761 17.7521ZM17.4983 17.75C18.4522 17.474 19.4927 18.2999 19.4775 19.3249C19.5279 20.3185 18.5639 21.186 17.6219 20.9889C16.7354 20.8702 16.0813 19.862 16.3288 18.9715C16.4538 18.3781 16.9327 17.8955 17.4983 17.75ZM10.3216 18.3667C10.9817 18.2501 11.6006 19.0125 11.3329 19.6613C11.1376 20.3528 10.1656 20.5403 9.73583 19.9755C9.23173 19.4331 9.60806 18.4416 10.3216 18.3667ZM21.2375 18.3972C21.8261 18.1419 22.5486 18.669 22.5033 19.3304C22.527 20.0584 21.6349 20.5604 21.0593 20.1355C20.4074 19.754 20.526 18.6312 21.2375 18.3972ZM24.2885 21.5652C24.058 21.1204 24.4767 20.5309 24.9537 20.6133C25.1912 20.6091 25.3572 20.8028 25.5092 20.9653C25.5404 21.2288 25.5928 21.5433 25.3815 21.7464C25.0945 22.1224 24.4444 22.0151 24.2885 21.5652ZM6.79964 20.7371C7.24547 20.4298 7.88703 20.8881 7.7868 21.4276C7.73349 21.9048 7.15281 22.1776 6.77033 21.9068C6.35984 21.661 6.37497 20.9611 6.79964 20.7371ZM15.6075 21.736C16.1911 21.4694 16.9347 21.9954 16.8794 22.6609C16.9226 23.3962 16.003 23.9054 15.4323 23.4639C14.7985 23.0847 14.9041 21.9692 15.6075 21.736ZM11.528 22.7212C12.0251 22.4504 12.6922 22.918 12.647 23.494C12.6621 23.9669 12.2163 24.3699 11.7655 24.3C11.3921 24.2917 11.1486 23.9452 11.0289 23.6157C11.035 23.2566 11.1778 22.8566 11.528 22.7212ZM19.7915 22.7295C20.3027 22.4024 21.0292 22.8722 20.9809 23.4881C20.994 24.1318 20.1729 24.5441 19.6969 24.1213C19.2361 23.7898 19.2923 22.993 19.7915 22.7295ZM21.2285 26.4071C21.0011 26.0509 21.2688 25.6218 21.638 25.5406C21.9349 25.6031 22.2488 25.8342 22.1864 26.1905C22.1432 26.6727 21.4619 26.8207 21.2285 26.4071ZM9.8214 26.0978C9.91194 25.8155 10.1313 25.535 10.4523 25.6084C10.9203 25.6428 11.0591 26.3728 10.6496 26.5979C10.2813 26.8549 9.85402 26.5029 9.8214 26.0978ZM15.3247 26.4217C15.4142 26.0041 15.9364 25.801 16.2806 26.0228C16.508 26.1239 16.5744 26.3873 16.6328 26.6112C16.6016 26.7278 16.5737 26.8445 16.5463 26.9611C16.4054 27.134 16.2244 27.3069 15.9899 27.3007C15.5541 27.3535 15.161 26.8435 15.3247 26.4217Z" fill="white"/>
</g>
<defs>
<clipPath id="clip0">
<rect x="4.18066" y="4.69434" width="23.6389" height="22.6111" fill="white"/>
</clipPath>
</defs>
</svg>
