<svg width="32" height="33" viewBox="0 0 32 33" fill="none" xmlns="http://www.w3.org/2000/svg">
<g clip-path="url(#clip0_24350:83747)">
<path d="M16 32.9404C24.8366 32.9404 32 25.777 32 16.9404C32 8.10387 24.8366 0.94043 16 0.94043C7.16344 0.94043 0 8.10387 0 16.9404C0 25.777 7.16344 32.9404 16 32.9404Z" fill="#E84142"/>
<path d="M20.7116 16.8557C21.1745 16.0561 21.9214 16.0561 22.3843 16.8557L25.2667 21.9157C25.7296 22.7152 25.3509 23.3674 24.4251 23.3674H18.6182C17.703 23.3674 17.3242 22.7152 17.7766 21.9157L20.7116 16.8557ZM15.1361 7.11428C15.599 6.31477 16.3354 6.31477 16.7982 7.11428L17.44 8.27146L18.9548 10.933C19.323 11.6904 19.323 12.5846 18.9548 13.342L13.8737 22.1471C13.4109 22.8625 12.6429 23.3148 11.7908 23.3674H7.57234C6.6466 23.3674 6.26788 22.7257 6.73075 21.9157L15.1361 7.11428Z" fill="white"/>
</g>
<defs>
<clipPath id="clip0_24350:83747">
<rect width="32" height="32" fill="white" transform="translate(0 0.94043)"/>
</clipPath>
</defs>
</svg>
