<svg width="32" height="32" viewBox="0 0 32 32" fill="none" xmlns="http://www.w3.org/2000/svg">
<g clip-path="url(#clip0_25432_86839)">
<path fill-rule="evenodd" clip-rule="evenodd" d="M16 0C24.8352 0 32 7.1648 32 16C32 24.8352 24.8352 32 16 32C7.1648 32 0 24.8352 0 16C0 7.1648 7.1648 0 16 0Z" fill="#0055D5"/>
<path fill-rule="evenodd" clip-rule="evenodd" d="M8.90425 10.2422C8.90425 10.2422 7.16887 8.86468 7.04952 12.2668C6.93017 14.9032 6.9334 20.0224 8.16235 22.441C8.68168 23.3508 9.37519 23.0721 10.6654 22.1655C11.7879 21.3422 15.849 17.6262 17.5682 15.9956C19.2875 14.365 22.7744 9.68798 23.5001 12.8658C23.7872 14.2017 24.142 15.3357 23.8711 18.2989C23.7872 19.2119 23.3937 19.9038 21.6003 18.6673C20.2455 17.8024 18.9585 16.8734 18.9585 16.8734C18.9585 16.8734 18.7101 16.4313 18.123 17.1489C17.6618 17.7223 17.4295 17.8632 18.1682 18.2989C18.9101 18.7346 22.6615 21.3038 24.1001 21.7042C25.2871 22.047 25.9645 22.0406 26 19.7245C25.9935 17.8857 25.8871 12.6224 25.213 10.3799C24.7033 8.98321 23.955 8.34892 22.3389 9.91863C20.7229 11.4883 15.6264 16.396 12.8395 18.6193C10.9912 19.9967 10.2009 21.2397 9.50421 18.9428C9.01392 17.2033 8.37847 11.7895 10.3848 12.821C11.6396 13.4168 12.2653 13.4136 11.775 13.7884C11.2847 14.16 9.87516 15.4446 9.87516 15.4446C9.87516 15.4446 9.4397 15.7938 9.64291 16.5498C9.84612 17.0784 9.84612 17.3411 10.9396 16.3192C12.0331 15.2973 12.8395 14.5252 12.8395 14.5252C12.8395 14.5252 13.0137 14.2529 13.533 14.7559C14.0523 15.2588 14.1362 15.3998 14.1362 15.3998C14.1362 15.3998 14.2749 15.7746 14.8297 15.1243C15.3877 14.474 15.7458 14.0767 14.691 13.4681C13.6394 12.853 8.90425 10.2422 8.90425 10.2422Z" fill="white"/>
</g>
<defs>
<clipPath id="clip0_25432_86839">
<rect width="32" height="32" fill="white"/>
</clipPath>
</defs>
</svg>
