<svg width="32" height="32" viewBox="0 0 32 32" fill="none" xmlns="http://www.w3.org/2000/svg">
<path d="M31.5174 19.8706C29.3804 28.442 20.699 33.6585 12.1266 31.521C3.55769 29.384 -1.65875 20.7021 0.479225 12.1312C2.6152 3.55876 11.2966 -1.65819 19.8665 0.478793C28.4384 2.61577 33.6544 11.2987 31.5174 19.8706Z" fill="#F7931A"/>
<path fill-rule="evenodd" clip-rule="evenodd" d="M23.053 13.7204C23.3715 11.5914 21.7505 10.4469 19.534 9.68341L20.253 6.79944L18.4975 6.36194L17.7975 9.16991C17.336 9.05492 16.862 8.94642 16.391 8.83892L17.096 6.01245L15.3416 5.57495L14.6221 8.45792C14.2401 8.37092 13.8651 8.28492 13.5011 8.19442L13.5031 8.18542L11.0821 7.58093L10.6151 9.45591C10.6151 9.45591 11.9176 9.75441 11.8901 9.77291C12.6011 9.95041 12.7296 10.4209 12.7081 10.7939L11.8891 14.0794C11.9381 14.0919 12.0016 14.1099 12.0716 14.1379L12.0121 14.123L12.0119 14.123C11.9713 14.1128 11.9291 14.1022 11.8861 14.0919L10.7381 18.6943C10.6511 18.9103 10.4306 19.2343 9.93361 19.1113C9.95111 19.1368 8.65762 18.7928 8.65762 18.7928L7.78613 20.8023L10.0706 21.3718C10.3257 21.4357 10.5778 21.5014 10.8272 21.5665C10.9933 21.6098 11.1582 21.6528 11.3221 21.6948L10.5956 24.6118L12.3491 25.0493L13.0686 22.1633C13.5476 22.2933 14.0126 22.4133 14.4676 22.5263L13.7506 25.3988L15.5061 25.8362L16.2325 22.9248C19.226 23.4913 21.477 23.2628 22.4245 20.5553C23.188 18.3753 22.3865 17.1178 20.8115 16.2978C21.9585 16.0333 22.8225 15.2789 23.053 13.7204ZM19.042 19.3448C18.5443 21.3449 15.4137 20.518 13.9813 20.1397L13.9812 20.1396C13.8524 20.1056 13.7373 20.0752 13.6391 20.0508L14.603 16.1864C14.7226 16.2162 14.8688 16.249 15.0343 16.2861C16.5159 16.6186 19.552 17.2999 19.042 19.3448ZM15.332 14.4928C16.5263 14.8115 19.1312 15.5067 19.585 13.6889C20.0484 11.8295 17.5165 11.2691 16.28 10.9953C16.1409 10.9645 16.0182 10.9374 15.918 10.9124L15.044 14.4174C15.1266 14.4379 15.2235 14.4638 15.332 14.4928Z" fill="white"/>
</svg>
