<svg width="32" height="32" viewBox="0 0 32 32" fill="none" xmlns="http://www.w3.org/2000/svg">
<path d="M31.5174 19.8706C29.3804 28.442 20.699 33.6585 12.1266 31.521C3.55769 29.384 -1.65875 20.7021 0.479225 12.1312C2.6152 3.55876 11.2966 -1.65819 19.8665 0.478793C28.4384 2.61577 33.6544 11.2987 31.5174 19.8706Z" fill="#99C061"/>
<path fill-rule="evenodd" clip-rule="evenodd" d="M20.968 10.4988C20.1793 8.49584 18.2033 8.31518 15.902 8.76221L15.0827 5.90513L13.3437 6.40398L14.1414 9.18576C13.6843 9.31691 13.2195 9.45995 12.7579 9.60235L11.9552 6.80205L10.217 7.30041L11.0354 10.1569C10.6611 10.2725 10.2933 10.3856 9.93285 10.4892L9.93008 10.4804L7.53121 11.1674L8.06427 13.0246C8.06427 13.0246 9.3415 12.6319 9.32694 12.6617C10.0314 12.4599 10.378 12.8031 10.5458 13.1369L11.4793 16.3917C11.528 16.378 11.592 16.3618 11.6666 16.3511L11.6076 16.368L11.6075 16.368C11.5672 16.3795 11.5254 16.3915 11.483 16.404L12.79 20.9638C12.8226 21.1944 12.7937 21.5852 12.3018 21.7272C12.3297 21.7406 11.0375 22.0894 11.0375 22.0894L11.2875 24.2654L13.5507 23.6164C13.8036 23.5442 14.0547 23.4751 14.3032 23.4067C14.4687 23.3611 14.6331 23.3159 14.796 23.2703L15.6253 26.1597L17.3626 25.6619L16.5427 22.8028C17.0225 22.6759 17.4852 22.5473 17.9358 22.4177L18.7511 25.2638L20.4901 24.765L19.6635 21.8803C22.5392 20.8742 24.3744 19.5508 23.8412 16.7323C23.4124 14.4626 22.0895 13.7744 20.3156 13.8517C21.1766 13.0492 21.5476 11.9638 20.968 10.4988ZM20.3066 17.3753C20.8756 19.3562 17.751 20.2054 16.3213 20.594L16.3213 20.594C16.1927 20.6289 16.0778 20.6601 15.9805 20.6881L14.8831 16.8594C15.0017 16.8255 15.1446 16.7808 15.3066 16.7302C16.7558 16.2773 19.7258 15.3493 20.3066 17.3753ZM14.6677 15.0282C15.8613 14.7071 18.4648 14.0067 17.9489 12.2056C17.4205 10.3636 14.9476 11.1442 13.7399 11.5254C13.6041 11.5682 13.4842 11.6061 13.385 11.6345L14.3806 15.1069C14.4624 15.0835 14.5592 15.0574 14.6677 15.0282Z" fill="white"/>
</svg>
