<svg width="32" height="32" viewBox="0 0 32 32" fill="none" xmlns="http://www.w3.org/2000/svg">
<path fill-rule="evenodd" clip-rule="evenodd" d="M12.5865 19.9851H5.43382C3.75343 19.9851 2.82214 18.0384 3.87663 16.73L15.696 2.06532C16.8801 0.596166 19.2532 1.43344 19.2532 3.32036V11.9851H14.5865C13.4819 11.9851 12.5865 12.8805 12.5865 13.9851V19.9851Z" fill="#3A8EF6"/>
<mask id="mask0_2289_44368" style="mask-type:alpha" maskUnits="userSpaceOnUse" x="12" y="11" width="17" height="20">
<path d="M26.4053 11.9854H14.5859C13.4814 11.9854 12.5859 12.8808 12.5859 13.9854V28.6501C12.5859 30.537 14.959 31.3743 16.1431 29.9051L27.9625 15.2404C29.017 13.9321 28.0857 11.9854 26.4053 11.9854Z" fill="#AACEFB"/>
</mask>
<g mask="url(#mask0_2289_44368)">
<g filter="url(#filter0_f_2289_44368)">
<path d="M19.2526 11.9854H13.9193C13.1829 11.9854 12.5859 12.5823 12.5859 13.3187V19.9854H17.9193C18.6557 19.9854 19.2526 19.3884 19.2526 18.652V11.9854Z" fill="#3A8EF6"/>
</g>
</g>
<g filter="url(#filter1_i_2289_44368)">
<path d="M26.4053 11.9854H14.5859C13.4814 11.9854 12.5859 12.8808 12.5859 13.9854V28.6501C12.5859 30.537 14.959 31.3743 16.1431 29.9051L27.9625 15.2404C29.017 13.9321 28.0857 11.9854 26.4053 11.9854Z" fill="#AACEFB" fill-opacity="0.4"/>
</g>
<defs>
<filter id="filter0_f_2289_44368" x="8.58594" y="7.98535" width="14.6667" height="16" filterUnits="userSpaceOnUse" color-interpolation-filters="sRGB">
<feFlood flood-opacity="0" result="BackgroundImageFix"/>
<feBlend mode="normal" in="SourceGraphic" in2="BackgroundImageFix" result="shape"/>
<feGaussianBlur stdDeviation="2" result="effect1_foregroundBlur_2289_44368"/>
</filter>
<filter id="filter1_i_2289_44368" x="12.5859" y="11.9854" width="16.1231" height="18.9685" filterUnits="userSpaceOnUse" color-interpolation-filters="sRGB">
<feFlood flood-opacity="0" result="BackgroundImageFix"/>
<feBlend mode="normal" in="SourceGraphic" in2="BackgroundImageFix" result="shape"/>
<feColorMatrix in="SourceAlpha" type="matrix" values="0 0 0 0 0 0 0 0 0 0 0 0 0 0 0 0 0 0 127 0" result="hardAlpha"/>
<feOffset dx="0.3" dy="0.3"/>
<feGaussianBlur stdDeviation="0.5"/>
<feComposite in2="hardAlpha" operator="arithmetic" k2="-1" k3="1"/>
<feColorMatrix type="matrix" values="0 0 0 0 1 0 0 0 0 1 0 0 0 0 1 0 0 0 0.6 0"/>
<feBlend mode="normal" in2="shape" result="effect1_innerShadow_2289_44368"/>
</filter>
</defs>
</svg>
