<svg width="34" height="34" viewBox="0 0 34 34" fill="none" xmlns="http://www.w3.org/2000/svg">
<g clip-path="url(#clip0)">
<path d="M16.9069 33.2708C26.1257 33.2708 33.5422 25.8542 33.5422 16.6354C33.5422 7.41655 26.1257 0 16.9069 0C7.68803 0 0.271484 7.41655 0.271484 16.6354C0.271484 25.8542 7.68803 33.2708 16.9069 33.2708Z" fill="#2775CA"/>
<path d="M21.4814 19.2695C21.4814 16.8436 20.0258 16.0118 17.1146 15.6653C15.0352 15.388 14.6193 14.8335 14.6193 13.863C14.6193 12.8925 15.3125 12.2689 16.6987 12.2689C17.9464 12.2689 18.6396 12.6848 18.9861 13.7245C19.0555 13.9324 19.2634 14.071 19.4713 14.071H20.5803C20.8576 14.071 21.0655 13.863 21.0655 13.5859V13.5165C20.7882 11.9916 19.5405 10.8133 17.9464 10.6747V9.01117C17.9464 8.73385 17.7384 8.52591 17.3919 8.45654H16.3522C16.0749 8.45654 15.867 8.66449 15.7976 9.01117V10.6053C13.7182 10.8826 12.4013 12.2689 12.4013 14.0018C12.4013 16.2891 13.7875 17.1901 16.6987 17.5368C18.6396 17.8833 19.2634 18.2992 19.2634 19.4083C19.2634 20.5174 18.2929 21.2798 16.976 21.2798C15.1738 21.2798 14.5499 20.5172 14.342 19.4775C14.2728 19.2003 14.0648 19.0616 13.8569 19.0616H12.6784C12.4013 19.0616 12.1934 19.2695 12.1934 19.5468V19.6162C12.4705 21.349 13.5796 22.5966 15.867 22.9433V24.6068C15.867 24.884 16.0749 25.0919 16.4214 25.1613H17.4611C17.7384 25.1613 17.9464 24.9533 18.0157 24.6068V22.9433C20.0952 22.5966 21.4814 21.141 21.4814 19.2695Z" fill="white"/>
<path d="M13.3718 26.5472C7.96534 24.6066 5.19273 18.5762 7.20295 13.2389C8.24266 10.3278 10.53 8.10976 13.3718 7.07004C13.6492 6.93147 13.7877 6.72353 13.7877 6.37685V5.40651C13.7877 5.1292 13.6492 4.92125 13.3718 4.85205C13.3025 4.85205 13.1639 4.85205 13.0945 4.92125C6.50975 7.00068 2.90536 14.0015 4.98478 20.5863C6.23244 24.4678 9.213 27.4484 13.0945 28.696C13.3718 28.8346 13.6492 28.696 13.7184 28.4187C13.7877 28.3495 13.7877 28.2801 13.7877 28.1416V27.1711C13.7877 26.9631 13.5798 26.686 13.3718 26.5472ZM20.7192 4.92125C20.4419 4.78268 20.1646 4.92125 20.0954 5.19857C20.026 5.26793 20.026 5.33714 20.026 5.47588V6.44622C20.026 6.72353 20.2339 7.00068 20.4419 7.13941C25.8484 9.0801 28.621 15.1104 26.6108 20.4477C25.5711 23.3589 23.2837 25.5769 20.4419 26.6166C20.1646 26.7552 20.026 26.9631 20.026 27.3098V28.2801C20.026 28.5575 20.1646 28.7654 20.4419 28.8346C20.5112 28.8346 20.6498 28.8346 20.7192 28.7654C27.304 26.686 30.9084 19.6851 28.8289 13.1004C27.5813 9.14947 24.5314 6.16891 20.7192 4.92125Z" fill="white"/>
</g>
<defs>
<clipPath id="clip0">
<path d="M0.271484 0H33.5422V33.2708H0.271484V0Z" fill="white"/>
</clipPath>
</defs>
</svg>
