<svg width="34" height="34" viewBox="0 0 34 34" fill="none" xmlns="http://www.w3.org/2000/svg">
<path d="M17.1764 33.2708C26.3639 33.2708 33.8118 25.8228 33.8118 16.6354C33.8118 7.44791 26.3639 0 17.1764 0C7.98893 0 0.541016 7.44791 0.541016 16.6354C0.541016 25.8228 7.98893 33.2708 17.1764 33.2708Z" fill="#F5AC37"/>
<path d="M9.25357 25.8679V25.8055C9.25357 24.9945 9.25357 24.1836 9.25357 23.383C9.25357 23.1127 9.25357 22.8319 9.25357 22.5616V20.1183C9.25357 19.9831 9.25357 19.9623 9.08722 19.9623H6.83105C6.70628 19.9623 6.6543 19.9623 6.6543 19.796C6.6543 19.141 6.6543 18.4756 6.6543 17.8205H9.06643C9.20159 17.8205 9.25357 17.8205 9.25357 17.6438C9.25357 16.9888 9.25357 16.3441 9.25357 15.6891C9.25357 15.5644 9.25357 15.5332 9.08722 15.5332H6.83105C6.70628 15.5332 6.6543 15.5332 6.6543 15.3668C6.6543 14.7638 6.6543 14.1504 6.6543 13.5369C6.6543 13.4226 6.6543 13.3914 6.82065 13.3914C7.55885 13.3914 8.30744 13.3914 9.05603 13.3914C9.21199 13.3914 9.25357 13.3914 9.25357 13.1938V7.58978C9.25357 7.42342 9.25357 7.38184 9.46152 7.38184H17.2593C17.8208 7.40263 18.3926 7.46501 18.9437 7.56898C20.0874 7.77693 21.1895 8.19281 22.198 8.77505C22.8634 9.17014 23.4768 9.63801 24.0279 10.1891C24.4334 10.6153 24.8076 11.0832 25.1404 11.5719C25.4731 12.0709 25.7434 12.6012 25.9513 13.1626C25.9825 13.3082 26.1177 13.4018 26.2632 13.381C26.8767 13.381 27.5005 13.381 28.1243 13.381C28.3635 13.381 28.3635 13.381 28.3739 13.6097V15.3148C28.3739 15.4812 28.3115 15.5228 28.1451 15.5228H26.7103C26.5648 15.5228 26.5232 15.5228 26.5336 15.7099C26.5856 16.3441 26.5856 16.9784 26.5336 17.6126C26.5336 17.7893 26.5336 17.8101 26.7311 17.8101H28.3739C28.3739 17.8101 28.3739 19.2969 28.3739 19.7128C28.3739 19.8896 28.3219 19.9415 28.1659 19.9415C27.5109 19.9415 26.8559 19.9415 26.2009 19.9415C26.0657 19.9208 25.9305 20.0039 25.8993 20.1391C25.4315 21.3556 24.6829 22.4472 23.716 23.3206C23.3624 23.6429 23.0089 23.9548 22.6035 24.2148C22.198 24.4747 21.7821 24.7034 21.3558 24.901C20.5656 25.2545 19.7443 25.5144 18.9021 25.6807C18.1015 25.8263 17.2801 25.8887 16.4692 25.8783H9.25357V25.8679ZM23.612 19.9727H23.0817H11.5513C11.3954 19.9727 11.3434 19.9727 11.3434 20.1807C11.3434 21.3867 11.3434 22.5824 11.3434 23.7885C11.3434 23.9548 11.3434 23.9964 11.5513 23.9964H16.8747C17.1554 23.9964 17.5193 23.9756 17.7792 23.9444C18.5694 23.8301 19.1724 23.7157 19.8898 23.4454C20.1497 23.3518 20.68 23.1127 20.7216 23.0919C21.9692 22.4472 22.9778 21.4179 23.6224 20.1703C23.6224 20.1703 23.6952 20.0143 23.612 19.9727ZM23.612 13.2146C23.508 12.9859 23.3832 12.7675 23.2377 12.5596C23.0193 12.2061 22.7594 11.8838 22.4683 11.5927C22.3331 11.4159 22.1668 11.26 21.99 11.1248C21.0855 10.3554 20.025 9.81476 18.8709 9.54444C18.2887 9.40927 17.696 9.34689 17.1034 9.35729C15.2423 9.35729 13.3812 9.35729 11.5201 9.35729C11.3642 9.35729 11.3434 9.41967 11.3434 9.55483C11.3434 10.7817 11.3434 12.0189 11.3434 13.2458C11.3434 13.4018 11.3434 13.4434 11.5409 13.4434H23.5392C23.5392 13.4434 23.6744 13.4434 23.664 13.3602C23.664 13.3602 23.6328 13.2562 23.612 13.2146ZM17.7896 17.8101H24.111C24.2462 17.8101 24.3086 17.8101 24.319 17.6334C24.371 16.9888 24.371 16.3441 24.319 15.6995C24.319 15.5748 24.2566 15.5228 24.1214 15.5228H11.5409C11.385 15.5228 11.3434 15.5748 11.3434 15.7203V17.571C11.3434 17.8101 11.3434 17.8101 11.5929 17.8101H17.7896Z" fill="#FEFEFD"/>
</svg>
