<svg width="123" height="25" viewBox="0 0 123 25" fill="none" xmlns="http://www.w3.org/2000/svg">
<path d="M8.12219 19.8752C8.63091 19.8854 9.32278 19.4072 9.97395 18.8374C11.7647 17.2807 14.4914 18.1557 15.0205 20.4552C15.3258 21.7778 14.7356 23.1311 13.5757 23.8128C12.3955 24.5046 10.8998 24.3418 9.9129 23.3752C9.26173 22.7342 8.53934 22.3374 7.61346 22.3578C6.76897 22.3781 6.08728 22.7342 5.49715 23.3142C4.54075 24.2604 3.20788 24.4944 2.02764 23.945C0.86774 23.4058 0.175871 22.2459 0.247093 20.9435C0.287791 20.211 0.572678 19.57 1.08141 19.0307C2.48549 17.5249 2.48549 16.0394 1.08141 14.5539C-0.0479684 13.3533 -0.0479684 11.5117 1.08141 10.3111C2.48549 8.81548 2.48549 7.31982 1.08141 5.83434C-0.0581429 4.59304 -0.0276193 2.70058 1.1628 1.49998C2.3227 0.340083 4.21516 0.319734 5.43611 1.45928C6.81984 2.75145 8.32568 2.84302 9.73994 1.5712C11.2254 0.228163 13.1688 0.42148 14.3897 1.66277C15.4072 2.70058 16.974 2.72093 18.1543 1.82557C18.7749 1.35754 19.3447 0.828461 20.1485 0.675843C21.7561 0.350258 23.445 1.45928 23.7401 3.05669C24.0657 4.79653 22.9567 6.45498 21.288 6.7297C20.2299 6.90266 19.3142 6.61778 18.5409 5.86486C17.1877 4.56252 15.5598 4.56252 14.2167 5.85468C12.9347 7.09598 11.1237 7.09598 9.84168 5.86486C8.56987 4.64391 6.92159 4.56252 5.74134 5.65119C4.31691 6.96371 4.15412 8.66286 5.39541 10.0771C6.2399 11.0437 6.64688 12.1019 6.2399 13.3431C6.0771 13.8417 5.74134 14.2996 5.39541 14.7065C4.55092 15.7036 4.33726 16.7923 4.85616 17.9624C5.39541 19.1732 6.34164 19.8752 8.12219 19.8752Z" fill="#030405"/>
<path d="M83.4129 9.15067C83.4129 6.32215 83.4129 3.55468 83.4129 0.736328C84.1455 0.736328 84.8475 0.736328 85.5801 0.736328C85.5801 6.84105 85.5801 12.9661 85.5801 19.1217C84.8781 19.1217 84.176 19.1217 83.4129 19.1217C83.4129 18.6232 83.4129 18.1246 83.4129 17.4836C82.5379 18.5926 81.4899 19.1421 80.2588 19.3659C77.1454 19.9459 74.1541 17.8906 73.6148 14.7568C73.2486 12.6405 73.5741 10.6565 75.0902 9.02858C76.9216 7.04454 80.269 6.68843 82.3853 8.22479C82.7414 8.46898 83.0365 8.80474 83.4129 9.15067ZM83.4129 13.2917C83.4028 13.1289 83.3926 12.9051 83.3722 12.6914C83.1891 10.8803 81.8257 9.49661 80.096 9.35416C78.0408 9.19137 76.4841 10.1885 76.0059 12.0606C75.8634 12.6405 75.8125 13.2714 75.8634 13.8717C75.9957 15.3571 76.6672 16.517 78.112 17.097C80.2486 17.9618 83.4028 16.9952 83.4129 13.2917Z" fill="#030405"/>
<path d="M122.322 19.1217C121.233 19.1217 120.236 19.1217 119.198 19.1217C117.479 17.1987 115.728 15.235 113.917 13.2103C113.917 15.2147 113.917 17.1479 113.917 19.1115C113.144 19.1115 112.432 19.1115 111.689 19.1115C111.689 12.9865 111.689 6.88175 111.689 0.736328C112.401 0.736328 113.103 0.736328 113.867 0.736328C113.867 4.64335 113.867 8.55037 113.867 12.4879C115.535 10.8295 117.173 9.22189 118.771 7.63466C119.798 7.63466 120.775 7.63466 121.854 7.63466C120.042 9.40503 118.292 11.1144 116.502 12.8542C118.435 14.9196 120.338 16.9749 122.322 19.1217Z" fill="#030405"/>
<path d="M97.0467 15.8182C97.5962 16.2354 98.115 16.6322 98.7153 17.0901C98.3796 17.4258 98.0947 17.7717 97.7488 18.0566C95.1441 20.2442 90.7589 19.8372 88.8257 17.2223C86.5466 14.1293 87.4318 8.67571 91.9696 7.51582C95.836 6.51871 98.756 8.71641 99.1528 12.3792C99.2139 12.949 99.2241 13.5188 99.2648 14.1496C96.1514 14.1496 93.099 14.1496 90.0466 14.1496C89.894 15.1874 90.5859 16.3575 91.7153 16.9781C92.6208 17.4869 93.5976 17.6395 94.615 17.4665C95.6528 17.2935 96.365 16.5712 97.0467 15.8182ZM96.8738 12.3996C96.7415 10.151 95.5002 8.99113 93.3432 9.06235C91.5728 9.12339 89.9856 10.7004 90.0059 12.3894C92.285 12.3996 94.5641 12.3996 96.8738 12.3996Z" fill="#030405"/>
<path d="M48.0353 7.30187C51.4438 7.28152 54.1706 9.95743 54.1909 13.3354C54.2011 16.7438 51.5455 19.4299 48.1269 19.4503C44.6472 19.4706 41.9204 16.8049 41.9204 13.3761C41.9103 9.99812 44.6167 7.31205 48.0353 7.30187ZM44.2708 13.315C44.2402 15.0243 44.983 16.3572 46.3057 17.0084C48.1574 17.9139 50.4162 17.2526 51.3421 15.5331C52.4104 13.549 51.7999 10.8731 50.0397 9.85568C47.3536 8.30915 44.3216 10.1304 44.2708 13.315Z" fill="#030405"/>
<path d="M69.6053 19.1136C69.6053 16.9261 69.6155 14.7691 69.6053 12.6223C69.6053 12.2051 69.585 11.7676 69.4934 11.3606C69.2492 10.2211 68.476 9.50887 67.3975 9.3766C65.9934 9.20363 64.7521 9.74288 64.2637 10.9333C63.9585 11.6659 63.8059 12.49 63.7753 13.2836C63.7041 15.2168 63.755 17.1499 63.755 19.1136C63.0428 19.1136 62.3407 19.1136 61.6082 19.1136C61.6082 15.2982 61.6082 11.4624 61.6082 7.59606C62.3102 7.59606 62.9919 7.59606 63.7346 7.59606C63.7346 8.14548 63.7346 8.68473 63.7346 9.23416C64.4469 8.18618 65.4134 7.56553 66.6039 7.38239C69.8088 6.87367 71.7522 8.68473 71.7827 11.4827C71.8132 14.0162 71.7929 16.5598 71.7929 19.1238C71.0501 19.1136 70.3379 19.1136 69.6053 19.1136Z" fill="#030405"/>
<path d="M100.539 17.3734C101.068 16.9359 101.597 16.4984 102.136 16.0507C102.492 16.3254 102.818 16.6103 103.184 16.8545C104.191 17.5463 105.28 17.5463 106.379 17.119C106.878 16.9257 107.244 16.5798 107.295 16.01C107.346 15.3995 107 15.0027 106.501 14.7687C106.013 14.5449 105.484 14.4126 104.975 14.26C104.344 14.0768 103.693 13.9344 103.072 13.7207C100.305 12.7541 100.62 9.58985 102.136 8.34856C103.754 7.02587 106.878 6.9343 108.495 8.25699C108.801 8.51135 109.055 8.83694 109.37 9.1727C108.76 9.64073 108.2 10.0579 107.62 10.4954C106.755 9.48811 105.687 9.14217 104.415 9.47793C103.886 9.62038 103.428 9.88492 103.347 10.4954C103.255 11.116 103.581 11.5739 104.11 11.7977C104.741 12.0623 105.423 12.2251 106.084 12.4184C106.582 12.571 107.101 12.6727 107.59 12.8661C108.709 13.2934 109.472 14.0666 109.615 15.3079C109.767 16.6306 109.401 17.7804 108.261 18.5536C106.715 19.6118 104.985 19.6423 103.235 19.2658C102.004 18.9911 101.119 18.3501 100.539 17.3734Z" fill="#030405"/>
<path d="M41.0247 9.15325C40.4753 9.66198 39.936 10.1504 39.4985 10.5472C38.7761 10.1707 38.1453 9.68233 37.4433 9.49919C35.2863 8.93959 33.4752 10.1402 33.0173 12.3277C32.8444 13.1722 32.8444 14.0065 33.1089 14.8408C33.9636 17.4455 37.0973 18.2696 39.1119 16.4179C39.2136 16.3263 39.3052 16.2347 39.4069 16.1432C39.9157 16.6722 40.4142 17.181 40.9128 17.6897C39.3662 19.8365 35.0014 20.0807 32.59 18.1068C30.0464 16.0312 29.8225 11.5748 32.1423 9.10238C34.3909 6.71137 38.7354 6.71137 41.0247 9.15325Z" fill="#030405"/>
<path d="M56.3071 7.59863C57.0397 7.59863 57.7316 7.59863 58.4438 7.59863C58.4438 11.4446 58.4438 15.2702 58.4438 19.1264C57.7417 19.1264 57.0397 19.1264 56.3071 19.1264C56.3071 15.2906 56.3071 11.4751 56.3071 7.59863Z" fill="#030405"/>
<path d="M55.7683 3.43972C55.7683 2.53435 56.46 1.82227 57.3552 1.82227C58.2504 1.82227 58.9625 2.51401 58.9625 3.41937C58.9625 4.31457 58.2606 5.03682 57.3756 5.047C56.5007 5.05717 55.7785 4.33491 55.7683 3.43972Z" fill="#030405"/>
<path d="M12.0405 11.6183C12.6306 11.6285 13.129 12.1473 13.1188 12.7475C13.1087 13.3477 12.5797 13.8461 11.9897 13.8258C11.4098 13.8054 10.9419 13.307 10.9419 12.7271C10.9419 12.1168 11.4505 11.6081 12.0405 11.6183Z" fill="#030405"/>
<path d="M20.7066 13.7316C20.0962 13.7215 19.608 13.2128 19.6283 12.6126C19.6486 12.0328 20.1369 11.5547 20.7168 11.5547C21.3271 11.5547 21.8154 12.043 21.8154 12.6533C21.8154 13.2535 21.3068 13.7418 20.7066 13.7316Z" fill="#030405"/>
<path d="M20.7399 22.2891C20.1296 22.2993 19.6311 21.811 19.6311 21.2108C19.6311 20.6309 20.099 20.1427 20.6891 20.1325C21.3096 20.1121 21.808 20.5699 21.8182 21.1803C21.8386 21.7805 21.3503 22.2789 20.7399 22.2891Z" fill="#030405"/>
</svg>
