<svg width="33" height="32" viewBox="0 0 33 32" fill="none" xmlns="http://www.w3.org/2000/svg">
<path fill-rule="evenodd" clip-rule="evenodd" d="M16.6729 32.0005C25.5094 32.0005 32.6729 24.837 32.6729 16.0005C32.6729 7.16393 25.5094 0.000488281 16.6729 0.000488281C7.8363 0.000488281 0.672852 7.16393 0.672852 16.0005C0.672852 24.837 7.8363 32.0005 16.6729 32.0005Z" fill="#C3A634"/>
<path fill-rule="evenodd" clip-rule="evenodd" d="M10.7232 24.6421H16.5176C16.5176 24.6421 24.6651 25.3249 24.6651 16.1395C24.6651 7.31018 17.2251 7.34149 15.7871 7.34754C15.7535 7.34768 15.7231 7.34781 15.6962 7.34781H10.7231V15.0517H8.68066V16.9387H10.7232V24.6421ZM16.2733 10.5445H13.9872V15.0516H17.5838V16.9386H13.9872V21.4453L16.4089 21.4454C17.1066 21.4462 21.4437 21.4517 21.4369 16.2018C21.4301 10.8887 17.1283 10.5445 16.2733 10.5445Z" fill="white"/>
</svg>
