<svg width="34" height="34" viewBox="0 0 34 34" fill="none" xmlns="http://www.w3.org/2000/svg">
<path fill-rule="evenodd" clip-rule="evenodd" d="M17 33C25.8366 33 33 25.8366 33 17C33 8.16344 25.8366 1 17 1C8.16344 1 1 8.16344 1 17C1 25.8366 8.16344 33 17 33Z" fill="white"/>
<path fill-rule="evenodd" clip-rule="evenodd" d="M17 32.5C25.5604 32.5 32.5 25.5604 32.5 17C32.5 8.43959 25.5604 1.5 17 1.5C8.43959 1.5 1.5 8.43959 1.5 17C1.5 25.5604 8.43959 32.5 17 32.5ZM33 17C33 25.8366 25.8366 33 17 33C8.16344 33 1 25.8366 1 17C1 8.16344 8.16344 1 17 1C25.8366 1 33 8.16344 33 17Z" fill="#E6E9EC"/>
<g clip-path="url(#clip0_25300_86646)">
<path d="M16.9987 11.1949C18.905 11.1949 20.4504 10.2558 20.4504 9.09743C20.4504 7.93905 18.905 7 16.9987 7C15.0923 7 13.5469 7.93905 13.5469 9.09743C13.5469 10.2558 15.0923 11.1949 16.9987 11.1949Z" fill="#E6007A"/>
<path d="M16.9987 26.9986C18.905 26.9986 20.4504 26.0595 20.4504 24.9011C20.4504 23.7428 18.905 22.8037 16.9987 22.8037C15.0923 22.8037 13.5469 23.7428 13.5469 24.9011C13.5469 26.0595 15.0923 26.9986 16.9987 26.9986Z" fill="#E6007A"/>
<path d="M12.1897 14.0978C13.1429 12.373 13.1367 10.5049 12.1759 9.92534C11.215 9.34576 9.66344 10.2742 8.71026 11.999C7.75708 13.7238 7.76327 15.5919 8.72408 16.1715C9.68489 16.7511 11.2365 15.8227 12.1897 14.0978Z" fill="#E6007A"/>
<path d="M25.2869 21.9988C26.2401 20.2739 26.2345 18.4062 25.2743 17.827C24.3141 17.2478 22.7631 18.1765 21.8099 19.9013C20.8567 21.6262 20.8624 23.4939 21.8225 24.0731C22.7827 24.6523 24.3338 23.7236 25.2869 21.9988Z" fill="#E6007A"/>
<path d="M12.1759 24.0727C13.1367 23.4931 13.1429 21.625 12.1897 19.9002C11.2365 18.1754 9.68489 17.247 8.72408 17.8266C7.76327 18.4061 7.75708 20.2742 8.71026 21.9991C9.66344 23.7239 11.215 24.6523 12.1759 24.0727Z" fill="#E6007A"/>
<path d="M25.2762 16.172C26.2364 15.5929 26.2421 13.7251 25.2889 12.0003C24.3357 10.2754 22.7846 9.34671 21.8245 9.9259C20.8643 10.5051 20.8586 12.3729 21.8118 14.0977C22.765 15.8225 24.3161 16.7512 25.2762 16.172Z" fill="#E6007A"/>
</g>
<defs>
<clipPath id="clip0_25300_86646">
<rect width="18" height="20" fill="white" transform="translate(8 7)"/>
</clipPath>
</defs>
</svg>
