<svg width="32" height="33" viewBox="0 0 32 33" fill="none" xmlns="http://www.w3.org/2000/svg">
<mask id="mask0" mask-type="alpha" maskUnits="userSpaceOnUse" x="0" y="4" width="28" height="29">
<path fill-rule="evenodd" clip-rule="evenodd" d="M14 32.0293C21.732 32.0293 28 25.7613 28 18.0293C28 10.2973 21.732 4.0293 14 4.0293C6.26801 4.0293 0 10.2973 0 18.0293C0 25.7613 6.26801 32.0293 14 32.0293Z" fill="#EC9555"/>
</mask>
<g mask="url(#mask0)">
<path fill-rule="evenodd" clip-rule="evenodd" d="M30 15.2469C28.4479 16.3508 26.5497 17 24.5 17C19.2533 17 15 12.7467 15 7.5C15 5.45026 15.6492 3.55213 16.7531 2H-2V34H30V15.2469Z" fill="#183EAD"/>
<path fill-rule="evenodd" clip-rule="evenodd" d="M15.0004 7.40808C15.0001 7.43868 15 7.46932 15 7.5C15 7.70854 15.0067 7.91551 15.02 8.12071L14.7685 8.3064L15.0906 9.32459C15.1323 9.45633 14.9822 9.56554 14.8697 9.48506L14.0009 8.86399L13.1321 9.48506C13.0196 9.56544 12.8695 9.45643 12.9112 9.32459L13.2333 8.3064L12.3741 7.67195C12.2629 7.58976 12.3202 7.41335 12.4585 7.4123L13.5264 7.40399L13.8644 6.39085C13.908 6.25969 14.0937 6.25969 14.1374 6.39085L14.4753 7.40399L15.0004 7.40808Z" fill="#FCCB74"/>
<path d="M14.1383 26.6443L14.4763 27.6575L15.5442 27.6658C15.6825 27.6668 15.7398 27.8432 15.6286 27.9254L14.7694 28.5598L15.0915 29.578C15.1332 29.7097 14.9832 29.819 14.8706 29.7385L14.0018 29.1174L13.133 29.7385C13.0206 29.8189 12.8704 29.7098 12.9122 29.578L13.2342 28.5598L12.3751 27.9254C12.2639 27.8432 12.3212 27.6668 12.4595 27.6658L13.5274 27.6575L13.8653 26.6443C13.9089 26.5131 14.0946 26.5131 14.1383 26.6443Z" fill="#FCCB74"/>
<path fill-rule="evenodd" clip-rule="evenodd" d="M23.8382 16.9775C24.0323 16.9909 24.2279 16.9984 24.425 16.9999L24.6023 17.5316L25.6703 17.5399C25.8086 17.541 25.8659 17.7174 25.7547 17.7996L24.8955 18.434L25.2176 19.4523C25.2593 19.584 25.1092 19.6932 24.9967 19.6127L24.1279 18.9916L23.2591 19.6127C23.1466 19.6931 22.9964 19.5841 23.0382 19.4523L23.3603 18.434L22.5011 17.7996C22.3899 17.7174 22.4471 17.541 22.5855 17.5399L23.6534 17.5316L23.8382 16.9775Z" fill="#FCCB74"/>
<path d="M4.01049 16.5182L4.34843 17.5314L5.41638 17.5397C5.55471 17.5407 5.61199 17.7172 5.50078 17.7994L4.6416 18.4338L4.9637 19.452C5.00541 19.5838 4.85534 19.693 4.74279 19.6125L3.87397 18.9914L3.00515 19.6125C2.8927 19.6929 2.74253 19.5839 2.78425 19.452L3.10634 18.4338L2.24717 17.7994C2.13595 17.7172 2.19323 17.5407 2.33156 17.5397L3.39951 17.5314L3.73746 16.5182C3.78118 16.3872 3.96686 16.3872 4.01049 16.5182Z" fill="#FCCB74"/>
<path d="M5.53095 11.2297L5.86889 12.2429L6.93682 12.2512C7.07515 12.2522 7.13242 12.4286 7.02121 12.5108L6.16205 13.1453L6.48414 14.1635C6.52586 14.2952 6.37579 14.4044 6.26324 14.3239L5.39444 13.7029L4.52564 14.3239C4.41319 14.4043 4.26303 14.2953 4.30474 14.1635L4.62683 13.1453L3.76767 12.5108C3.65646 12.4286 3.71374 12.2522 3.85206 12.2512L4.92 12.2429L5.25793 11.2297C5.30165 11.0986 5.48714 11.0986 5.53095 11.2297Z" fill="#FCCB74"/>
<path d="M23.071 21.3561L23.409 22.3693L24.4769 22.3776C24.6152 22.3786 24.6725 22.555 24.5613 22.6372L23.7021 23.2717L24.0242 24.2899C24.0659 24.4218 23.9159 24.5308 23.8033 24.4504L22.9345 23.8293L22.0657 24.4504C21.9532 24.5308 21.8031 24.4217 21.8448 24.2899L22.1669 23.2717L21.3077 22.6372C21.1965 22.555 21.2538 22.3786 21.3921 22.3776L22.4601 22.3693L22.798 21.3561C22.8417 21.225 23.0273 21.225 23.071 21.3561Z" fill="#FCCB74"/>
<path d="M19.366 7.52311L19.704 8.53627L20.772 8.54458C20.9103 8.54563 20.9676 8.72204 20.8563 8.80424L19.9972 9.43869L20.3193 10.4569C20.361 10.5887 20.2109 10.6979 20.0984 10.6174L19.2295 9.9963L18.3606 10.6174C18.2482 10.6978 18.098 10.5887 18.1397 10.4569L18.4618 9.43869L17.6026 8.80424C17.4914 8.72204 17.5487 8.54563 17.687 8.54458L18.755 8.53627L19.0929 7.52311C19.1366 7.39204 19.3221 7.39204 19.366 7.52311Z" fill="#FCCB74"/>
<path d="M9.23697 25.0638L9.5749 26.0769L10.6428 26.0852C10.7811 26.0862 10.8384 26.2627 10.7272 26.3448L9.86806 26.9793L10.1901 27.9974C10.2319 28.1292 10.0818 28.2384 9.96925 28.1579L9.10047 27.5369L8.23168 28.1579C8.11923 28.2383 7.96907 28.1293 8.01079 27.9974L8.33287 26.9793L7.47373 26.3448C7.36252 26.2627 7.41979 26.0862 7.55811 26.0852L8.62603 26.077L8.96396 25.0639C9.00768 24.9325 9.19335 24.9325 9.23697 25.0638Z" fill="#FCCB74"/>
<path d="M22.798 11.2297L22.46 12.2429L21.3921 12.2512C21.2538 12.2522 21.1965 12.4286 21.3077 12.5108L22.1669 13.1453L21.8448 14.1635C21.8031 14.2952 21.9531 14.4044 22.0657 14.3239L22.9345 13.7029L23.8033 14.3239C23.9157 14.4043 24.0659 14.2953 24.0242 14.1635L23.7021 13.1453L24.5613 12.5108C24.6725 12.4286 24.6152 12.2522 24.4769 12.2512L23.4089 12.2429L23.071 11.2297C23.0273 11.0986 22.8417 11.0986 22.798 11.2297Z" fill="#FCCB74"/>
<path d="M5.25795 21.3561L4.92001 22.3693L3.85206 22.3776C3.71374 22.3786 3.65646 22.555 3.76767 22.6372L4.62684 23.2717L4.30475 24.2899C4.26303 24.4218 4.4131 24.5308 4.52565 24.4504L5.39447 23.8293L6.26328 24.4504C6.37573 24.5308 6.5259 24.4217 6.48418 24.2899L6.16209 23.2717L7.02126 22.6372C7.13247 22.555 7.07519 22.3786 6.93687 22.3776L5.86892 22.3693L5.53098 21.3561C5.48716 21.225 5.30167 21.225 5.25795 21.3561Z" fill="#FCCB74"/>
<path d="M8.96402 7.52311L8.62608 8.53627L7.55812 8.54458C7.41979 8.54563 7.36251 8.72204 7.47373 8.80424L8.33291 9.43869L8.01081 10.4569C7.96909 10.5887 8.11916 10.6979 8.23172 10.6174L9.10053 9.9963L9.96935 10.6174C10.0818 10.6978 10.232 10.5887 10.1903 10.4569L9.86816 9.43869L10.7273 8.80424C10.8386 8.72204 10.7813 8.54563 10.6429 8.54458L9.57499 8.53627L9.23705 7.52311C9.19323 7.39204 9.00774 7.39204 8.96402 7.52311Z" fill="#FCCB74"/>
<path d="M19.0929 25.0638L18.7549 26.0769L17.687 26.0852C17.5487 26.0862 17.4914 26.2627 17.6026 26.3448L18.4618 26.9793L18.1397 27.9974C18.098 28.1292 18.248 28.2384 18.3606 28.1579L19.2294 27.5369L20.0982 28.1579C20.2106 28.2383 20.3608 28.1293 20.3191 27.9974L19.997 26.9793L20.8561 26.3448C20.9673 26.2627 20.91 26.0862 20.7717 26.0852L19.7038 26.077L19.3659 25.0639C19.3221 24.9325 19.1366 24.9325 19.0929 25.0638Z" fill="#FCCB74"/>
</g>
<path fill-rule="evenodd" clip-rule="evenodd" d="M24.5 15C28.6421 15 32 11.6421 32 7.5C32 3.35786 28.6421 0 24.5 0C20.3579 0 17 3.35786 17 7.5C17 11.6421 20.3579 15 24.5 15Z" fill="#373D43"/>
<path d="M27.1055 11.4999L26.9872 10.9285C26.9478 10.7905 26.8296 10.7117 26.6917 10.7511C26.4946 10.7905 26.1793 10.8497 25.805 10.8497C24.5241 10.8497 23.4995 10.0615 23.0857 8.93829H25.6473C25.7458 8.93829 25.8444 8.85947 25.8641 8.74124L25.9626 8.26832C26.002 8.11068 25.8838 7.99245 25.7458 7.99245H22.8295C22.7901 7.65747 22.7901 7.34219 22.8098 7.04662H26.0217C26.1202 7.04662 26.2188 6.9678 26.2385 6.84957L26.337 6.37665C26.3764 6.23872 26.2582 6.10079 26.1202 6.10079H23.0266C23.4404 4.9382 24.4453 4.16971 25.7852 4.16971C26.0611 4.16971 26.3567 4.20912 26.534 4.22882C26.6523 4.24853 26.7705 4.18941 26.8099 4.07118L26.9675 3.48004C26.9872 3.3421 26.9084 3.20417 26.7705 3.18446C26.5537 3.14505 26.1991 3.08594 25.805 3.08594C23.8345 3.08594 22.2581 4.36676 21.7457 6.08108H21.1349C20.997 6.08108 20.8984 6.19931 20.8984 6.31754V6.79046C20.8984 6.92839 20.997 7.02692 21.1349 7.02692H21.5881C21.5487 7.34219 21.5684 7.73629 21.5881 7.97275H21.1349C20.997 7.97275 20.8984 8.09098 20.8984 8.20921V8.68213C20.8984 8.82006 20.997 8.91858 21.1349 8.91858H21.7655C22.2778 10.6723 23.7951 11.9137 25.805 11.9137C26.2779 11.9137 26.6917 11.8349 26.9281 11.7758C27.0661 11.7561 27.1449 11.6182 27.1055 11.4999Z" fill="white"/>
</svg>
