<svg height="50" viewBox="0 0 100 50.00389" width="100" xmlns="http://www.w3.org/2000/svg" xmlns:xlink="http://www.w3.org/1999/xlink"><clipPath id="a"><path d="m459.121 199.94v-7.298h2.16v2.288h2.36v2.055h-2.332v.977h2.726l-.029 1.978z"/></clipPath><clipPath id="b"><path d="m.000046-.469818h1.12384v.93631h-1.12384z"/></clipPath><clipPath id="c"><path d="m475.342 199.979-.836-1.555-.951 1.555h-2.601l2.235-3.481-2.388-3.855v-.001h2.582l1.068 1.618 1.075-1.618h2.64v.001l-2.451 3.829 2.268 3.507z"/></clipPath><clipPath id="d"><path d="m-.005646-.512924h1.00568v1.00746h-1.00568z"/></clipPath><clipPath id="e"><path d="m463.965 196.303c0-2.043 1.811-3.699 4.043-3.699 2.235 0 4.041 1.656 4.041 3.699 0 2.044-1.806 3.702-4.041 3.702-2.232 0-4.043-1.658-4.043-3.702m3.385-1.73v3.386s-.028.524.688.524c.718 0 .673-.524.673-.524v-3.111c0-.353-.041-.644-.703-.644-.658 0-.658.369-.658.369"/></clipPath><clipPath id="f"><path d="m-.149246-.676437h1.29831v1.35284h-1.29831z"/></clipPath><clipPath id="g"><path d="m478.525 199.979 2.422-8.25h.988l.002.001-1.093 8.249z"/></clipPath><clipPath id="h"><path d="m-.000122-.267853h1.00009v.675965h-1.00009z"/></clipPath><clipPath id="i"><path d="m476.35 196.52 2.995-4.791h1.253l-2.625 7.24z"/></clipPath><clipPath id="j"><path d="m-.072144-.473816h1.07222v.839981h-1.07222z"/></clipPath><clipPath id="k"><path d="m459.112 192.197v-.47h19.595l-.295.47z"/></clipPath><clipPath id="l"><path d="m-.000137-1.31131h1v2.60011h-1z"/></clipPath><clipPath id="m"><path d="m464.9 191.321v-1.689c0-.124-.037-.185-.117-.185h-1.611c-.08 0-.121.061-.121.185v1.689h-.571-.001v-1.689c0-.207.064-.384.193-.533.127-.148.293-.223.5-.223h1.611c.204 0 .368.075.499.223.13.149.193.326.193.533v1.688.001z"/></clipPath><clipPath id="n"><path d="m.000122-.550201h1.06146v1.16666h-1.06146z"/></clipPath><clipPath id="o"><path d="m466.534 191.321c-.202 0-.37-.074-.497-.222-.129-.15-.195-.328-.195-.533 0-.207.063-.382.191-.526.131-.15.299-.226.501-.226h1.531c.078 0 .12-.062.12-.183 0-.123-.042-.184-.12-.184h-2.104v-.571h2.104c.203 0 .371.076.502.228.125.145.185.321.185.527 0 .203-.06.381-.185.525-.131.153-.299.228-.502.228h-1.531c-.078 0-.12.061-.12.182 0 .122.042.184.12.184h2.103v.571z"/></clipPath><clipPath id="p"><path d="m-.06633-.613464h1.13226v1.22783h-1.13226z"/></clipPath><clipPath id="q"><path d="m469.054 191.321h-.001v-2.445h.569l.002.001v2.444z"/></clipPath><clipPath id="r"><path d="m-.000137-.275284h.999878v.550659h-.999878z"/></clipPath><clipPath id="s"><path d="m472.022 191.321v-1.636l-1.465 1.636h-.57-.001v-2.445h.571v1.647l1.465-1.647h.567.001v2.445z"/></clipPath><clipPath id="t"><path d="m-.000305-.514893h1.00021v1.03003h-1.00021z"/></clipPath><clipPath id="u"><path d="m472.955 191.321h-.001v-2.445h2.599v.571h-2.029v.367h1.9v.57h-1.9v.366h2.033v.571z"/></clipPath><clipPath id="v"><path d="m.000107-.514999h1.00041v1.03004h-1.00041z"/></clipPath><clipPath id="w"><path d="m476.614 191.321c-.202 0-.366-.074-.497-.222-.13-.15-.195-.328-.195-.533 0-.207.063-.382.191-.526.132-.15.299-.226.501-.226h1.531c.078 0 .119-.062.119-.183 0-.123-.041-.184-.119-.184h-2.104v-.571h2.106c.201 0 .371.076.504.228.121.145.183.321.183.527 0 .203-.062.381-.183.525-.134.153-.303.228-.504.228h-1.533c-.08 0-.12.061-.12.182 0 .122.04.184.12.184h2.105v.571z"/></clipPath><clipPath id="x"><path d="m-.066116-.613434h1.13211v1.22804h-1.13211z"/></clipPath><clipPath id="y"><path d="m479.824 191.321c-.2 0-.363-.074-.496-.222-.127-.15-.195-.328-.195-.533 0-.207.065-.382.187-.526.137-.15.304-.226.504-.226h1.534c.078 0 .12-.062.12-.183 0-.123-.042-.184-.12-.184h-2.104v-.571h2.104c.201 0 .369.076.502.228.125.145.185.321.185.527 0 .203-.06.381-.185.525-.133.153-.301.228-.502.228h-1.534c-.077 0-.117.061-.117.182 0 .122.04.184.117.184h2.106v.571z"/></clipPath><clipPath id="z"><path d="m-.066559-.61348h1.13249v1.22849h-1.13249z"/></clipPath><clipPath id="A"><path d="m459.124 191.321h-.001v-2.445h.001 2.366c.215 0 .385.068.512.209.117.124.176.28.176.465 0 .252-.102.442-.301.565.17.127.254.305.254.532 0 .184-.058.339-.174.465-.125.139-.297.209-.509.209zm.57-.571h1.754c.082 0 .122-.063.122-.186 0-.124-.04-.187-.122-.187h-1.754zm0-.936h1.796c.082 0 .125-.062.125-.183 0-.123-.043-.184-.125-.184h-1.796z"/></clipPath><clipPath id="B"><path d="m.000061-.623215h1.05832v1.17377h-1.05832z"/></clipPath><g transform="matrix(4.2442983 0 0 4.2442983 -1610.6894 -2183.2019)"><g clip-path="url(#a)" transform="matrix(1 0 0 -1 -79.296923 714.64134)"><g clip-path="url(#b)" transform="matrix(2.5985565 -7.1394653 -7.1394653 -2.5985565 460.10504 200.29901)"><path d="m4.060998 65.923392-97.955987-35.653113 27.550133-75.693263 97.955987 35.653114z"/></g></g><g clip-path="url(#c)" transform="matrix(1 0 0 -1 -79.296923 714.64134)"><g clip-path="url(#d)" transform="matrix(3.2014313 -8.7958527 -8.7958527 -3.2014313 472.8111 200.65448)"><path d="m2.867678 54.797617-79.509456-28.9391 22.362032-61.439124 79.509456 28.9391z"/></g></g><g clip-path="url(#e)" transform="matrix(1 0 0 -1 -79.296923 714.64134)"><g clip-path="url(#f)" transform="matrix(2.5604706 -7.0348511 -7.0348511 -2.5604706 466.72711 199.82147)"><path d="m3.758992 67.713146-99.41276-36.183204 27.959748-76.818951 99.412761 36.183204z"/></g></g><g clip-path="url(#g)" transform="matrix(1 0 0 -1 -79.296923 714.64134)"><g clip-path="url(#h)" transform="matrix(3.0504608 -8.381073 -8.381073 -3.0504608 479.29352 200.258)"><path d="m2.719259 58.177337-83.444401-30.371275 23.468713-64.479764 83.444401 30.371275z"/></g></g><g clip-path="url(#i)" transform="matrix(1 0 0 -1 -79.296923 714.64134)"><g clip-path="url(#j)" transform="matrix(2.6336212 -7.2358093 -7.2358093 -2.6336212 476.86285 198.56464)"><path d="m3.050951 67.013638-96.651729-35.178379 27.183293-74.685427 96.651729 35.178379z"/></g></g><g clip-path="url(#k)" transform="matrix(1 0 0 -1 -79.296923 714.64134)"><g clip-path="url(#l)" transform="matrix(2.4432373 -6.7127533 -6.7127533 -2.4432373 467.61285 195.29022)"><path d="m3.300889 70.861789-104.182879-37.919386 29.301348-80.504949 104.182875 37.919386z"/></g></g><g clip-path="url(#m)" transform="matrix(1 0 0 -1 -79.296923 714.64134)"><g clip-path="url(#n)" transform="matrix(1.0704803 -2.9411316 -2.9411316 -1.0704803 463.50641 191.6955)"><path d="m6.903423 160.10721-237.784063-86.545988 66.87645-183.742232 237.784062 86.545994z"/></g></g><g clip-path="url(#o)" transform="matrix(1 0 0 -1 -79.296923 714.64134)"><g clip-path="url(#p)" transform="matrix(.9946594 -2.7328186 -2.7328186 -.9946594 466.80133 191.46503)"><path d="m6.967762 173.34919-255.909582-93.142984 71.97412-197.748316 255.909583 93.142985z"/></g></g><g clip-path="url(#q)" transform="matrix(1 0 0 -1 -79.296923 714.64134)"><g clip-path="url(#r)" transform="matrix(.8527069 -2.342804 -2.342804 -.8527069 468.91266 191.26971)"><path d="m7.76442 202.97619-298.51169-108.648854 83.95594-230.668116 298.511684 108.648851z"/></g></g><g clip-path="url(#s)" transform="matrix(1 0 0 -1 -79.296923 714.64134)"><g clip-path="url(#t)" transform="matrix(1.0901947 -2.9952698 -2.9952698 -1.0901947 470.74371 191.59589)"><path d="m5.972252 159.33611-233.485732-84.982298 65.66814-180.420792 233.48573 84.982297z"/></g></g><g clip-path="url(#u)" transform="matrix(1 0 0 -1 -79.296923 714.64134)"><g clip-path="url(#v)" transform="matrix(1.089859 -2.9943542 -2.9943542 -1.089859 473.71051 191.59686)"><path d="m5.656046 160.25987-233.557246-85.008139 65.68811-180.476051 233.55724 85.008133z"/></g></g><g clip-path="url(#w)" transform="matrix(1 0 0 -1 -79.296923 714.64134)"><g clip-path="url(#x)" transform="matrix(.9949951 -2.7337341 -2.7337341 -.9949951 476.88239 191.466)"><path d="m5.780417 176.54748-255.823727-93.111964 71.95015-197.681976 255.823733 93.11197z"/></g></g><g clip-path="url(#y)" transform="matrix(1 0 0 -1 -79.296923 714.64134)"><g clip-path="url(#z)" transform="matrix(.9946594 -2.7328186 -2.7328186 -.9946594 480.0943 191.46503)"><path d="m5.404445 177.64439-255.909575-93.142984 71.97412-197.748316 255.909576 93.142984z"/></g></g><g clip-path="url(#A)" transform="matrix(1 0 0 -1 -79.296923 714.64134)"><g clip-path="url(#B)" transform="matrix(1.0801697 -2.9677429 -2.9677429 -1.0801697 459.97125 191.63007)"><path d="m7.204717 157.61256-235.651697-85.770169 66.27695-182.094491 235.6517 85.77017z"/></g></g></g></svg>