<svg width="32" height="32" viewBox="0 0 32 32" fill="none" xmlns="http://www.w3.org/2000/svg">
<path d="M16 32C24.8366 32 32 24.8366 32 16C32 7.16344 24.8366 0 16 0C7.16344 0 0 7.16344 0 16C0 24.8366 7.16344 32 16 32Z" fill="#1969EE"/>
<path d="M15.1217 6.19158C15.6145 5.93614 16.3644 5.93614 16.8572 6.19158L21.8861 8.79817C22.1829 8.952 22.3459 9.18125 22.3752 9.41792H22.38V22.52C22.3734 22.7781 22.2089 23.0345 21.8861 23.2018L16.8572 25.8084C16.3644 26.0639 15.6145 26.0639 15.1217 25.8084L10.0928 23.2018C9.77137 23.0353 9.61714 22.777 9.60952 22.52C9.60876 22.4947 9.60863 22.4735 9.60939 22.456L9.60935 9.50208C9.60884 9.48787 9.6088 9.47371 9.60922 9.45958L9.60952 9.41792H9.61175C9.63411 9.17867 9.78968 8.95525 10.0928 8.79817L15.1217 6.19158ZM21.5883 16.7275L16.8572 19.1797C16.3644 19.4351 15.6145 19.4351 15.1217 19.1797L10.401 16.733V22.494L15.1217 24.9279C15.3882 25.0678 15.6649 25.204 15.9354 25.2214L15.9894 25.2231C16.2714 25.224 16.545 25.0835 16.8226 24.9506L21.5883 22.4731V16.7275ZM8.79154 22.2351C8.79154 22.737 8.85099 23.067 8.96905 23.2995C9.06691 23.4922 9.21368 23.6393 9.48173 23.8185L9.49701 23.8287C9.55587 23.8676 9.62067 23.9084 9.69954 23.9562L9.79255 24.0122L10.0782 24.1814L9.66851 24.846L9.3488 24.6565L9.29507 24.6242C9.20261 24.5681 9.12602 24.5201 9.05453 24.4728C8.29061 23.9673 8.00573 23.4164 8.00008 22.27L8 22.2351H8.79154ZM15.5936 13.2157C15.5569 13.2281 15.5226 13.2423 15.4913 13.2586L10.4624 15.8652C10.4572 15.8679 10.4521 15.8706 10.4474 15.8732L10.4431 15.8757L10.451 15.8801L10.4624 15.8862L15.4913 18.4928C15.5226 18.509 15.5569 18.5233 15.5936 18.5357V13.2157ZM16.3853 13.2157V18.5357C16.4219 18.5233 16.4563 18.509 16.4875 18.4928L21.5165 15.8862C21.5217 15.8835 21.5268 15.8808 21.5315 15.8781L21.5358 15.8757L21.5279 15.8712L21.5165 15.8652L16.4875 13.2586C16.4563 13.2423 16.4219 13.2281 16.3853 13.2157ZM21.5883 10.3473L17.0771 12.6856L21.5883 15.0239V10.3473ZM10.401 10.3528V15.0184L14.9017 12.6856L10.401 10.3528ZM16.4875 6.87846C16.226 6.74291 15.7529 6.74291 15.4913 6.87846L10.4624 9.48504C10.4572 9.48779 10.4521 9.4905 10.4474 9.49317L10.4431 9.49558L10.451 9.50004L10.4624 9.50612L15.4913 12.1127C15.7529 12.2482 16.226 12.2482 16.4875 12.1127L21.5165 9.50612C21.5217 9.50342 21.5268 9.50071 21.5315 9.498L21.5358 9.49558L21.5279 9.49117L21.5165 9.48504L16.4875 6.87846ZM22.3315 7.16429L22.6512 7.35379L22.7049 7.38617C22.7974 7.44217 22.874 7.49025 22.9455 7.53754C23.7094 8.04296 23.9943 8.594 23.9998 9.74033L24 9.77525H23.2085C23.2085 9.27325 23.149 8.94329 23.0309 8.71083C22.9331 8.51821 22.7863 8.37096 22.5183 8.19179L22.503 8.18163C22.4442 8.14271 22.3793 8.10196 22.3005 8.05404L22.2075 7.99813L21.9218 7.82896L22.3315 7.16429Z" fill="white"/>
</svg>
