<svg width="32" height="32" viewBox="0 0 32 32" fill="none" xmlns="http://www.w3.org/2000/svg">
<circle cx="16" cy="16" r="16" fill="black"/>
<path d="M24.9687 9.97625C24.6479 9.72327 24.2653 9.37774 23.5681 9.29135C22.914 9.20497 22.2476 9.64306 21.7972 9.93306C21.3468 10.2231 20.4953 11.0746 20.1436 11.3337C19.7919 11.5929 18.891 11.8335 17.441 12.7035C15.991 13.5735 10.302 17.2263 10.302 17.2263L11.7828 17.2448L5.18063 20.6447H5.84085L4.89062 21.3666C4.89062 21.3666 5.72978 21.5887 6.4332 21.1445V21.3481C6.4332 21.3481 14.2941 18.2506 15.812 19.0527L14.8865 19.3242C14.9667 19.3242 16.4599 19.4229 16.4599 19.4229C16.4599 19.4229 16.5093 20.3547 17.4101 20.9532C18.311 21.5455 18.3295 21.8725 18.3295 21.8725C18.3295 21.8725 17.8606 22.0638 17.8606 22.3045C17.8606 22.3045 18.5516 22.0947 19.1933 22.1132C19.8351 22.1317 20.3965 22.3045 20.3965 22.3045C20.3965 22.3045 20.3472 22.0453 19.724 21.8725C19.0946 21.6936 18.4838 21.021 18.1814 20.6508C17.8791 20.2806 17.6693 19.6204 17.9284 18.9602C18.1444 18.3987 18.8972 18.0902 20.4521 17.288C22.2847 16.3378 22.7042 15.6344 22.9634 15.0852C23.2225 14.5361 23.6051 13.444 23.8211 12.9318C24.0925 12.2716 24.4257 11.9199 24.7034 11.7101C24.9749 11.5003 26.2151 11.0375 26.2151 11.0375C26.2151 11.0375 25.2711 10.2169 24.9687 9.97625Z" fill="white"/>
</svg>
