<svg width="334" height="117" viewBox="0 0 334 117" fill="none" xmlns="http://www.w3.org/2000/svg">
<path fill-rule="evenodd" clip-rule="evenodd" d="M139.807 68.427C139.807 70.2611 140.332 70.6802 143.685 70.6802V71.8329H132V70.6802C134.305 70.6802 135.092 70.4705 135.092 68.4795V49.7729C135.092 47.7816 134.305 47.5719 132 47.5719V46.4191H151.597L151.702 53.3882H150.759C150.235 48.1485 148.925 47.6772 144.052 47.6772H139.755V58.0522H143.213C146.515 58.0522 146.724 57.5281 146.986 54.9082H147.93V62.5062H146.986C146.724 59.8863 146.515 59.4144 143.213 59.4144H139.755V68.4273L139.807 68.427ZM154.113 71.8329V70.6802C156.418 70.6802 157.204 70.4705 157.204 68.4795V49.7729C157.204 47.7816 156.418 47.5719 154.113 47.5719V46.4191H165.012V47.5722C162.706 47.5722 161.92 47.7819 161.92 49.7732V68.4798C161.92 70.4708 162.706 70.6805 165.012 70.6805V71.8332L154.113 71.8329ZM189.744 72.2521L172.347 50.7159V68.3748C172.347 70.4186 173.762 70.7327 176.173 70.7327V71.8857H166.951V70.7327C169.361 70.7327 170.671 70.4186 170.671 68.3748V48.7771C169.57 47.6244 168.784 47.5719 166.951 47.5719V46.4191H175.125L188.434 63.5539V49.8776C188.434 47.8341 187.02 47.5197 184.609 47.5197V46.4191H193.884V47.5722C191.474 47.5722 190.163 47.8866 190.163 49.9304V72.2527H189.744V72.2521ZM202.163 71.8329H192.993V70.6802C195.403 70.6802 196.504 70.3658 197.29 68.2698L205.569 46.1572H207.874L216.782 68.427C217.568 70.4183 217.935 70.6277 219.769 70.6277V71.7804H209.132V70.6277C212.381 70.6277 212.695 70.3658 211.909 68.427L209.289 61.6676H201.324L198.967 68.2173C198.233 70.2086 199.386 70.6277 202.216 70.6277V71.8329H202.163ZM201.796 60.3574H208.713L205.097 51.24L201.796 60.3574ZM243.663 72.2521L226.319 50.7159V68.3748C226.319 70.4186 227.734 70.7327 230.144 70.7327V71.8857H221.131V70.7327C223.332 70.7327 224.642 70.4186 224.642 68.3748V48.8296C223.385 47.6769 222.441 47.5719 220.346 47.5719V46.4191H229.044L242.353 63.5539V49.8776C242.353 47.8341 240.938 47.5197 238.528 47.5197V46.4191H247.751V47.5722C245.34 47.5722 244.03 47.8866 244.03 49.9304V72.2527H243.663V72.2521ZM269.391 46.3669H270.02L270.387 53.9646L269.444 54.0171C268.815 49.6682 266.51 47.3624 262.265 47.3624C257.549 47.3624 253.986 51.3973 253.986 57.5803C253.986 65.4927 258.964 69.9988 264.204 69.9988C266.457 69.9988 268.501 69.3703 270.492 67.2221L271.226 67.9553C269.601 70.2611 266.405 72.1999 262.108 72.1999C255.715 72.1999 249.218 67.379 249.218 59.3093C249.217 51.502 255.138 46 262.318 46C265.724 46 267.505 47.4671 268.448 47.4671C268.867 47.4671 269.182 47.1005 269.391 46.3669ZM273.321 71.8329V70.6802C275.627 70.6802 276.413 70.4705 276.413 68.4795V49.7729C276.413 47.7816 275.627 47.5719 273.321 47.5719V46.4191H284.22V47.5722C281.915 47.5722 281.129 47.7819 281.129 49.7732V68.4798C281.129 70.4708 281.915 70.6805 284.22 70.6805V71.8332L273.321 71.8329ZM294.491 71.8329H285.95V70.6802C287.836 70.6802 288.832 70.3658 289.618 68.2698L297.897 46.1572H300.202L309.11 68.427C309.896 70.4183 310.263 70.6277 312.097 70.6277V71.7804H301.46V70.6277C304.709 70.6277 305.023 70.3658 304.237 68.427L301.617 61.6676H293.653L291.295 68.2173C290.561 70.2086 291.714 70.6277 294.544 70.6277V71.8329H294.491ZM294.124 60.3574H301.041L297.478 51.24L294.124 60.3574ZM313.878 71.8329V70.6802C316.184 70.6802 316.97 70.4705 316.97 68.4795V49.7729C316.97 47.7816 316.184 47.5719 313.878 47.5719V46.4191H324.725V47.5722C322.42 47.5722 321.686 47.7819 321.686 49.7732V68.637C321.686 70.3136 322.524 70.5233 323.887 70.5233H325.197C330.122 70.5233 331.694 69.7897 333.057 64.1831L334 64.2878L333.214 71.781H313.878V71.8335V71.8329Z" fill="black"/>
<path fill-rule="evenodd" clip-rule="evenodd" d="M155.003 87.1452L155.108 94.5335H154.165C153.641 89.084 152.331 88.4033 147.458 88.4033H145.886V109.153C145.886 111.145 146.619 111.407 149.763 111.407V112.559H137.292V111.407C140.436 111.407 141.222 111.092 141.222 109.153V88.4029H139.65C134.777 88.4029 133.467 89.084 132.943 94.5335H132L132.105 87.1452H155.003ZM157.466 112.559V111.406C159.772 111.406 160.558 111.197 160.558 109.206V90.499C160.558 88.5077 159.772 88.2979 157.466 88.2979V87.1452H168.365V88.2982C166.059 88.2982 165.273 88.508 165.273 90.4993V109.206C165.273 111.197 166.059 111.407 168.365 111.407V112.559H157.466ZM201.168 87.1449V88.2982C198.862 88.2982 197.866 88.4033 198.076 90.4468L200.067 109.311C200.277 111.249 201.01 111.459 203.316 111.459V112.612H192.469V111.459C194.722 111.459 195.508 111.249 195.351 109.311L193.307 89.5028L185.29 113.03H184.976L177.116 89.451L175.229 109.258C175.02 111.249 176.382 111.458 178.687 111.458V112.612H170.199V111.458C172.504 111.458 173.29 111.092 173.447 109.258L175.439 90.3939C175.648 88.4029 174.653 88.2457 172.347 88.2457V87.1452H181.255L186.6 104.489L192.364 87.1452H201.167L201.168 87.1449ZM221.446 103.232H220.503C220.241 100.612 220.031 100.14 216.73 100.14H212.852V109.362C212.852 111.039 213.691 111.249 215.053 111.249H217.149C222.075 111.249 223.646 110.515 225.009 104.909L225.952 105.013L225.061 112.506H205.045V111.353C207.35 111.353 208.136 111.144 208.136 109.153V90.499C208.136 88.5077 207.35 88.2979 205.045 88.2979V87.1452H224.275L224.38 93.4855H223.437C222.861 88.979 221.708 88.4551 216.677 88.4551H212.905V98.7777H216.782C220.083 98.7777 220.293 98.2538 220.555 95.634H221.498V103.232L221.446 103.232ZM241.672 107.319C241.672 105.013 240.205 103.861 237.69 102.446L233.655 100.35C230.616 98.7252 228.835 96.9436 228.835 93.7474C228.834 89.7654 232.24 86.7261 236.694 86.7261C239.733 86.7261 241.305 88.1932 242.196 88.1932C242.772 88.1932 243.034 87.8266 243.296 87.093H244.03L244.397 94.2193L243.453 94.2718C242.93 90.8131 240.467 88.1407 237.009 88.1407C234.388 88.1407 232.659 89.7129 232.659 91.9136C232.659 94.324 234.493 95.3195 236.537 96.4201L239.995 98.2538C243.244 100.035 245.55 101.817 245.55 105.223C245.55 109.729 241.672 112.926 236.851 112.926C233.445 112.926 231.769 111.301 230.878 111.301C230.301 111.301 229.987 111.825 229.725 112.612H228.991L228.467 105.066L229.411 104.961C230.144 109.677 233.393 111.616 236.642 111.616C239.367 111.563 241.672 110.358 241.672 107.319L241.672 107.319Z" fill="black"/>
<path fill-rule="evenodd" clip-rule="evenodd" d="M0 0H117V117H0V0ZM28.48 64.4551C28.48 68.3267 29.5864 69.2114 36.665 69.2114V71.6445H12V69.2114C16.8662 69.2114 18.5264 68.7686 18.5264 64.5659V25.0791C18.5264 20.876 16.8662 20.4331 12 20.4331V18H53.3672L53.5889 32.7109H51.5977C50.4912 21.6504 47.7261 20.6558 37.4399 20.6558H28.3701V42.5557H35.6694C42.6382 42.5557 43.0806 41.4492 43.6338 35.9189H45.625V51.9575H43.6338C43.0806 46.4272 42.6382 45.4312 35.6694 45.4312H28.3701V64.4561L28.48 64.4551ZM106.777 33.5957L106.557 18H58.2212L58 33.5957H59.9907C61.0967 22.0923 63.8618 20.6548 74.1484 20.6548H77.4663V64.4561C77.4663 68.5483 75.8076 69.2119 69.1709 69.2119V71.6455H95.4956V69.2119C88.8589 69.2119 87.3105 68.6592 87.3105 64.4561V20.6558H90.6284C100.916 20.6558 103.681 22.0923 104.787 33.5957H106.777Z" fill="black"/>
</svg>
