<svg width="84" height="24" viewBox="0 0 84 24" fill="none" xmlns="http://www.w3.org/2000/svg">
<g clip-path="url(#clip0)">
<path d="M10.0161 23.1595C10.0161 23.1595 19.206 19.9039 19.206 8.16033V3.97451C19.206 3.50942 18.8656 3.1606 18.4118 3.04433C15.4619 2.92805 12.6256 2.34669 10.0161 1.06769C7.4066 2.23042 4.57021 2.92805 1.62036 3.04433C1.16654 3.04433 0.826172 3.50942 0.826172 3.97451V8.16033C0.826172 19.9039 10.0161 23.1595 10.0161 23.1595Z" fill="#00ADEE"/>
<path d="M13.758 9.78793C13.6445 8.50893 12.6234 8.04384 11.2619 7.92756V6.0672H10.1274V7.81129H9.21972V6.0672H8.19862V7.81129H6.04297V8.97402H7.40444V14.6714H6.26988V15.9504H8.08517V17.8107H9.10627V15.9504H9.90046V17.6945H11.035V15.9504C12.8503 15.8341 14.0984 15.369 14.2118 13.7412C14.4387 12.6947 13.8714 11.7646 12.8503 11.532H12.7369C13.4176 11.1832 13.8714 10.4856 13.758 9.78793ZM12.1696 13.6249C12.1696 15.0202 9.90046 14.7877 9.21972 14.7877V12.4622C10.0139 12.3459 12.1696 12.1134 12.1696 13.6249ZM11.7157 10.253C11.7157 11.4157 9.90046 11.2995 9.21972 11.2995V9.09029C9.90046 9.09029 11.7157 8.97402 11.7157 10.253Z" fill="white"/>
<path d="M37.4694 15.7183C37.4694 16.5322 37.356 17.3461 36.9022 18.0437C36.5618 18.6251 36.108 19.2064 35.4272 19.5553C34.7465 19.9041 34.0658 20.2529 33.385 20.3692C32.5909 20.4854 31.7967 20.6017 31.0025 20.6017H24.3086V3.62589H31.0025C31.6832 3.62589 32.3639 3.74216 33.0447 3.85843C33.7254 3.9747 34.2927 4.20725 34.86 4.55607C35.4272 4.90489 35.8811 5.36998 36.2214 5.83507C36.5618 6.53271 36.7887 7.23034 36.6753 8.04425C36.6753 8.85816 36.4483 9.67207 35.8811 10.3697C35.3138 10.9511 34.6331 11.4162 33.8389 11.6487C34.2927 11.765 34.7465 11.8813 35.2003 12.1138C35.6542 12.3463 35.9945 12.5789 36.3349 12.9277C36.6753 13.2765 36.9022 13.6253 37.0156 14.0904C37.356 14.6718 37.4694 15.1369 37.4694 15.7183ZM32.9312 8.50934C32.9312 7.92798 32.7043 7.46289 32.2505 7.23034C31.6832 6.88152 31.0025 6.76525 30.3217 6.88152H28.393V10.3697H30.5487C31.1159 10.3697 31.7967 10.2534 32.2505 9.90462C32.5909 9.5558 32.9312 9.09071 32.9312 8.50934ZM33.385 15.3694C33.4985 14.7881 33.1581 14.2067 32.5909 13.8579C31.9101 13.5091 31.2294 13.3928 30.5487 13.3928H28.2795V17.3461H30.5487C30.889 17.3461 31.2294 17.3461 31.5698 17.2298C31.9101 17.2298 32.2505 17.1135 32.4774 16.881C33.0447 16.6484 33.4985 16.0671 33.385 15.3694Z" fill="#231F20"/>
<path d="M42.8038 4.78818C42.8038 5.137 42.6904 5.36954 42.5769 5.60209C42.4635 5.83463 42.35 6.06718 42.1231 6.29972C41.8962 6.53227 41.6693 6.64854 41.4424 6.76481C41.2155 6.88109 40.8751 6.88109 40.5347 6.88109C39.9675 6.88109 39.4002 6.64854 38.9464 6.29972C38.4925 5.9509 38.2656 5.36954 38.2656 4.78818C38.2656 4.55563 38.3791 4.20681 38.4925 3.97427C38.606 3.74172 38.7194 3.50918 38.9464 3.27663C39.1733 3.04409 39.4002 2.92781 39.6271 2.81154C39.854 2.69527 40.1944 2.57899 40.5347 2.57899C40.8751 2.57899 41.102 2.579 41.4424 2.69527C41.6693 2.81154 41.8962 2.92781 42.1231 3.16036C42.35 3.3929 42.4635 3.62545 42.5769 3.858C42.8038 4.20681 42.8038 4.55563 42.8038 4.78818ZM38.606 20.7175V8.62518H42.4635V20.7175H38.606Z" fill="#231F20"/>
<path d="M49.6122 11.6482V16.2991C49.6122 16.7642 49.7257 17.2293 49.9526 17.5781C50.293 17.9269 50.6333 18.0432 51.0871 18.0432C51.3141 18.0432 51.541 18.0432 51.6544 18.0432C51.8813 18.0432 51.9948 17.9269 52.2217 17.9269V20.8338C51.8813 20.95 51.541 21.0663 51.2006 21.0663C50.7468 21.1826 50.4064 21.1826 49.9526 21.1826C49.2719 21.1826 48.5911 21.0663 47.9104 20.8338C47.4566 20.6012 47.0028 20.3687 46.6624 19.9036C46.322 19.5548 46.0951 19.0897 45.9816 18.5083C45.8682 17.9269 45.8682 17.2293 45.8682 16.6479V11.5319H43.9395V8.62513H45.7547V5.48576H49.6122V8.62513H52.3352V11.5319H49.6122V11.6482Z" fill="#231F20"/>
<path d="M66.2873 20.7173C65.1527 20.9498 63.9047 21.1824 62.6567 21.0661C61.4087 21.0661 60.1607 20.8336 59.0261 20.3685C57.8916 20.0196 56.9839 19.322 56.0763 18.5081C55.2821 17.6942 54.6014 16.764 54.1475 15.6013C53.2399 13.1596 53.2399 10.6016 54.1475 8.15983C54.6014 7.11337 55.2821 6.06692 56.0763 5.25301C56.8705 4.4391 57.8916 3.85773 59.0261 3.50892C60.1607 3.04382 61.4087 2.92755 62.5432 2.92755C63.7913 2.92755 65.0393 3.1601 66.1738 3.50892C67.1949 3.85773 68.1026 4.4391 68.8968 5.13673L66.5142 8.39237C66.0604 7.92728 65.4931 7.46219 64.9258 7.22964C64.2451 6.88083 63.5643 6.76455 62.7702 6.76455C62.0894 6.76455 61.4087 6.88083 60.8414 7.11337C59.5934 7.69474 58.6858 8.62492 58.2319 9.90392C58.005 10.6016 57.8916 11.2992 57.8916 11.9968C57.8916 12.6945 58.005 13.5084 58.2319 14.206C58.4588 14.7874 58.7992 15.3687 59.253 15.9501C59.7069 16.4152 60.2741 16.8803 60.8414 17.1128C61.5221 17.3454 62.3163 17.5779 62.9971 17.4616C63.4509 17.4616 63.9047 17.4616 64.3585 17.3454C64.6989 17.2291 65.1527 17.1128 65.4931 16.9966V13.8572H62.3163V10.4853H69.2371V19.5546C68.3295 20.1359 67.3084 20.4847 66.2873 20.7173Z" fill="#231F20"/>
<path d="M83.76 14.6711C83.76 15.6013 83.6466 16.5315 83.1928 17.3454C82.8524 18.1593 82.3986 18.8569 81.8313 19.4383C81.264 20.0196 80.4698 20.4847 79.7891 20.7173C78.2007 21.2986 76.3854 21.2986 74.797 20.7173C74.0028 20.3685 73.3221 20.0196 72.7548 19.4383C72.1876 18.8569 71.6203 18.1593 71.3934 17.3454C70.7126 15.6013 70.7126 13.7409 71.3934 11.9968C71.7337 11.1829 72.1876 10.6015 72.7548 10.0202C73.3221 9.43882 74.1163 9.09 74.797 8.74118C76.3854 8.15982 78.2007 8.15982 79.7891 8.74118C80.5833 8.97373 81.264 9.43882 81.8313 10.0202C82.3986 10.6015 82.9659 11.1829 83.1928 11.9968C83.6466 12.8107 83.76 13.7409 83.76 14.6711ZM80.016 14.6711C80.016 14.3223 79.9025 13.8572 79.7891 13.5084C79.6756 13.1596 79.4487 12.8107 79.2218 12.5782C78.9949 12.3456 78.6545 12.1131 78.3142 11.8805C77.52 11.5317 76.7258 11.5317 75.9316 11.8805C75.5912 11.9968 75.2509 12.2294 75.0239 12.5782C74.797 12.8107 74.5701 13.1596 74.4567 13.5084C74.3432 13.8572 74.2298 14.3223 74.2298 14.6711C74.2298 15.0199 74.3432 15.485 74.4567 15.8338C74.5701 16.1826 74.797 16.5315 75.0239 16.8803C75.2509 17.2291 75.5912 17.4616 75.9316 17.5779C76.7258 17.9267 77.52 17.9267 78.3142 17.5779C78.6545 17.4616 78.9949 17.1128 79.2218 16.8803C79.4487 16.5315 79.6756 16.1826 79.7891 15.8338C80.016 15.3687 80.016 15.0199 80.016 14.6711Z" fill="#231F20"/>
</g>
<defs>
<clipPath id="clip0">
<rect width="83.7648" height="22.0918" fill="white" transform="translate(0 0.954086)"/>
</clipPath>
</defs>
</svg>
