<svg width="129" height="32" viewBox="0 0 129 32" fill="none" xmlns="http://www.w3.org/2000/svg">
<g clip-path="url(#clip0)">
<path d="M33.9277 11.3946H46.9453V13.8379H41.8197V27.6109H39.0103V13.8379H33.9062L33.9277 11.3946ZM46.3877 15.8703H48.7896V18.1406H48.8325C48.9183 17.8163 49.0684 17.5136 49.2828 17.2109C49.4973 16.9081 49.7546 16.6271 50.0763 16.3892C50.3766 16.1298 50.7197 15.9352 51.1057 15.7838C51.4703 15.6325 51.8563 15.546 52.2424 15.546C52.5426 15.546 52.757 15.5676 52.8643 15.5676C52.9715 15.5892 53.1002 15.6109 53.2074 15.6109V18.0973C53.0358 18.0541 52.8428 18.0325 52.6498 18.0108C52.4568 17.9892 52.2852 17.9676 52.0922 17.9676C51.6633 17.9676 51.2558 18.0541 50.8698 18.2271C50.4838 18.4 50.1621 18.6595 49.8619 18.9838C49.5831 19.3298 49.3472 19.7406 49.1756 20.2379C49.004 20.7352 48.9183 21.319 48.9183 21.9676V27.546H46.3448L46.3877 15.8703ZM65.0026 27.6109H62.472V25.9676H62.4291C62.1074 26.573 61.6356 27.0271 61.0137 27.3946C60.3917 27.7622 59.7484 27.9352 59.105 27.9352C57.5823 27.9352 56.4672 27.5676 55.7809 26.7892C55.0946 26.0325 54.7515 24.8649 54.7515 23.3298V15.8703H57.325V23.0703C57.325 24.1082 57.518 24.8433 57.9255 25.2541C58.3115 25.6865 58.8691 25.9027 59.5768 25.9027C60.1129 25.9027 60.5633 25.8163 60.9279 25.6433C61.2924 25.4703 61.5927 25.2541 61.8071 24.973C62.0431 24.6919 62.1932 24.346 62.3004 23.9568C62.4076 23.5676 62.4505 23.1352 62.4505 22.6811V15.8703H65.024V27.6109H65.0026ZM69.3775 23.8487C69.4633 24.6054 69.7421 25.1244 70.2353 25.4487C70.7286 25.7514 71.329 25.9027 72.0153 25.9027C72.2512 25.9027 72.53 25.8811 72.8303 25.8379C73.1305 25.7946 73.4307 25.7298 73.6881 25.6217C73.9669 25.5136 74.1813 25.3622 74.3529 25.146C74.5245 24.9298 74.6102 24.6703 74.5888 24.346C74.5674 24.0217 74.4601 23.7406 74.2242 23.5244C73.9883 23.3081 73.7095 23.1568 73.3664 23.0054C73.0233 22.8757 72.6158 22.7676 72.1654 22.6811C71.7151 22.5946 71.2647 22.4865 70.7929 22.3784C70.3211 22.2703 69.8493 22.1406 69.3989 21.9892C68.9486 21.8379 68.5626 21.6433 68.198 21.3622C67.8548 21.1027 67.5546 20.7784 67.3616 20.3676C67.1471 19.9568 67.0399 19.4811 67.0399 18.8757C67.0399 18.2271 67.19 17.7081 67.5117 17.2757C67.8119 16.8433 68.2194 16.4973 68.6912 16.2379C69.163 15.9784 69.6992 15.7838 70.2782 15.6757C70.8572 15.5676 71.4148 15.5244 71.9295 15.5244C72.53 15.5244 73.109 15.5892 73.6452 15.719C74.1813 15.8487 74.696 16.0433 75.1249 16.346C75.5753 16.6271 75.9399 17.0163 76.2187 17.4703C76.5189 17.9244 76.6905 18.4865 76.7763 19.1352H74.0956C73.9669 18.5081 73.6881 18.0973 73.2592 17.8811C72.8088 17.6649 72.3156 17.5568 71.7365 17.5568C71.565 17.5568 71.3291 17.5784 71.0931 17.6C70.8358 17.6433 70.6213 17.6865 70.3854 17.773C70.171 17.8595 69.978 17.9892 69.8279 18.1406C69.6777 18.2919 69.5919 18.5081 69.5919 18.7676C69.5919 19.0919 69.6992 19.3298 69.9136 19.5244C70.1281 19.719 70.4069 19.8703 70.7715 20.0217C71.1146 20.1514 71.5221 20.2595 71.9724 20.346C72.4228 20.4325 72.8946 20.5406 73.3664 20.6487C73.8382 20.7568 74.2886 20.8865 74.7389 21.0379C75.1893 21.1892 75.5968 21.3838 75.9399 21.6649C76.283 21.9244 76.5833 22.2487 76.7977 22.6379C77.0122 23.0271 77.1194 23.5244 77.1194 24.0865C77.1194 24.7784 76.9693 25.3622 76.6476 25.8595C76.3259 26.3352 75.9184 26.746 75.4252 27.0487C74.9319 27.3514 74.3529 27.5676 73.7524 27.719C73.1305 27.8487 72.53 27.9352 71.9295 27.9352C71.2004 27.9352 70.5141 27.8487 69.8922 27.6757C69.2703 27.5027 68.7127 27.2433 68.2623 26.919C67.8119 26.573 67.4474 26.1622 67.19 25.6433C66.9327 25.146 66.7826 24.5406 66.7611 23.8271H69.356V23.8487H69.3775ZM77.8486 15.8703H79.8001V12.3244H82.3736V15.8487H84.6897V17.773H82.3736V24.0433C82.3736 24.3244 82.395 24.5406 82.4165 24.7568C82.4379 24.9514 82.5023 25.1244 82.5666 25.2541C82.6524 25.3838 82.7811 25.4919 82.9312 25.5568C83.1028 25.6217 83.3172 25.6649 83.6175 25.6649C83.789 25.6649 83.982 25.6649 84.1536 25.6433C84.3252 25.6217 84.5182 25.6 84.6897 25.5568V27.5676C84.4109 27.6108 84.1322 27.6325 83.8534 27.6541C83.5746 27.6973 83.3172 27.6973 83.017 27.6973C82.3307 27.6973 81.7946 27.6325 81.3871 27.5027C80.9796 27.373 80.6579 27.1784 80.422 26.9406C80.1861 26.6811 80.036 26.3784 79.9502 26.0108C79.8644 25.6433 79.8216 25.1892 79.8001 24.7136V17.7946H77.8486V15.8271V15.8703ZM86.4912 15.8703H88.9146V17.4703H88.9574C89.322 16.7784 89.8153 16.3027 90.4586 16C91.102 15.6973 91.7883 15.546 92.5603 15.546C93.4825 15.546 94.276 15.6973 94.9622 16.0433C95.6485 16.3676 96.2061 16.8 96.6565 17.3838C97.1068 17.946 97.45 18.6163 97.6644 19.373C97.8789 20.1298 98.0075 20.9514 98.0075 21.7946C98.0075 22.5946 97.9003 23.3514 97.7073 24.0865C97.4928 24.8217 97.1926 25.4919 96.7851 26.0541C96.3777 26.6163 95.863 27.0703 95.2196 27.4163C94.5762 27.7622 93.8471 27.9352 92.9892 27.9352C92.6247 27.9352 92.2386 27.8919 91.8741 27.8271C91.5095 27.7622 91.1449 27.6541 90.8018 27.5027C90.4586 27.3514 90.137 27.1568 89.8582 26.919C89.5579 26.6811 89.322 26.4 89.129 26.0973H89.0861V31.9568H86.5126V15.8703H86.4912ZM95.4769 21.7514C95.4769 21.2325 95.4126 20.7136 95.2625 20.2163C95.1338 19.719 94.9194 19.2865 94.6406 18.8973C94.3618 18.5081 94.0186 18.2054 93.6326 17.9676C93.2251 17.7298 92.7533 17.6217 92.2386 17.6217C91.1664 17.6217 90.3514 17.9892 89.7938 18.746C89.2577 19.5027 88.9789 20.519 88.9789 21.773C88.9789 22.3784 89.0432 22.919 89.1933 23.4163C89.3435 23.9136 89.5365 24.346 89.8367 24.7136C90.1155 25.0811 90.4586 25.3622 90.8661 25.5784C91.2736 25.7946 91.7239 25.9027 92.2601 25.9027C92.8606 25.9027 93.3324 25.773 93.7398 25.5352C94.1473 25.2973 94.469 24.973 94.7478 24.6054C95.0051 24.2163 95.1981 23.7838 95.3054 23.2865C95.4126 22.7676 95.4769 22.2703 95.4769 21.7514ZM100.002 11.3946H102.575V13.8379H100.002V11.3946ZM100.002 15.8703H102.575V27.6109H100.002V15.8703ZM104.87 11.3946H107.444V27.6109H104.87V11.3946ZM115.293 27.9352C114.371 27.9352 113.534 27.7838 112.805 27.4595C112.076 27.1352 111.475 26.7244 110.961 26.1838C110.468 25.6433 110.081 24.973 109.824 24.2163C109.567 23.4595 109.417 22.6163 109.417 21.7298C109.417 20.8433 109.545 20.0217 109.824 19.2649C110.081 18.5081 110.468 17.8595 110.961 17.2973C111.454 16.7568 112.076 16.3244 112.805 16.0217C113.534 15.719 114.371 15.546 115.293 15.546C116.215 15.546 117.051 15.6973 117.781 16.0217C118.51 16.3244 119.11 16.7568 119.625 17.2973C120.118 17.8379 120.504 18.5081 120.761 19.2649C121.019 20.0217 121.169 20.8433 121.169 21.7298C121.169 22.6379 121.04 23.4595 120.761 24.2163C120.483 24.973 120.118 25.6217 119.625 26.1838C119.132 26.7244 118.51 27.1568 117.781 27.4595C117.051 27.7622 116.236 27.9352 115.293 27.9352ZM115.293 25.8811C115.85 25.8811 116.365 25.7514 116.773 25.5136C117.201 25.2757 117.523 24.9514 117.802 24.5622C118.081 24.173 118.274 23.719 118.402 23.2433C118.531 22.746 118.595 22.2487 118.595 21.7298C118.595 21.2325 118.531 20.7352 118.402 20.2379C118.274 19.7406 118.081 19.3081 117.802 18.919C117.523 18.5298 117.18 18.2271 116.773 17.9892C116.344 17.7514 115.85 17.6217 115.293 17.6217C114.735 17.6217 114.221 17.7514 113.813 17.9892C113.384 18.2271 113.062 18.5514 112.784 18.919C112.505 19.3081 112.312 19.7406 112.183 20.2379C112.054 20.7352 111.99 21.2325 111.99 21.7298C111.99 22.2487 112.054 22.746 112.183 23.2433C112.312 23.7406 112.505 24.173 112.784 24.5622C113.062 24.9514 113.406 25.2757 113.813 25.5136C114.242 25.773 114.735 25.8811 115.293 25.8811ZM121.941 15.8703H123.893V12.3244H126.466V15.8487H128.782V17.773H126.466V24.0433C126.466 24.3244 126.487 24.5406 126.509 24.7568C126.53 24.9514 126.595 25.1244 126.659 25.2541C126.745 25.3838 126.873 25.4919 127.024 25.5568C127.195 25.6217 127.41 25.6649 127.71 25.6649C127.881 25.6649 128.074 25.6649 128.246 25.6433C128.418 25.6217 128.611 25.6 128.782 25.5568V27.5676C128.503 27.6108 128.225 27.6325 127.946 27.6541C127.667 27.6973 127.41 27.6973 127.109 27.6973C126.423 27.6973 125.887 27.6325 125.48 27.5027C125.072 27.373 124.75 27.1784 124.514 26.9406C124.279 26.6811 124.128 26.3784 124.043 26.0108C123.957 25.6433 123.914 25.1892 123.893 24.7136V17.7946H121.941V15.8271V15.8271V15.8703Z" fill="#14171A"/>
<path d="M30.9249 11.3946H19.1512L15.5269 0.108109L11.8811 11.3946L0.107422 11.373L9.62933 18.3568L5.98355 29.6432L15.5055 22.6595L25.0274 29.6432L21.403 18.3568L30.9249 11.3946Z" fill="#00B67A"/>
<path d="M22.2165 20.9081L21.4015 18.3567L15.5254 22.6594L22.2165 20.9081Z" fill="#005128"/>
</g>
<defs>
<clipPath id="clip0">
<rect width="128.889" height="32" fill="white"/>
</clipPath>
</defs>
</svg>
