<svg width="80" height="29" viewBox="0 0 80 29" fill="none" xmlns="http://www.w3.org/2000/svg">
<path d="M44.8436 10.896H42.6489C42.6489 13.0178 41.1786 14.6039 39.0478 14.6039H37.1407V6.65234H34.9458V22.2089H37.1407V16.7362H39.0691C41.1892 16.7678 42.6489 18.1333 42.6489 20.3496V22.1984H44.8436V20.2761C44.8436 18.0387 43.5545 16.4211 42.0203 15.6648C43.5545 14.9085 44.8436 12.8813 44.8436 10.896Z" fill="#030405"/>
<path d="M12.7958 10.7489C11.2616 10.7489 9.9618 11.3792 9.09882 12.188V6.65234H6.90405V22.2089H9.09882V20.9274C9.9618 21.7362 11.2616 22.3454 12.7958 22.3454C16.056 22.3454 18.6983 19.7719 18.6983 16.5577C18.6983 13.3434 16.056 10.7489 12.7958 10.7489ZM12.7958 20.2236C10.7502 20.2236 9.08817 18.5955 9.08817 16.5577C9.08817 14.5199 10.7502 12.8813 12.7958 12.8813C14.8414 12.8813 16.4822 14.5409 16.4822 16.5577C16.4822 18.5745 14.8414 20.2236 12.7958 20.2236Z" fill="#030405"/>
<path d="M0 28.9325H74.5795V0.109375H0V28.9325ZM2.19476 2.2417H72.3739V26.8003H2.19476V2.2417Z" fill="#030405"/>
<path d="M57.4901 10.896H55.2952C55.2952 13.0178 53.825 14.6039 51.694 14.6039H49.787V6.65234H47.5923V22.2089H49.787V16.7362H51.7153C53.8357 16.7678 55.2952 18.1333 55.2952 20.3496V22.1984H57.4901V20.2761C57.4901 18.0387 56.2008 16.4211 54.6667 15.6648C56.2008 14.9085 57.4901 12.8813 57.4901 10.896Z" fill="#030405"/>
<path d="M29.7145 12.1891C28.8515 11.3802 27.5516 10.75 26.0173 10.75C22.7573 10.75 20.115 13.3445 20.115 16.5482C20.115 19.752 22.7573 22.336 26.0173 22.336C27.5622 22.336 28.8515 21.7268 29.7145 20.9179V22.1994H31.9092V10.8971H29.7145V12.1891ZM26.0173 20.2247C23.9718 20.2247 22.3311 18.5755 22.3311 16.5588C22.3311 14.542 23.9718 12.8823 26.0173 12.8823C28.0631 12.8823 29.7252 14.521 29.7252 16.5588C29.7252 18.5965 28.0631 20.2247 26.0173 20.2247Z" fill="#030405"/>
<path d="M64.7137 8.42884V7.35742H62.5188V8.2818C62.5188 9.8469 61.4427 10.9078 59.8554 10.9078H59.3652V13.0296H62.0075V17.977C62.0075 20.6451 63.595 22.2102 66.3012 22.2102H67.5157V20.0779H66.3758C64.9587 20.0779 64.2022 19.3426 64.2022 17.9035V13.0296H67.6755V10.8973H63.7335C64.4046 10.2671 64.7137 9.34271 64.7137 8.42884Z" fill="#030405"/>
<path d="M75.8687 0.529276H76.4334V2.30446H76.8488V0.529276H77.4136V0.140625H75.8687V0.529276Z" fill="#030405"/>
<path d="M79.6298 0.140625L78.8094 1.3591L77.9997 0.140625H77.7332V2.30446H78.1488V1.05448L78.6814 1.84229H78.9372L79.4805 1.05448V2.30446H79.8854V0.140625H79.6298Z" fill="#030405"/>
</svg>
