<svg width="113" height="29" viewBox="0 0 113 29" fill="none" xmlns="http://www.w3.org/2000/svg">
<path d="M18.7757 20.9868L13.636 23.2185V22.9931C12.6089 23.2456 11.5594 23.3966 10.5027 23.4439C5.67862 23.3989 1.84643 20.8741 1.80135 17.876V16.7489C3.37931 19.0482 6.62539 20.6036 10.5027 20.536C11.7804 20.5751 13.0569 20.4231 14.2898 20.0851L14.7406 18.958C13.3677 19.3854 11.9404 19.6131 10.5027 19.6343C5.67862 19.6568 1.84643 17.1321 1.80135 14.0664V13.1647C3.37931 15.3062 6.60285 16.8391 10.5027 16.7489C12.189 16.8407 13.873 16.5317 15.4169 15.8472L15.6423 14.7201C14.0492 15.5166 12.2829 15.904 10.5027 15.8472C5.67862 15.9148 1.84643 13.3901 1.80135 10.2793V9.37758C3.37931 11.5642 6.62539 13.097 10.5027 13.1647C12.607 13.1013 14.6707 12.57 16.544 11.6093L16.7694 10.2793C15.214 11.4289 12.9372 12.1728 10.5252 12.2855C5.67862 12.1728 1.84643 9.64808 1.80135 6.46963C1.84643 3.47151 5.67862 0.924232 10.5027 0.90169C13.3881 0.946775 16.0481 1.96118 17.6486 3.58422L17.8064 3.83218H18.9335L18.7757 3.56168C17.1752 1.42016 14.0193 0 10.5027 0C5.16014 0 0.899658 2.95304 0.899658 6.46963V18.0789C1.08 21.5278 5.25031 24.3456 10.5027 24.3456C13.9742 24.3456 17.085 22.9706 18.7757 20.9868Z" fill="#030405"/>
<path d="M16.681 28.8548L18.4844 21.1904L13.2996 23.4446L16.4555 10.1447H10.3691L11.9471 3.60742H31.3334L29.7555 10.1447H23.4436L22.0911 13.7514L29.0792 10.8209L16.681 28.8548ZM19.8369 19.6124L18.9352 24.1209L26.3741 12.8497L20.2877 15.5548L22.9928 9.24299H29.0792L30.2063 4.50911H12.6234L11.4963 9.24299H17.5827L14.6522 21.8667L19.8369 19.6124Z" fill="#030405"/>
<path d="M43.3913 7.9828C43.3813 8.30752 43.305 8.62677 43.1671 8.92092C43.0292 9.21507 42.8326 9.47791 42.5894 9.69328C42.0518 10.1283 41.373 10.3504 40.6823 10.3174C40.299 10.3358 39.9165 10.267 39.5638 10.116C39.211 9.96508 38.8971 9.73595 38.6458 9.44596C38.1514 8.86501 37.9041 8.06755 37.9039 7.05359V6.64215C37.8919 6.05387 38.0086 5.47007 38.246 4.93167C38.4516 4.4644 38.7921 4.0692 39.2239 3.79674C39.744 3.50278 40.339 3.36778 40.9351 3.40846C41.5312 3.44913 42.1023 3.66369 42.5777 4.02558C43.0708 4.47938 43.3662 5.10844 43.4006 5.77766H42.0137C42.0145 5.42836 41.885 5.09131 41.6507 4.83228C41.3833 4.61653 41.0433 4.51147 40.7008 4.53872C40.4997 4.52593 40.2988 4.5649 40.117 4.6519C39.9353 4.73891 39.7789 4.87104 39.6628 5.03568C39.4332 5.36699 39.3154 5.88091 39.3093 6.57743V7.08595C39.3093 7.81329 39.4195 8.34493 39.6399 8.68086C39.7541 8.84907 39.9105 8.98422 40.0935 9.07269C40.2765 9.16116 40.4796 9.19981 40.6823 9.18476C41.0276 9.21179 41.3704 9.10689 41.6414 8.8912C41.8738 8.64574 42.0037 8.3208 42.0045 7.9828L43.3913 7.9828Z" fill="#030405"/>
<path d="M49.8332 7.01187C49.8461 7.61163 49.7262 8.20682 49.4818 8.75471C49.2679 9.23069 48.9181 9.63279 48.4762 9.91046C48.0224 10.1761 47.5061 10.3165 46.9802 10.3173C46.4544 10.3181 45.9377 10.1793 45.483 9.91508C45.039 9.63981 44.6854 9.24041 44.4659 8.76628C44.2168 8.22849 44.092 7.6415 44.1007 7.04887V6.716C44.0881 6.11331 44.2106 5.51543 44.4591 4.96623C44.675 4.48829 45.0271 4.08467 45.4713 3.80587C45.9252 3.54096 46.4414 3.40137 46.9669 3.40137C47.4925 3.40137 48.0087 3.54096 48.4626 3.80587C48.9067 4.0848 49.2587 4.48838 49.4748 4.96623C49.7229 5.51393 49.8454 6.11021 49.8332 6.71138L49.8332 7.01187ZM48.4278 6.70676C48.4278 6.00099 48.3014 5.46473 48.0487 5.09798C47.9249 4.92813 47.7628 4.78983 47.5755 4.69426C47.3883 4.59868 47.1812 4.54853 46.971 4.54786C46.7608 4.54718 46.5534 4.596 46.3656 4.69037C46.1777 4.78474 46.0147 4.922 45.8898 5.09104C45.6371 5.45317 45.5092 5.98404 45.5061 6.68364V7.01187C45.4737 7.57061 45.6055 8.12663 45.8852 8.6114C46.0062 8.78516 46.1671 8.92743 46.3544 9.02634C46.5416 9.12525 46.7498 9.17792 46.9616 9.17996C47.1733 9.182 47.3825 9.13334 47.5716 9.03805C47.7608 8.94276 47.9243 8.8036 48.0487 8.6322C48.2984 8.26699 48.4247 7.73458 48.4278 7.03498V6.70676Z" fill="#030405"/>
<path d="M52.3163 10.2114H50.9294V3.48047H52.3163V10.2114Z" fill="#030405"/>
<path d="M59.0775 10.2114H57.6907L54.9909 5.78268V10.2114H53.604V3.48047H54.9909L57.6953 7.91848V3.48047H59.0775V10.2114Z" fill="#030405"/>
<path d="M65.2189 4.60384H63.157V10.2115H61.7702V4.60384H59.7361V3.48047H65.2189L65.2189 4.60384Z" fill="#030405"/>
<path d="M70.0585 7.29438H67.3957V9.09731H70.5208V10.2114H66.0088V3.48047H70.5115V4.60384H67.3957V6.20799H70.0585V7.29438Z" fill="#030405"/>
<path d="M72.7248 9.09732H75.6696V10.2114H71.3379V3.48047H72.7248V9.09732Z" fill="#030405"/>
<path d="M80.5082 7.29438H77.8454V9.09731H80.9705V10.2114H76.4585V3.48047H80.9612V4.60384H77.8454V6.20799H80.5082V7.29438Z" fill="#030405"/>
<path d="M87.1153 9.37301C86.8309 9.69528 86.4653 9.93552 86.0567 10.0688C85.5695 10.2388 85.0563 10.3225 84.5404 10.3161C84.0047 10.328 83.4756 10.1963 83.008 9.9347C82.565 9.67666 82.2105 9.2907 81.9909 8.82751C81.7409 8.29402 81.6152 7.71076 81.6233 7.12165V6.66397C81.6087 6.06449 81.7247 5.46901 81.9632 4.91882C82.1678 4.45208 82.5097 4.05865 82.9432 3.79083C83.397 3.52316 83.9166 3.38784 84.4433 3.40019C85.2415 3.40019 85.8656 3.5905 86.3156 3.97112C86.7893 4.39912 87.0765 4.99578 87.1153 5.63306H85.7654C85.7354 5.31101 85.5902 5.01061 85.3564 4.78707C85.1075 4.59599 84.7982 4.50082 84.4849 4.51894C84.2749 4.50806 84.0656 4.55122 83.877 4.64429C83.6884 4.73737 83.5269 4.87725 83.4077 5.05057C83.1612 5.405 83.0364 5.93201 83.0333 6.63161V7.06155C83.0333 7.76731 83.1674 8.30049 83.4355 8.66108C83.5725 8.84111 83.7517 8.98464 83.9573 9.07898C84.1629 9.17331 84.3885 9.21555 84.6143 9.20196C85.1352 9.20196 85.5066 9.09101 85.7285 8.86911V7.70876H84.4664V6.68709H87.1153L87.1153 9.37301Z" fill="#030405"/>
<path d="M90.7288 7.74743H89.6239V10.2114H88.2371V3.48047H90.7381C91.5332 3.48047 92.1465 3.65768 92.578 4.01211C92.7947 4.19541 92.966 4.4265 93.0783 4.68721C93.1906 4.94791 93.2409 5.23112 93.2252 5.51455C93.2401 5.91839 93.1364 6.31776 92.9269 6.66334C92.7035 6.99044 92.3894 7.24512 92.0232 7.39608L93.4795 10.1467V10.2114H91.9909L90.7288 7.74743ZM89.6239 6.62405H90.7427C91.0365 6.6427 91.3262 6.54751 91.5517 6.35823C91.649 6.26365 91.725 6.14932 91.7744 6.02293C91.8239 5.89654 91.8456 5.76102 91.8383 5.6255C91.846 5.48888 91.8259 5.35213 91.7795 5.22343C91.733 5.09474 91.661 4.97677 91.5678 4.87658C91.4547 4.77802 91.323 4.70311 91.1805 4.65626C91.038 4.60941 90.8876 4.59158 90.7381 4.60382H89.6239V6.62405Z" fill="#030405"/>
<path d="M98.0767 8.82457H95.645L95.1827 10.2114H93.708L96.2136 3.48047H97.4988L100.018 10.2114H98.5436L98.0767 8.82457ZM96.0195 7.7012H97.7022L96.8562 5.18171L96.0195 7.7012Z" fill="#030405"/>
<path d="M102.037 7.84056V10.2121H100.65V3.48115H103.276C103.736 3.47143 104.192 3.56627 104.61 3.75852C104.976 3.92798 105.284 4.20227 105.495 4.54673C105.705 4.89793 105.812 5.30057 105.805 5.7094C105.819 6.0039 105.765 6.2976 105.647 6.56803C105.53 6.83846 105.352 7.07845 105.128 7.26963C104.676 7.65025 104.051 7.84056 103.253 7.84056L102.037 7.84056ZM102.037 6.71719H103.276C103.578 6.73816 103.878 6.64587 104.115 6.45831C104.214 6.36347 104.292 6.24814 104.342 6.12039C104.391 5.99263 104.413 5.85552 104.404 5.71864C104.411 5.57273 104.388 5.42698 104.338 5.28974C104.288 5.1525 104.212 5.02647 104.113 4.91888C104.007 4.81434 103.882 4.73252 103.743 4.67846C103.605 4.6244 103.457 4.59923 103.309 4.60452H102.037V6.71719Z" fill="#030405"/>
<path d="M112.234 10.2114H110.847V7.32674H108.143V10.2114H106.756V3.48047H108.143V6.20799H110.847V3.48047H112.234V10.2114Z" fill="#030405"/>
<path d="M42.2323 17.4214H40.5141V22.0945H39.3584V17.4214H37.6633V16.4854H42.2323L42.2323 17.4214Z" fill="#030405"/>
<path d="M43.9042 18.3794C44.0363 18.211 44.2055 18.0754 44.3986 17.9832C44.5917 17.891 44.8035 17.8446 45.0175 17.8477C45.9214 17.8477 46.3798 18.3729 46.3927 19.4233V22.0931H45.2794V19.4541C45.2947 19.2646 45.2399 19.0762 45.1253 18.9244C45.0568 18.8615 44.9758 18.8137 44.8875 18.7842C44.7992 18.7547 44.7057 18.7441 44.6131 18.7532C44.4714 18.7434 44.3299 18.7735 44.2046 18.8402C44.0792 18.9069 43.9752 19.0075 43.9042 19.1305V22.0931H42.7908V16.1758H43.9042V18.3794Z" fill="#030405"/>
<path d="M49.1494 22.1714C48.8755 22.1824 48.6023 22.1383 48.3458 22.0417C48.0893 21.9451 47.8549 21.7979 47.6564 21.609C47.4621 21.4125 47.3106 21.178 47.2114 20.92C47.1123 20.6621 47.0677 20.3865 47.0805 20.1105V20.0026C47.0739 19.6145 47.1569 19.2302 47.3231 18.8794C47.4727 18.5633 47.7118 18.2981 48.0108 18.1167C48.318 17.9353 48.6694 17.8427 49.0261 17.849C49.2762 17.8361 49.5261 17.8776 49.7585 17.9708C49.991 18.0639 50.2004 18.2063 50.3725 18.3883C50.6998 18.7478 50.8635 19.2576 50.8636 19.9176V20.3724H48.2094C48.2345 20.623 48.3502 20.8558 48.5347 21.0271C48.7239 21.1945 48.9701 21.2828 49.2225 21.2737C49.4152 21.2824 49.6072 21.2446 49.7822 21.1635C49.9572 21.0824 50.1101 20.9603 50.228 20.8076L50.7749 21.4203C50.602 21.6615 50.3679 21.8523 50.0968 21.9731C49.7994 22.1079 49.4759 22.1756 49.1494 22.1714ZM49.0221 18.7465C48.9216 18.7428 48.8216 18.761 48.7288 18.7998C48.636 18.8385 48.5528 18.897 48.4848 18.971C48.3333 19.1532 48.2412 19.3773 48.2208 19.6134H49.7695V19.5245C49.778 19.3145 49.7064 19.1091 49.5692 18.9499C49.4973 18.8796 49.4115 18.8251 49.3173 18.7901C49.223 18.755 49.1225 18.7402 49.0221 18.7465H49.0221Z" fill="#030405"/>
<path d="M53.7644 22.0901V18.7385H53.1443V17.9218H53.7644V17.5674C53.7523 17.3679 53.7818 17.1682 53.8511 16.9808C53.9205 16.7934 54.0281 16.6225 54.1671 16.479C54.4766 16.2059 54.8817 16.0666 55.2937 16.0918C55.4848 16.0967 55.6747 16.1226 55.8601 16.1688L55.8485 17.0318C55.7372 17.0068 55.6234 16.9952 55.5095 16.9972C55.091 16.9972 54.8817 17.1936 54.8816 17.5865V17.9218H55.7098V18.7385H54.8816V22.0901H53.7644Z" fill="#030405"/>
<path d="M58.7862 21.6713C58.6479 21.8374 58.4729 21.9691 58.275 22.056C58.0771 22.1429 57.8617 22.1827 57.6459 22.1721C57.4577 22.1849 57.2691 22.1571 57.0926 22.0907C56.9162 22.0242 56.756 21.9206 56.6231 21.7869C56.3669 21.4684 56.2386 21.066 56.2629 20.658V17.9268H57.3764V20.6228C57.3764 21.0574 57.5741 21.2746 57.9695 21.2744C58.1233 21.2907 58.2786 21.2623 58.4167 21.1925C58.5547 21.1227 58.6697 21.0146 58.7479 20.881V17.9268H59.8649V22.0951H58.817L58.7862 21.6713Z" fill="#030405"/>
<path d="M62.0334 16.8984V17.9232H62.746V18.7399H62.0334V20.8202C62.0226 20.9377 62.054 21.0551 62.1219 21.1515C62.1686 21.1905 62.2227 21.2196 62.281 21.2368C62.3393 21.254 62.4006 21.2591 62.4609 21.2517C62.5707 21.2528 62.6804 21.2438 62.7885 21.2246V22.0684C62.57 22.1352 62.3427 22.1689 62.1142 22.1686C61.3334 22.1686 60.9353 21.7744 60.92 20.986V18.7399H60.3113V17.9232H60.92V16.8984L62.0334 16.8984Z" fill="#030405"/>
<path d="M65.8672 21.6713C65.7289 21.8374 65.5539 21.9691 65.356 22.056C65.1581 22.1429 64.9428 22.1827 64.7269 22.1721C64.5388 22.1849 64.3501 22.1571 64.1737 22.0907C63.9972 22.0242 63.8371 21.9206 63.7041 21.7869C63.448 21.4684 63.3196 21.066 63.344 20.658V17.9268H64.4575V20.6228C64.4575 21.0574 64.6551 21.2746 65.0505 21.2744C65.2044 21.2907 65.3596 21.2623 65.4977 21.1925C65.6358 21.1227 65.7508 21.0146 65.8289 20.881V17.9268H66.9459V22.0951H65.8981L65.8672 21.6713Z" fill="#030405"/>
<path d="M70.1279 18.9708C69.9952 18.9516 69.8614 18.9413 69.7273 18.94C69.3061 18.94 69.0301 19.0825 68.8991 19.3675V22.095H67.7856V17.9267H68.8375L68.8683 18.4235C68.9539 18.2506 69.0863 18.1052 69.2504 18.0037C69.4146 17.9023 69.6039 17.8489 69.7968 17.8496C69.9142 17.8488 70.031 17.8657 70.1433 17.8996L70.1279 18.9708Z" fill="#030405"/>
<path d="M72.5097 22.1714C72.2359 22.1824 71.9626 22.1383 71.7061 22.0417C71.4497 21.9451 71.2152 21.7979 71.0167 21.609C70.8224 21.4125 70.6709 21.178 70.5718 20.92C70.4727 20.6621 70.4281 20.3865 70.4409 20.1105V20.0026C70.4342 19.6145 70.5172 19.2302 70.6834 18.8794C70.833 18.5633 71.0722 18.2981 71.3712 18.1167C71.6784 17.9353 72.0298 17.8427 72.3864 17.849C72.6365 17.8361 72.8864 17.8776 73.1189 17.9708C73.3513 18.0639 73.5608 18.2063 73.7328 18.3883C74.0602 18.7478 74.2239 19.2576 74.224 19.9176V20.3724H71.5697C71.5948 20.623 71.7105 20.8558 71.8951 21.0271C72.0842 21.1945 72.3304 21.2828 72.5828 21.2737C72.7755 21.2824 72.9675 21.2446 73.1425 21.1635C73.3176 21.0824 73.4705 20.9603 73.5884 20.8076L74.1352 21.4203C73.9623 21.6615 73.7283 21.8523 73.4572 21.9731C73.1597 22.1079 72.8363 22.1756 72.5097 22.1714ZM72.3825 18.7465C72.282 18.7428 72.1819 18.761 72.0891 18.7998C71.9964 18.8385 71.9131 18.897 71.8451 18.971C71.6936 19.1532 71.6015 19.3773 71.5812 19.6134H73.1298V19.5245C73.1383 19.3145 73.0667 19.1091 72.9295 18.9499C72.8577 18.8796 72.7719 18.8251 72.6776 18.7901C72.5834 18.755 72.4828 18.7402 72.3825 18.7465V18.7465Z" fill="#030405"/>
<path d="M76.6468 19.9729C76.6399 19.5908 76.7216 19.2123 76.8857 18.8671C77.0353 18.554 77.2747 18.2924 77.5734 18.1158C77.8902 17.9341 78.2505 17.8423 78.6156 17.8501C78.8679 17.8402 79.1197 17.8808 79.3562 17.9694C79.5926 18.0581 79.8091 18.193 79.9927 18.3663C80.3619 18.7413 80.5747 19.2426 80.588 19.7686L80.5955 20.0537C80.6228 20.6166 80.4309 21.1682 80.0601 21.5927C79.6738 21.9644 79.1586 22.1721 78.6226 22.1725C78.0865 22.1729 77.571 21.9658 77.1842 21.5947C76.8082 21.1601 76.6155 20.5966 76.6468 20.0229V19.9729ZM77.7601 20.0519C77.7397 20.3705 77.8178 20.6877 77.9838 20.9604C78.0584 21.0579 78.1545 21.1369 78.2645 21.1914C78.3745 21.2459 78.4956 21.2744 78.6183 21.2748C78.7411 21.2752 78.8623 21.2474 78.9727 21.1936C79.083 21.1398 79.1795 21.0614 79.2548 20.9644C79.4303 20.6641 79.5096 20.3174 79.4822 19.9707C79.5013 19.6535 79.4219 19.3382 79.2548 19.0679C79.1841 18.9648 79.0883 18.8813 78.9765 18.8253C78.8647 18.7693 78.7405 18.7425 78.6156 18.7476C78.4918 18.7424 78.3689 18.7689 78.2583 18.8247C78.1477 18.8804 78.0532 18.9634 77.9838 19.0659C77.8129 19.3651 77.735 19.7083 77.7601 20.0519V20.0519Z" fill="#030405"/>
<path d="M81.5894 22.0901V18.7385H80.9692V17.9218H81.5894V17.5674C81.5772 17.3679 81.6068 17.1682 81.6761 16.9808C81.7454 16.7934 81.853 16.6225 81.992 16.479C82.3015 16.2059 82.7067 16.0666 83.1187 16.0918C83.3097 16.0967 83.4997 16.1226 83.6851 16.1688L83.6734 17.0318C83.5622 17.0068 83.4484 16.9952 83.3344 16.9972C82.9159 16.9972 82.7066 17.1936 82.7066 17.5865V17.9218H83.5347V18.7385H82.7066V22.0901H81.5894Z" fill="#030405"/>
<path d="M87.1176 17.9262L87.1522 18.3922C87.2958 18.2146 87.4789 18.073 87.6869 17.9787C87.895 17.8844 88.1222 17.84 88.3504 17.8491C88.5776 17.8289 88.8056 17.879 89.0034 17.9927C89.2012 18.1063 89.3593 18.2781 89.4561 18.4847C89.5926 18.2801 89.7795 18.1142 89.9988 18.0029C90.2181 17.8915 90.4624 17.8386 90.7081 17.8491C90.8952 17.8345 91.0832 17.8624 91.258 17.9308C91.4328 17.9992 91.5899 18.1063 91.7174 18.2441C91.9632 18.5894 92.0804 19.0099 92.0487 19.4326V22.0945H90.9315V19.4363C90.9468 19.2527 90.8977 19.0696 90.7928 18.9181C90.728 18.8571 90.6507 18.8108 90.5662 18.7826C90.4818 18.7544 90.3922 18.7448 90.3037 18.7546C90.1517 18.7473 90.0016 18.7901 89.8763 18.8764C89.7511 18.9627 89.6576 19.0877 89.6102 19.2323L89.614 22.0945H88.5007V19.4401C88.517 19.254 88.4664 19.0683 88.3581 18.9161C88.2933 18.8563 88.2165 18.8109 88.1328 18.783C88.0491 18.7552 87.9604 18.7455 87.8727 18.7546C87.7326 18.7462 87.593 18.7789 87.4712 18.8486C87.3494 18.9184 87.2506 19.0222 87.1869 19.1473V22.0945H86.0735V17.9262H87.1176Z" fill="#030405"/>
<path d="M92.7296 19.9729C92.7227 19.5908 92.8044 19.2123 92.9685 18.8671C93.1181 18.554 93.3575 18.2924 93.6562 18.1158C93.9729 17.9341 94.3332 17.8423 94.6983 17.8501C94.9507 17.8402 95.2024 17.8808 95.4389 17.9694C95.6754 18.0581 95.8918 18.193 96.0755 18.3663C96.4447 18.7413 96.6575 19.2426 96.6708 19.7686L96.6782 20.0537C96.7056 20.6166 96.5137 21.1682 96.1429 21.5927C95.7566 21.9643 95.2414 22.1721 94.7053 22.1725C94.1692 22.1729 93.6538 21.9658 93.267 21.5946C92.891 21.1601 92.6983 20.5966 92.7296 20.0228L92.7296 19.9729ZM93.8429 20.0519C93.8225 20.3705 93.9006 20.6877 94.0665 20.9604C94.1412 21.0579 94.2373 21.1369 94.3473 21.1914C94.4573 21.2459 94.5783 21.2744 94.7011 21.2748C94.8239 21.2752 94.9451 21.2474 95.0554 21.1936C95.1658 21.1398 95.2623 21.0614 95.3376 20.9644C95.513 20.6641 95.5924 20.3174 95.565 19.9707C95.5841 19.6535 95.5046 19.3382 95.3376 19.0679C95.2669 18.9648 95.1711 18.8813 95.0593 18.8253C94.9475 18.7692 94.8233 18.7425 94.6983 18.7476C94.5746 18.7424 94.4516 18.7689 94.3411 18.8247C94.2305 18.8804 94.136 18.9634 94.0665 19.0659C93.8957 19.3651 93.8178 19.7083 93.8429 20.0519V20.0519Z" fill="#030405"/>
<path d="M98.3875 17.9254L98.422 18.4069C98.5635 18.2258 98.7458 18.0808 98.9541 17.9837C99.1623 17.8867 99.3906 17.8403 99.6202 17.8484C99.8034 17.8341 99.9874 17.8617 100.158 17.9291C100.329 17.9965 100.482 18.1019 100.606 18.2374C100.847 18.576 100.963 18.9867 100.938 19.401V22.0938H99.8243V19.4279C99.8409 19.243 99.7857 19.0589 99.6702 18.9136C99.5998 18.8542 99.5182 18.8094 99.4302 18.7819C99.3423 18.7545 99.2497 18.7449 99.158 18.7538C99.0147 18.7479 98.8726 18.7823 98.748 18.8531C98.6233 18.9239 98.5211 19.0284 98.4528 19.1545V22.0938H97.3396V17.9254H98.3875Z" fill="#030405"/>
<path d="M103.705 22.1714C103.431 22.1824 103.158 22.1383 102.901 22.0417C102.645 21.9451 102.41 21.7979 102.212 21.609C102.017 21.4125 101.866 21.178 101.767 20.92C101.668 20.6621 101.623 20.3865 101.636 20.1105V20.0026C101.629 19.6145 101.712 19.2302 101.879 18.8794C102.028 18.5633 102.267 18.2981 102.566 18.1167C102.873 17.9353 103.225 17.8427 103.582 17.849C103.832 17.8361 104.081 17.8776 104.314 17.9708C104.546 18.0639 104.756 18.2063 104.928 18.3883C105.255 18.7478 105.419 19.2576 105.419 19.9176V20.3724H102.765C102.79 20.623 102.906 20.8558 103.09 21.0271C103.279 21.1945 103.525 21.2828 103.778 21.2737C103.971 21.2824 104.163 21.2446 104.338 21.1635C104.513 21.0824 104.666 20.9603 104.783 20.8076L105.33 21.4203C105.157 21.6615 104.923 21.8523 104.652 21.9731C104.355 22.1079 104.031 22.1756 103.705 22.1714ZM103.578 18.7465C103.477 18.7428 103.377 18.761 103.284 18.7998C103.191 18.8385 103.108 18.897 103.04 18.971C102.889 19.1532 102.797 19.3773 102.776 19.6134H104.325V19.5245C104.333 19.3145 104.262 19.1091 104.125 18.9499C104.053 18.8796 103.967 18.8251 103.873 18.7901C103.778 18.755 103.678 18.7402 103.578 18.7465Z" fill="#030405"/>
<path d="M107.555 20.5194L108.325 17.9268H109.52L107.844 22.7423L107.752 22.962C107.657 23.2097 107.487 23.4217 107.266 23.5681C107.045 23.7146 106.784 23.7882 106.519 23.7787C106.352 23.7779 106.186 23.7532 106.026 23.7054V22.8616L106.195 22.8656C106.358 22.8761 106.521 22.8428 106.667 22.7692C106.781 22.692 106.867 22.5798 106.912 22.4495L107.043 22.1065L105.583 17.9268H106.781L107.555 20.5194Z" fill="#030405"/>
</svg>
