<svg width="48" height="48" viewBox="0 0 48 48" fill="none" xmlns="http://www.w3.org/2000/svg">
<path d="M24 48C37.2548 48 48 37.2548 48 24C48 10.7452 37.2548 0 24 0C10.7452 0 0 10.7452 0 24C0 37.2548 10.7452 48 24 48Z" fill="#7E56E0"/>
<path d="M30.8745 19.4218C30.3764 19.1173 29.7288 19.1173 29.1808 19.4218L25.2952 21.7558L22.655 23.278L18.7694 25.612C18.2712 25.9165 17.6236 25.9165 17.0757 25.612L13.9871 23.7854C13.4889 23.481 13.1402 22.9228 13.1402 22.3139V18.7114C13.1402 18.1025 13.4391 17.5444 13.9871 17.24L17.0258 15.464C17.524 15.1596 18.1716 15.1596 18.7196 15.464L21.7583 17.24C22.2565 17.5444 22.6052 18.1025 22.6052 18.7114V21.0454L25.2454 19.4725V17.1385C25.2454 16.5296 24.9465 15.9714 24.3985 15.667L18.7694 12.3182C18.2712 12.0137 17.6236 12.0137 17.0757 12.3182L11.3469 15.667C10.7989 15.9714 10.5 16.5296 10.5 17.1385V23.8869C10.5 24.4957 10.7989 25.0539 11.3469 25.3583L17.0757 28.7072C17.5738 29.0116 18.2214 29.0116 18.7694 28.7072L22.655 26.4239L25.2952 24.8509L29.1808 22.5676C29.679 22.2632 30.3266 22.2632 30.8745 22.5676L33.9133 24.3435C34.4114 24.648 34.7602 25.2061 34.7602 25.815V29.4175C34.7602 30.0264 34.4612 30.5845 33.9133 30.889L30.8745 32.7157C30.3764 33.0201 29.7288 33.0201 29.1808 32.7157L26.1421 30.9397C25.6439 30.6353 25.2952 30.0771 25.2952 29.4683V27.1342L22.655 28.7072V31.0412C22.655 31.6501 22.9539 32.2083 23.5019 32.5127L29.2306 35.8615C29.7288 36.166 30.3764 36.166 30.9243 35.8615L36.6531 32.5127C37.1513 32.2083 37.5 31.6501 37.5 31.0412V24.2928C37.5 23.6839 37.2011 23.1258 36.6531 22.8213L30.8745 19.4218Z" fill="white"/>
</svg>
