<svg width="221" height="64" viewBox="0 0 221 64" fill="none" xmlns="http://www.w3.org/2000/svg">
<g clip-path="url(#clip0_23877_76286)">
<path d="M11.0576 58.3061C13.0671 58.3061 15.1139 57.4874 16.7886 56.4826V50.5283C14.6301 50.9377 12.3973 51.1237 10.1644 51.6075C8.37816 51.9797 7.07567 52.91 7.07567 54.9568C7.07567 57.4129 8.93637 58.3061 11.0576 58.3061ZM17.0491 60.9483C15.1884 62.9206 12.5089 63.9998 9.90394 63.9998C4.65674 63.9998 0.749255 60.4645 0.600398 55.2917C0.488756 50.4539 4.13575 47.2535 8.22931 46.6953L16.9374 45.43C16.7514 42.8622 12.695 41.9318 10.9087 41.9318C8.63866 41.9318 5.8476 42.5273 3.87525 43.4948H3.16818V37.615C5.69874 36.9079 8.22931 36.3125 11.0204 36.3125C17.0863 36.3125 23.0033 38.5826 23.2266 45.2811V63.3672H17.0491V60.9483Z" fill="#000100"/>
<path d="M42.6147 42.3784H41.7588C39.5259 41.4853 36.2139 42.4156 34.1671 43.6809V63.3672H27.7663V36.8707H33.981V38.5826C36.6605 37.2056 39.5259 36.3125 42.6147 36.3125V42.3784Z" fill="#000100"/>
<path d="M72.6839 47.142C72.6839 45.058 72.4234 42.2298 69.6323 42.3414C67.9577 42.3786 66.5435 43.7555 65.5015 44.9092V63.3674H59.1751V47.142C59.1751 45.1325 58.9891 42.3414 56.3096 42.3414C54.7466 42.3414 52.9604 43.4578 51.8439 44.4626V63.3674H45.4059V36.8709H51.6951V38.6572C52.9604 37.3919 54.9699 36.3127 56.7934 36.3127C59.5101 36.2755 61.8173 37.3919 63.4175 39.3271C65.2038 37.7268 67.5111 36.2383 70.0789 36.2383C75.661 36.2383 79.0475 40.5923 79.0847 46.2117V63.3674H72.6467V47.142H72.6839Z" fill="#000100"/>
<path d="M92.0351 58.3061C94.0447 58.3061 96.0915 57.4874 97.7661 56.4826V50.5283C95.6077 50.9377 93.3749 51.1237 91.142 51.6075C89.3557 51.9797 88.0532 52.91 88.0532 54.9568C88.0532 57.4129 89.9139 58.3061 92.0351 58.3061ZM98.0266 60.9483C96.1659 62.9206 93.4865 63.9998 90.8815 63.9998C85.6343 63.9998 81.7268 60.4645 81.578 55.2917C81.4663 50.4539 85.1133 47.2535 89.2069 46.6953L97.915 45.43C97.7289 42.8622 93.6726 41.9318 91.8863 41.9318C89.6162 41.9318 86.8252 42.5273 84.8528 43.4948H84.1457V37.615C86.6763 36.9079 89.2069 36.3125 91.9979 36.3125C98.0639 36.3125 103.981 38.5826 104.204 45.2811V63.3672H98.0266V60.9483Z" fill="#000100"/>
<path d="M132.04 46.1743V63.3672H125.639V46.8441C125.676 44.3135 124.485 42.2296 121.657 42.2296C119.536 42.2296 116.856 43.1971 115.07 44.388V63.3672H108.632V36.8707H114.847V38.5826C117.266 37.3545 119.945 36.3125 122.587 36.3125C128.169 36.3125 132.04 40.2572 132.04 46.1743Z" fill="#000100"/>
<path d="M142.907 63.3672H136.469V36.8708H142.907V63.3672ZM142.981 34.303H136.506V27.9766H142.981V34.303Z" fill="#000100"/>
<path d="M171.078 46.1743V63.3672H164.64V46.8441C164.677 44.3135 163.486 42.2296 160.658 42.2296C158.537 42.2296 155.858 43.1971 154.071 44.388V63.3672H147.633V36.8707H153.848V38.5826C156.267 37.3545 158.946 36.3125 161.589 36.3125C167.208 36.3125 171.078 40.2572 171.078 46.1743Z" fill="#000100"/>
<path d="M186.932 58.1925C190.579 58.1925 192.96 55.0665 192.96 50.117C192.96 45.1675 190.541 42.0415 186.932 42.0415C183.359 42.0415 180.903 45.1675 180.903 50.117C180.903 55.0665 183.322 58.1925 186.932 58.1925ZM186.969 36.3105C194.449 36.3105 199.547 41.7066 199.547 50.117C199.547 58.5274 194.486 63.9235 186.969 63.9235C179.451 63.9235 174.279 58.5274 174.279 50.117C174.279 41.7066 179.451 36.3105 186.969 36.3105Z" fill="#000100"/>
<path d="M208.106 17.2576L200.924 1.06947C200.701 0.58569 200.291 0.213548 199.845 0.0646914C199.398 -0.0841653 198.989 0.0274772 198.765 0.362405L181.759 27.3055C181.498 27.7148 181.61 28.3847 182.056 28.8685C182.466 29.3895 183.098 29.6127 183.582 29.4639L208.106 17.2576Z" fill="#CC7C2D"/>
<path d="M201.408 33.7057C201.147 34.0034 201.147 34.4872 201.37 34.9337C201.594 35.4175 202.003 35.7897 202.45 35.9385L216.852 40.7019C217.298 40.8508 217.67 40.7392 217.894 40.4414C218.117 40.1437 218.117 39.6972 217.931 39.2506L211.79 25.5186L201.408 33.7057Z" fill="#918F3C"/>
<path d="M219.606 14.1688C219.196 13.6106 218.527 13.3501 218.043 13.5361L208.107 17.2575L211.791 25.5191L219.792 15.8062C220.127 15.3968 220.052 14.727 219.606 14.1688Z" fill="#000100"/>
</g>
<defs>
<clipPath id="clip0_23877_76286">
<rect width="220" height="64" fill="white" transform="translate(0.29895)"/>
</clipPath>
</defs>
</svg>
