<svg width="246" height="64" viewBox="0 0 246 64" fill="none" xmlns="http://www.w3.org/2000/svg">
<path d="M28.0667 64C28.0667 64 55.4666 54.6979 55.4666 20.4903V8.18754C55.4666 6.85868 54.4375 5.74414 53.1082 5.65841C48.1342 5.44408 36.3424 4.41527 28.0667 0C19.791 4.41527 7.99912 5.44408 3.02511 5.65841C1.69585 5.74414 0.666748 6.85868 0.666748 8.18754V20.4903C0.666748 54.6979 28.0667 64 28.0667 64Z" fill="#00ADEE"/>
<path d="M107.843 42.438C107.843 45.1815 107.285 47.4534 106.213 49.2967C105.141 51.14 103.683 52.6403 101.925 53.7548C100.124 54.8694 98.109 55.6838 95.8364 56.1982C93.5637 56.6698 91.2054 56.927 88.847 56.927H68.9939V7.073H88.847C90.7766 7.073 92.749 7.28733 94.7644 7.67313C96.7797 8.05893 98.6235 8.7448 100.253 9.73074C101.882 10.7167 103.212 12.0027 104.284 13.6316C105.313 15.2605 105.827 17.361 105.827 19.8901C105.827 22.6765 105.098 24.9484 103.555 26.7488C102.054 28.5492 100.082 29.8781 97.6373 30.6497V30.7783C99.0523 31.0355 100.382 31.4641 101.625 32.1072C102.869 32.7502 103.941 33.5646 104.841 34.5506C105.742 35.5365 106.471 36.6939 107.028 38.0228C107.543 39.3088 107.843 40.7662 107.843 42.438ZM94.1641 21.5191C94.1641 19.8473 93.5209 18.6041 92.2345 17.8325C90.9481 17.0609 89.0185 16.6751 86.4887 16.6751H80.5713V26.9631H87.0461C89.3187 26.9631 91.0339 26.4916 92.2774 25.5914C93.5637 24.6484 94.1641 23.2766 94.1641 21.5191ZM95.7935 41.2806C95.7935 39.223 95.0216 37.7656 93.478 36.994C91.9343 36.1795 89.8761 35.7937 87.2605 35.7937H80.5713V47.1962H87.3462C88.2896 47.1962 89.2758 47.1105 90.262 46.939C91.2483 46.7676 92.1916 46.4675 93.0063 46.0817C93.821 45.653 94.5071 45.0529 95.0216 44.2813C95.5362 43.5097 95.7935 42.5238 95.7935 41.2806Z" fill="white"/>
<path d="M123.835 10.6738C123.835 11.574 123.664 12.3884 123.321 13.16C122.978 13.9316 122.506 14.6175 121.906 15.1748C121.306 15.732 120.62 16.1607 119.805 16.5036C118.99 16.8466 118.133 16.9752 117.233 16.9752C115.346 16.9752 113.803 16.375 112.516 15.089C111.23 13.8459 110.63 12.3456 110.63 10.6309C110.63 9.77357 110.801 8.95909 111.144 8.18749C111.487 7.41589 111.959 6.73002 112.559 6.17275C113.159 5.61549 113.888 5.14396 114.66 4.80103C115.475 4.45809 116.332 4.28662 117.275 4.28662C118.176 4.28662 119.033 4.45809 119.848 4.75816C120.663 5.10109 121.391 5.52976 121.949 6.08703C122.549 6.64429 123.021 7.33015 123.364 8.10176C123.664 8.91622 123.835 9.77356 123.835 10.6738ZM111.444 21.862H123.021V56.9269H111.444V21.862Z" fill="white"/>
<path d="M143.947 30.4357V43.853C143.947 45.5248 144.247 46.725 144.89 47.5824C145.533 48.3968 146.648 48.8255 148.321 48.8255C148.878 48.8255 149.478 48.7826 150.122 48.6969C150.765 48.6112 151.279 48.4826 151.708 48.2682L151.837 56.713C151.022 57.013 150.036 57.2274 148.792 57.4417C147.549 57.656 146.348 57.7418 145.105 57.7418C142.746 57.7418 140.774 57.4417 139.187 56.8416C137.601 56.2414 136.314 55.427 135.328 54.3124C134.385 53.1979 133.656 51.9119 133.227 50.3687C132.798 48.8255 132.584 47.1537 132.584 45.2676V30.4357H127.052V21.8623H132.627V12.646H143.99V21.8623H152.223V30.4357H143.947Z" fill="white"/>
<path d="M194.03 57.0127C190.771 57.8272 187.212 58.213 183.353 58.213C179.365 58.213 175.678 57.57 172.333 56.3268C168.988 55.0408 166.073 53.2833 163.671 50.9685C161.27 48.6537 159.341 45.9102 158.011 42.6952C156.639 39.4802 155.953 35.8794 155.953 31.9357C155.953 27.9491 156.639 24.3483 158.054 21.0904C159.426 17.8326 161.356 15.0891 163.8 12.8171C166.244 10.5452 169.117 8.78768 172.376 7.58742C175.678 6.38715 179.194 5.74414 183.01 5.74414C186.955 5.74414 190.6 6.34428 193.987 7.54455C197.375 8.74481 200.119 10.3309 202.22 12.3885L194.63 21.0476C193.473 19.6758 191.886 18.5613 189.999 17.704C188.07 16.8466 185.883 16.418 183.439 16.418C181.338 16.418 179.365 16.8038 177.607 17.5754C175.806 18.347 174.263 19.4186 172.976 20.8332C171.647 22.205 170.618 23.8768 169.932 25.7629C169.203 27.649 168.817 29.7495 168.817 31.9786C168.817 34.2934 169.16 36.3938 169.803 38.3228C170.446 40.2518 171.433 41.9236 172.719 43.2954C174.005 44.6671 175.592 45.7816 177.521 46.5532C179.408 47.3248 181.595 47.7107 184.039 47.7107C185.454 47.7107 186.783 47.6249 188.07 47.4106C189.313 47.1962 190.514 46.8533 191.586 46.3818V37.294H182.067V27.4776H202.649V53.8835C200.119 55.1695 197.289 56.1982 194.03 57.0127Z" fill="white"/>
<path d="M246 39.2657C246 42.1378 245.485 44.7098 244.456 47.0675C243.427 49.3823 242.012 51.3541 240.211 52.9831C238.41 54.612 236.352 55.8551 233.994 56.7553C231.635 57.6555 229.148 58.0842 226.447 58.0842C223.831 58.0842 221.301 57.6555 218.943 56.7553C216.585 55.8551 214.484 54.612 212.726 52.9831C210.968 51.3541 209.552 49.3823 208.523 47.0675C207.494 44.7527 206.98 42.1378 206.98 39.2657C206.98 36.3937 207.494 33.8217 208.523 31.5069C209.552 29.1921 210.968 27.2631 212.726 25.677C214.484 24.0909 216.542 22.8478 218.943 22.0333C221.301 21.176 223.831 20.7473 226.447 20.7473C229.105 20.7473 231.635 21.176 233.994 22.0333C236.352 22.8906 238.41 24.0909 240.211 25.677C242.012 27.2631 243.384 29.2349 244.456 31.5069C245.485 33.8217 246 36.3937 246 39.2657ZM234.894 39.2657C234.894 38.1512 234.723 37.0367 234.337 35.965C233.951 34.8933 233.436 33.9503 232.707 33.0929C232.021 32.2785 231.121 31.5926 230.092 31.0782C229.063 30.5638 227.862 30.3066 226.49 30.3066C225.118 30.3066 223.917 30.5638 222.888 31.0782C221.859 31.5926 221.001 32.2785 220.315 33.0929C219.629 33.9074 219.115 34.8505 218.772 35.965C218.429 37.0367 218.257 38.1512 218.257 39.2657C218.257 40.3803 218.429 41.4948 218.772 42.5665C219.115 43.6381 219.629 44.6241 220.358 45.4814C221.044 46.3387 221.945 47.0675 222.974 47.5819C224.003 48.0963 225.203 48.3535 226.576 48.3535C227.948 48.3535 229.148 48.0963 230.177 47.5819C231.207 47.0675 232.064 46.3816 232.793 45.4814C233.479 44.6241 234.037 43.6381 234.38 42.5665C234.723 41.4948 234.894 40.3803 234.894 39.2657Z" fill="white"/>
<path d="M39.1253 24.9914C38.7823 21.262 35.6095 19.976 31.5364 19.5902V14.3605H28.3637V19.4188C27.5491 19.4188 26.6487 19.4188 25.7912 19.4188V14.3176H22.6185L22.6614 19.5045C21.9754 19.5045 16.3159 19.5474 16.3159 19.5474V22.8481H20.3461V39.5233H16.7875L16.7447 43.3384C16.7447 43.3384 21.761 43.2955 22.4899 43.3384V48.5681H25.6197V43.3813C26.4772 43.4241 27.3347 43.4241 28.1493 43.4241V48.5681H31.3221V43.3384C36.6385 43.0812 40.3258 41.7523 40.8403 36.7798C41.2261 32.7932 39.3825 30.9499 36.3813 30.2212C38.2249 29.3638 39.3825 27.7349 39.1253 24.9914ZM34.6234 36.1368C34.5805 40.0377 27.935 39.5661 25.8341 39.5661V32.6217C27.935 32.6217 34.6663 32.0645 34.6234 36.1368ZM33.2086 26.3632C33.1657 29.9211 27.6348 29.4924 25.877 29.4496V23.1482C27.6348 23.1482 33.2514 22.6338 33.2086 26.3632Z" fill="white"/>
</svg>
