<svg width="101" height="97" viewBox="0 0 101 97" fill="none" xmlns="http://www.w3.org/2000/svg">
<path d="M100.384 69.0778C94.4502 72.337 75.3189 82.7944 75.3189 82.7944C75.3189 82.7944 37.0547 61.6935 25.5391 55.3622V27.8931L100.384 69.0778Z" fill="#D81411"/>
<path d="M75.418 0.5L99.4197 13.6822C99.7114 13.847 99.9532 14.0811 100.121 14.3615C100.29 14.642 100.379 14.9593 100.38 15.2823V69.0777L75.418 55.3622V0.5Z" fill="#C11310"/>
<path d="M75.4238 0.5L50.502 14.2155L75.4238 27.9311V0.5Z" fill="#D81411"/>
<path d="M25.5391 82.7934L50.4564 96.5001L75.3096 82.7934L25.5391 55.3623V82.7934Z" fill="#F22A27"/>
<path d="M26.499 1.03258L75.4225 27.9303V55.3614L0.617188 14.2147L24.6189 1.03258C24.9033 0.871588 25.2281 0.786621 25.559 0.786621C25.8898 0.786621 26.2146 0.871588 26.499 1.03258V1.03258Z" fill="#F22A27"/>
<path d="M0.617188 14.2153V68.0108C0.618176 68.3338 0.70716 68.6511 0.875441 68.9315C1.04372 69.212 1.28554 69.4461 1.57726 69.6109L25.579 82.7931V27.8928L0.617188 14.2153Z" fill="#FC3B38"/>
</svg>
