<svg width="32" height="32" viewBox="0 0 32 32" fill="none" xmlns="http://www.w3.org/2000/svg">
<path fill-rule="evenodd" clip-rule="evenodd" d="M16 32C24.8366 32 32 24.8366 32 16C32 7.16344 24.8366 0 16 0C7.16344 0 0 7.16344 0 16C0 24.8366 7.16344 32 16 32Z" fill="black"/>
<path d="M23.8641 9.1129L21.2593 10.45L8.81458 16.9868C8.74223 16.6896 8.74223 16.3182 8.74223 16.0211C8.74223 11.787 12.0705 8.44436 16.1946 8.44436C17.4246 8.44436 18.6546 8.81577 19.8123 9.41002L21.2593 8.66721L21.4764 8.51864C17.4246 5.54737 11.7811 6.43876 8.81458 10.5985C7.72928 12.1584 7.15045 14.0155 7.0781 15.9468C7.0781 16.1697 7.0781 16.3925 7.0781 16.6153C7.15045 17.2839 6.78869 17.9524 6.20986 18.2495L5.48633 18.6952V20.5523L7.80163 19.3638L8.52517 18.9924L9.2487 18.6209L22.3446 11.787L23.7917 11.0442L26.8306 9.41002V7.55298L23.8641 9.1129Z" fill="white"/>
<path d="M26.8306 11.3413L9.97223 20.1808L8.52517 20.9236L5.48633 22.4836V24.3406L8.52517 22.7807L11.1299 21.4436L23.5747 14.9068C23.5747 15.2782 23.5747 15.6496 23.5747 15.9468C23.5747 20.1065 20.2464 23.5235 16.1946 23.5235C14.8923 23.5235 13.6623 23.1521 12.577 22.5578L12.5046 22.6321L10.9128 23.4492C14.9646 26.4948 20.6082 25.5291 23.5747 21.3693C24.66 19.8094 25.3111 17.8781 25.3111 15.9468C25.3111 15.7239 25.3111 15.4268 25.3111 15.204C25.2388 14.5354 25.6005 13.8669 26.1794 13.5698L26.9753 13.1241L26.8306 11.3413Z" fill="white"/>
</svg>
