<svg width="32" height="32" viewBox="0 0 32 32" fill="none" xmlns="http://www.w3.org/2000/svg">
<path d="M32 16C32 7.16344 24.8366 0 16 0C7.16344 0 0 7.16344 0 16C0 24.8366 7.16344 32 16 32C24.8366 32 32 24.8366 32 16Z" fill="#0054F9"/>
<path d="M26.8808 11.0056C26.8138 11.3973 26.7354 11.5872 26.6435 11.807L26.6433 11.8075C26.5443 12.0457 26.4319 12.3162 26.3301 12.8526C26.2896 13.0674 26.2693 13.2249 26.2517 13.3637L26.2506 13.3723L26.2495 13.3804C26.2212 13.6028 26.2023 13.7526 26.1119 14.0192C26.0386 14.2369 25.916 14.6001 25.6206 14.9914C25.3822 15.3081 24.983 15.838 24.4503 15.9016C24.4042 15.9046 24.3073 15.9095 24.2679 15.8894C22.7567 15.1177 21.4583 14.5474 21.0089 14.4195C20.486 14.2714 20.553 13.1316 20.6122 12.1261C20.6387 11.6767 20.6638 11.2517 20.6427 10.8878C20.5693 9.6184 20.3445 8.22892 19.239 7.55155C18.579 7.14728 17.7276 7.02871 16.9141 7.02703C17.0649 6.9553 17.233 6.85784 17.4162 6.75118L17.4218 6.74795C17.9008 6.47056 18.4953 6.12626 19.0861 6.06566C19.2794 6.04661 19.4693 6.02423 19.6564 6.00353C20.8474 5.86865 21.8764 5.75278 22.9618 6.12441C23.4538 6.29318 24.4629 6.85617 24.7235 7.37901C24.9068 7.74792 25.2164 8.03568 25.8339 8.60975C26.1555 8.90883 26.3673 9.08274 26.5223 9.21L26.5295 9.21581C26.7471 9.39483 26.79 9.43228 26.8547 9.56465C27.055 9.97247 26.982 10.4056 26.8808 11.0056V11.0056Z" fill="white"/>
<path d="M21.352 16.2136C21.4391 16.2433 21.4717 16.349 21.4217 16.4262C21.2645 16.6685 21.0851 16.9948 20.8716 17.3906C20.7677 17.5842 20.6692 17.767 20.5866 17.9096C20.2938 18.4124 20.2699 18.8357 20.2513 19.1753C20.2312 19.5306 20.2132 19.6937 20.001 19.8353C19.8257 19.9529 19.6463 19.992 18.402 20.1815C18.1849 20.2151 18.0885 20.2571 18.0038 20.2942C17.9902 20.3 17.9767 20.3059 17.9625 20.3117C17.8763 20.3471 17.7905 20.2729 17.7953 20.1798C17.8042 20.0062 17.8098 19.7926 17.8105 19.5281V19.4742C17.817 19.2303 17.8068 19.0325 17.798 18.8729C17.7817 18.5552 17.7796 18.4214 17.8643 18.2831C17.9682 18.116 18.0493 18.065 18.1826 17.9805C18.3687 17.8636 18.6238 17.7026 19.0015 17.1835C19.2023 16.9087 19.2468 16.7596 19.2747 16.6308C19.2866 16.5774 19.291 16.5574 19.4455 16.4403C19.6089 16.3162 20.1066 15.9392 20.7438 16.0462C20.9125 16.0748 21.1253 16.1363 21.352 16.2136V16.2136Z" fill="white"/>
<path d="M16.4304 21.9606C16.4032 21.9959 16.3716 22.0122 16.3258 22.0146C16.1957 22.0198 16.1044 21.9878 16.0439 21.9149C15.9155 21.7587 15.9329 21.4448 15.9628 21.2614L16.4889 21.1211C16.5301 21.3996 16.5496 21.8054 16.4304 21.9606V21.9606Z" fill="white"/>
<path d="M16.4745 20.0619C16.4658 20.1387 16.4561 20.225 16.4566 20.3154C16.4572 20.3491 16.4576 20.3829 16.4587 20.416C16.4597 20.5019 16.463 20.6385 16.4511 20.7006C16.2867 20.7604 16.1464 20.7604 15.962 20.7573C15.9592 20.704 15.9626 20.6245 15.9647 20.5707C15.9657 20.5293 15.968 20.4881 15.9684 20.4488C15.9691 20.4053 15.9684 20.3622 15.9684 20.3194C15.9678 20.2181 15.9664 20.0523 15.9912 20.0034C16.0408 19.9963 16.0914 19.9854 16.1458 19.9728C16.2545 19.9494 16.3965 19.9195 16.4869 19.9331C16.4854 19.9682 16.48 20.0205 16.4745 20.0619Z" fill="white"/>
<path d="M15.5009 21.7985C15.4753 22.0683 15.3921 22.4018 15.1391 22.4525C15.0253 22.4758 14.9703 22.4416 14.9356 22.4089C14.7647 22.2507 14.7375 21.7724 14.7613 21.4302C14.8751 21.4323 15.0242 21.4068 15.201 21.3725C15.3087 21.3511 15.416 21.3273 15.5013 21.3076C15.5111 21.4344 15.5182 21.6151 15.5009 21.7985V21.7985Z" fill="white"/>
<path d="M15.3813 20.8307L14.8105 21.0308C14.8394 20.8093 14.8781 20.4975 14.8917 20.2902C14.9015 20.1445 14.9413 20.0997 14.9525 20.0901C14.9563 20.0868 14.9641 20.0799 14.9852 20.0799C14.9885 20.0799 14.9917 20.0805 14.9954 20.0805L15.0073 20.0822L15.3681 20.0625C15.3834 20.2321 15.3834 20.6044 15.3813 20.8307V20.8307Z" fill="white"/>
<path d="M14.4576 20.6531C14.4254 20.739 14.3873 20.9822 14.3635 21.1535L13.6484 21.1318C13.6888 20.9103 13.7446 20.6851 13.8061 20.5054C13.8682 20.327 13.9352 20.1932 13.9967 20.1555C14.0684 20.1125 14.2263 20.1028 14.3231 20.1854C14.4804 20.3195 14.5239 20.473 14.4576 20.6531V20.6531Z" fill="white"/>
<path d="M14.1914 22.8417C14.136 22.9174 14.0745 22.956 13.9982 22.964C13.9204 22.9727 13.8599 22.9553 13.8116 22.91C13.587 22.7028 13.6054 22.0238 13.6135 21.6973C13.9101 21.6298 14.2301 21.5722 14.3819 21.5635C14.4047 21.8368 14.4112 22.5424 14.1914 22.8417Z" fill="white"/>
<path d="M13.2593 21.1129C13.2244 21.206 13.1907 21.294 13.1652 21.3718C13.082 21.398 12.8279 21.3751 12.5684 21.3179L12.7467 20.1927C13.0399 20.1149 13.38 20.0898 13.4622 20.177C13.5705 20.2921 13.353 20.8676 13.2593 21.1129V21.1129Z" fill="white"/>
<path d="M12.9344 23.0134C12.7958 23.1843 12.5879 23.2641 12.2978 23.2611C12.0971 23.2576 12.0253 23.1814 11.9894 23.1244C11.8283 22.8693 11.986 22.268 12.1439 21.8838L13.1124 21.9419C13.1222 22.0096 13.1304 22.0915 13.1341 22.1809C13.1448 22.4541 13.1105 22.7946 12.9344 23.0134Z" fill="white"/>
<path d="M20.9384 14.8472C20.0665 14.6002 20.1416 13.3253 20.2141 12.0931C20.2398 11.6571 20.2641 11.2449 20.2442 10.9077C20.1773 9.75437 19.9834 8.49832 19.0557 7.9297C18.058 7.31952 16.4257 7.4586 15.4186 7.58675C15.4177 7.58686 15.4169 7.58745 15.4159 7.58754C15.4155 7.58756 15.4152 7.5876 15.4148 7.58773C15.0459 7.69952 14.7008 7.77201 14.4333 7.75779C13.8391 7.72703 13.3767 7.47691 12.9695 7.25733C12.6519 7.0852 12.3748 6.93652 12.1138 6.93652C12.1 6.93652 12.0855 6.93652 12.0713 6.93715C11.2906 6.98777 10.9318 7.17848 10.6057 7.4694C10.5237 7.54195 10.4238 7.75213 10.0965 8.69533C9.93127 9.17193 9.90073 9.43272 9.86999 9.68619C9.84239 9.9177 9.81435 10.1559 9.69118 10.5112C9.60544 10.7563 9.54228 10.9678 9.481 11.1717C9.31955 11.7133 9.19198 12.14 8.80863 12.6473C8.76366 12.7073 8.70782 12.7956 8.64341 12.8962C8.55642 13.0332 8.44893 13.2034 8.30693 13.4004C8.20675 13.5393 7.9767 14.059 7.98926 14.2173C8.00807 14.4693 8.09005 14.6257 8.18374 14.8083C8.27702 14.9884 8.38325 15.1922 8.40271 15.4738L8.40585 15.5193C8.44013 15.9658 8.37635 16.1898 7.52707 16.9485C6.98407 17.4344 6.59828 17.9026 6.3381 18.246C6.31514 18.2763 6.345 18.3214 6.3829 18.3184C6.39168 18.3171 6.40047 18.3165 6.40863 18.3165C6.42494 18.3152 6.44124 18.3146 6.45735 18.3146C6.47366 18.3146 6.48998 18.3152 6.50607 18.3159C6.5224 18.3165 6.53807 18.3177 6.55418 18.3203C6.75957 18.3437 6.95978 18.4305 7.10432 18.5802C7.12944 18.6062 7.16849 18.6133 7.20208 18.5999C7.34031 18.5424 7.49235 18.5518 7.6375 18.5653C7.81019 18.5814 7.9846 18.6318 8.10357 18.7389C8.14887 18.7797 8.21104 18.8013 8.27075 18.7891C8.40594 18.7614 8.5468 18.766 8.67772 18.8136C8.77481 18.8498 8.85809 18.9047 8.92632 18.9736C8.99062 19.0385 9.09946 19.0515 9.17888 19.0062C9.21062 18.9881 9.24481 18.9726 9.28191 18.96C9.46635 18.8974 9.67026 18.933 9.84929 18.9974C9.93754 19.0292 10.03 19.0574 10.1094 19.1106C10.2407 19.1979 10.326 19.3217 10.3833 19.4612C10.4273 19.5683 10.5737 19.6048 10.6677 19.5372C10.7806 19.456 10.8738 19.4455 10.9677 19.4872C11.0066 19.5048 11.0369 19.527 11.0602 19.5538C11.1275 19.6314 11.2357 19.7088 11.3356 19.6851C11.6141 19.6193 11.9513 19.663 12.1987 19.7955C12.29 19.8435 12.3799 19.9167 12.4455 20.0274C12.4456 20.0275 12.4456 20.0275 12.4457 20.0277C12.4458 20.0281 12.4463 20.0279 12.4464 20.0275L12.4539 19.9783C12.4573 19.956 12.4731 19.9376 12.4946 19.931L12.5546 19.9124C12.696 19.8674 13.4165 19.6597 13.6967 19.9548C13.7088 19.967 13.73 19.9682 13.7416 19.9555C13.7798 19.9137 13.8107 19.8907 13.8305 19.8793C14.0131 19.7687 14.326 19.7618 14.5343 19.94C14.5762 19.9752 14.6441 19.9624 14.6757 19.9177C14.6952 19.8901 14.7172 19.8659 14.7419 19.845C14.8151 19.7819 14.9078 19.7518 15.0103 19.758L15.4061 19.7367C15.5057 19.7312 15.815 19.7102 15.9125 19.6896C15.9199 19.688 15.9275 19.6867 15.9353 19.6855C15.9765 19.6792 16.0254 19.6685 16.0766 19.6579C16.2686 19.616 16.4863 19.569 16.6651 19.6516C16.837 19.7311 16.8153 19.9268 16.7946 20.0993C16.7864 20.1694 16.7776 20.2426 16.7783 20.312C16.7795 20.3445 16.7802 20.3771 16.7808 20.4103C16.7833 20.5591 16.7864 20.6965 16.757 20.8021C16.757 20.8023 16.7569 20.8026 16.7569 20.8028C16.7569 20.803 16.757 20.8032 16.757 20.8033L16.7751 20.8851C16.794 20.9654 16.8799 21.0107 16.9501 20.9673C17.0838 20.8847 17.2215 20.7805 17.2655 20.7187C17.2695 20.713 17.2726 20.7068 17.275 20.7003C17.2812 20.6837 17.2919 20.6493 17.3038 20.5799C17.3283 20.4329 17.3557 20.1341 17.3582 19.5272C17.3582 19.4952 17.3582 19.4722 17.3588 19.4615C17.3638 19.2363 17.3551 19.0556 17.3463 18.896C17.33 18.567 17.3168 18.3081 17.4801 18.0446C17.6391 17.7882 17.7934 17.6912 17.9417 17.5973C18.1142 17.4892 18.3089 17.3664 18.6366 16.9168C18.7974 16.6953 18.8173 16.606 18.833 16.5347C18.8686 16.3676 18.9238 16.267 19.172 16.0794C19.374 15.9267 19.9889 15.4608 20.8183 15.6003C21.0903 15.6465 21.5312 15.7916 21.9664 15.963C21.9666 15.9631 21.9668 15.9631 21.9671 15.9631C21.9673 15.9631 21.9673 15.9631 21.9675 15.9632C21.9832 15.9678 21.9993 15.9732 22.0141 15.9807C22.0208 15.9842 22.0278 15.9878 22.035 15.9906C22.4111 16.1408 22.7773 16.308 23.0196 16.444C23.0886 16.4828 23.1763 16.4597 23.2266 16.3986C23.3015 16.3078 23.3827 16.2525 23.4698 16.2003C23.5046 16.1789 23.5316 16.1628 23.5573 16.1409C23.6389 16.0715 23.638 15.9262 23.5429 15.8772C22.3848 15.2823 21.2993 14.9498 20.9384 14.8472V14.8472ZM12.6299 15.1155C12.3603 16.2958 10.5319 17.5931 9.7008 17.5931H9.68448C9.67131 17.5925 9.65687 17.5912 9.6414 17.5887C9.62572 17.5862 9.60879 17.5824 9.59078 17.5774C9.58201 17.5749 9.57259 17.5718 9.56318 17.5693C9.41239 17.5218 9.20348 17.4059 9.04537 17.2503C8.93661 17.1435 8.85089 17.0176 8.8239 16.8818C8.81889 16.858 8.81386 16.8344 8.80885 16.8105C8.76388 16.6098 8.70804 16.359 8.88517 15.9487C8.90964 15.8937 8.93139 15.8422 8.95148 15.7954C8.95775 15.7797 8.96465 15.764 8.97092 15.7492C8.98975 15.7048 9.00647 15.6641 9.02153 15.6272C9.04663 15.5647 9.06712 15.5116 9.08405 15.4664C9.09095 15.4488 9.09724 15.4319 9.10288 15.4164C9.15349 15.2744 9.15976 15.2213 9.16667 15.1663C9.17293 15.1232 9.17923 15.0705 9.19679 14.9955C9.24865 14.774 9.27562 14.5864 9.29948 14.4193C9.34192 14.119 9.37893 13.8595 9.5408 13.6212C9.56841 13.5807 9.59895 13.5437 9.63345 13.5112C9.64538 13.4999 9.65668 13.4893 9.669 13.4786C9.68156 13.4679 9.6941 13.4585 9.70644 13.4491C9.74576 13.4215 9.78779 13.3973 9.83338 13.3766C9.84907 13.3697 9.86477 13.3628 9.88022 13.3571C9.91222 13.3452 9.9459 13.3352 9.98103 13.3264C10.1299 13.2902 10.3056 13.2845 10.5076 13.3101C10.7285 13.3276 10.933 13.3694 11.1143 13.42C11.2657 13.4619 11.4008 13.5108 11.5152 13.5564C11.5272 13.5608 11.5385 13.5652 11.5497 13.5702C11.5717 13.579 11.5928 13.5878 11.6135 13.5972C11.6449 13.6104 11.6735 13.6229 11.7005 13.6346C11.7361 13.651 11.7687 13.6654 11.7976 13.6783L11.8245 13.6909C11.9521 13.749 12.0617 13.8128 12.1554 13.8797C12.2016 13.9136 12.2449 13.9479 12.2836 13.9828C12.2968 13.9941 12.3093 14.006 12.321 14.0186C12.3336 14.0305 12.3455 14.0424 12.3566 14.0544C12.7079 14.4243 12.6906 14.8522 12.6299 15.1155V15.1155ZM13.4773 10.6419L13.4418 10.8559C13.3598 11.3381 13.1716 11.9992 12.4773 12.1694C11.8093 12.3328 11.651 12.3677 11.1756 12.389C11.1649 12.3903 11.1536 12.3903 11.1423 12.3903C10.7952 12.3903 10.1272 12.1713 10.0089 11.6272C9.93314 11.2769 10.0877 11.023 10.3422 10.602C10.3847 10.5326 10.4305 10.4581 10.4792 10.3749C10.8157 9.80812 10.9483 9.3978 11.0547 9.06883C11.1585 8.7474 11.2448 8.4816 11.4669 8.26137C11.5182 8.21014 11.5763 8.16182 11.6439 8.1156C11.6869 8.08613 11.7321 8.05998 11.7796 8.03552C11.8427 8.00415 11.909 7.97674 11.9785 7.9548C12.133 7.90543 12.2999 7.88033 12.467 7.88033C12.7909 7.88033 13.1145 7.97361 13.3451 8.15868C13.4489 8.24193 13.5965 8.4082 13.6823 8.8986C13.7264 9.15123 13.6513 9.61551 13.4773 10.6419V10.6419ZM18.4306 12.0143C18.1916 12.4246 18.0609 12.6504 17.8545 12.8198C17.4448 13.1563 16.9669 13.2415 16.5735 13.2415C16.2908 13.2415 16.0507 13.1977 15.9093 13.172C15.5028 13.0976 14.7459 12.96 14.4939 12.3627C14.4446 12.2445 14.4439 12.1694 14.4439 12.0743C14.4439 11.9804 14.4439 11.8223 14.4002 11.4463L14.3977 11.4212C14.3776 11.2509 14.3553 11.0583 14.404 10.8113L14.4096 10.7819C14.5523 10.0564 14.5909 9.94552 14.6229 9.88298C14.6968 9.74035 14.8718 9.6841 15.0144 9.75731C15.1527 9.82924 15.2102 9.99677 15.1452 10.1375C15.1307 10.1787 15.0901 10.3332 14.9799 10.8944L14.9743 10.9239C14.9429 11.0822 14.9567 11.2022 14.9749 11.3542L14.9774 11.38C15.0249 11.7884 15.0249 11.9735 15.0249 12.0737C15.0249 12.0913 15.0249 12.1107 15.0255 12.1223C15.0257 12.1267 15.0279 12.1326 15.0293 12.1368C15.0716 12.2372 15.1614 12.3158 15.2729 12.3781C15.3688 12.4316 15.472 12.3377 15.4514 12.2298C15.3313 11.6007 15.3437 10.8787 15.5823 10.4286C15.6622 10.2755 15.8102 10.0253 15.9508 9.79153C15.9512 9.79088 15.9516 9.79029 15.952 9.78962C15.9523 9.78894 15.9528 9.78835 15.9532 9.7877C15.9674 9.76419 15.9817 9.74088 15.9957 9.71737C16.0076 9.69727 16.0195 9.67805 16.0306 9.65922C16.0925 9.55654 16.1507 9.46222 16.1971 9.38714C16.2034 9.37647 16.2096 9.3658 16.2159 9.35577C16.2203 9.34823 16.2247 9.34133 16.2291 9.33506C16.2391 9.31876 16.2479 9.3037 16.2561 9.29072C16.2598 9.28445 16.2636 9.27881 16.2667 9.27315C16.2686 9.27065 16.2699 9.26815 16.2711 9.26625C16.2755 9.25872 16.2799 9.25182 16.2837 9.24618C16.2912 9.23425 16.2969 9.22548 16.3 9.21984C16.3002 9.21939 16.3004 9.21893 16.3007 9.21849C16.3014 9.21723 16.3027 9.2154 16.3034 9.21414C16.3039 9.21327 16.304 9.21314 16.3046 9.21233C16.3392 9.16194 16.3735 9.11337 16.4072 9.06679C16.4833 8.96175 16.3944 8.82753 16.2762 8.88084C16.0733 8.97238 15.9366 9.07663 15.9066 9.10042C15.7809 9.2006 15.5981 9.1799 15.4988 9.0542C15.3992 8.92851 15.4199 8.74531 15.5456 8.64513C15.6952 8.5276 16.4876 7.94955 17.4366 8.22101C18.1203 8.41551 18.4787 8.93792 18.6138 9.13429C18.7226 9.29386 19.0561 9.77801 19.0455 10.4541C19.0375 10.9697 18.8223 11.3407 18.4306 12.0143V12.0143Z" fill="white"/>
<path d="M12.2674 8.47852C12.2189 8.59604 12.1608 8.74181 12.0982 8.90013C11.9525 9.26674 11.787 9.68206 11.7076 9.83264C11.5704 10.0928 11.4637 10.257 11.3784 10.3894C11.2809 10.5412 11.2031 10.6614 11.1444 10.8289C11.0415 11.1222 11.0231 11.4499 11.09 11.8062C10.9082 11.7862 10.6107 11.6609 10.577 11.5032C10.5519 11.3857 10.6249 11.2573 10.8399 10.9036C10.883 10.8329 10.9292 10.7562 10.9798 10.6708C11.3493 10.0485 11.4989 9.58545 11.6089 9.24686C11.7274 8.87858 11.7835 8.72402 11.9723 8.595C12.0568 8.53622 12.1597 8.4988 12.2674 8.47852V8.47852Z" fill="white"/>
<path d="M11.9072 21.5315C11.7058 21.9429 11.455 22.3226 11.2988 22.5109C11.1694 22.161 10.9445 21.3596 11.0039 20.7148C11.0056 20.6962 11.0077 20.6778 11.0104 20.6598C11.0343 20.4607 11.0872 20.2779 11.1813 20.1315C11.2434 20.0353 11.4153 19.9766 11.6106 19.9766C11.7547 19.9766 11.9116 20.0081 12.0465 20.0805H12.0475C12.1199 20.1192 12.2184 20.1974 12.2286 20.425C12.2435 20.7322 12.0971 21.1452 11.9072 21.5315V21.5315Z" fill="white"/>
<path d="M22.9417 16.9205C22.9573 16.9331 22.9671 16.9521 22.9582 16.97C22.8981 17.0909 22.8258 17.1757 22.7407 17.2756C22.638 17.398 22.5204 17.5368 22.4109 17.7533C22.2553 18.0601 22.2054 18.3399 22.1793 19.0564C22.1484 19.8982 22.1808 20.371 22.2054 20.7159C22.2287 21.0488 22.2431 21.2496 22.1837 21.5744C22.0639 22.2293 21.7838 22.6632 21.4289 23.2122C20.9849 23.8988 20.5256 24.6082 19.765 24.8346C19.6943 24.8564 19.692 24.8564 19.4936 24.857C19.321 24.857 19.0339 24.8575 18.4904 24.8777C17.4968 24.9136 16.9984 24.9315 16.572 25.0135C16.1247 25.1002 15.8912 25.1953 15.665 25.2867C15.4609 25.3692 15.2678 25.4478 14.8979 25.5238C14.6774 25.5684 14.3478 25.617 13.2248 25.6185C12.0576 25.6207 11.3531 25.6213 10.4226 25.5153C9.14608 25.3695 8.5053 25.2965 8.07972 25.0693C7.07588 24.5338 6.65198 23.5707 5.95074 21.9755C5.94954 21.9727 5.94832 21.9698 5.94713 21.967C5.93846 21.9472 5.96265 21.928 5.98128 21.9391C6.01454 21.9598 6.04924 21.9768 6.08586 21.989C6.11638 21.9999 6.14838 22.0081 6.1806 22.0136C6.24479 22.0245 6.31171 22.0251 6.37967 22.0136C6.3916 22.0114 6.40248 22.0088 6.41293 22.0042C6.41494 22.0036 6.41692 22.0025 6.4189 22.0016C6.43076 21.9957 6.44556 22.0007 6.45057 22.0129C6.49513 22.1359 6.56601 22.2452 6.68502 22.3083C6.80423 22.3706 6.93974 22.3754 7.07233 22.3743C7.20888 22.3721 7.34651 22.3645 7.48265 22.3482C7.55479 22.3406 7.62856 22.3758 7.65621 22.4429C7.78077 22.745 7.93524 22.9638 8.16714 22.996C8.17968 22.9978 8.19601 22.9997 8.21671 22.9997C8.26192 22.9997 8.32832 22.9884 8.41901 22.9348C8.53088 22.8689 8.69939 22.9105 8.78439 23.0086C8.8344 23.0665 8.88925 23.1112 8.93758 23.1499C9.17641 23.3953 9.75698 23.5128 10.2445 23.5128C10.5105 23.5128 10.7489 23.478 10.8892 23.4094C11.09 23.3121 11.09 23.1625 11.0801 23.102C11.0631 22.9936 11.0477 22.8861 11.0345 22.7794C11.0329 22.7668 11.0522 22.7618 11.0574 22.7735C11.0866 22.8371 11.1222 22.9166 11.2174 22.9318C11.2276 22.9329 11.2391 22.9353 11.2523 22.9353C11.3882 22.9353 11.5995 22.9795 11.636 23.1103C11.6545 23.1769 11.6809 23.2394 11.7166 23.296C11.7981 23.4251 11.9641 23.579 12.2933 23.5844H12.3188C12.6969 23.5844 12.9887 23.4608 13.1855 23.2165C13.1983 23.2006 13.2105 23.1845 13.2221 23.168C13.2929 23.0685 13.5029 23.0641 13.5929 23.1469C13.6941 23.2405 13.8215 23.2888 13.9635 23.2888C13.9863 23.2888 14.0093 23.2877 14.0331 23.2851C14.2023 23.267 14.3487 23.1773 14.4581 23.0245C14.5296 22.9246 14.5818 22.8018 14.62 22.669C14.6312 22.6299 14.6849 22.6183 14.7149 22.6458C14.7872 22.7126 14.9031 22.7833 15.0702 22.7833C15.111 22.7833 15.1551 22.779 15.202 22.7692C15.5303 22.7032 15.6938 22.4313 15.7712 22.1246C15.7738 22.1144 15.7887 22.1116 15.7955 22.1196C15.8787 22.2208 16.0322 22.3377 16.2993 22.3377C16.3129 22.3377 16.3271 22.3377 16.3411 22.3371C16.4825 22.3305 16.6017 22.2685 16.6876 22.1575C16.7887 22.0258 16.8305 21.8329 16.8419 21.6368C16.8461 21.5646 16.8925 21.5012 16.9588 21.4723C17.2366 21.3512 17.5643 21.1054 17.662 20.9365C17.6627 20.9353 17.6634 20.9341 17.664 20.9329C17.6941 20.8801 17.7412 20.8369 17.8009 20.8253C18.0072 20.785 18.0996 20.7451 18.1838 20.7083C18.2545 20.6774 18.3111 20.6529 18.4699 20.6283C19.7322 20.4356 19.9785 20.3932 20.2517 20.211C20.6603 19.9385 20.681 19.5635 20.7011 19.2007C20.7185 18.8939 20.7381 18.5457 20.9763 18.1371C21.0629 17.9879 21.1629 17.8018 21.2691 17.605C21.4507 17.268 21.703 16.7993 21.8878 16.542C21.9298 16.4836 22.0069 16.4653 22.0731 16.4935C22.5008 16.6759 22.8626 16.857 22.9417 16.9205V16.9205Z" fill="white"/>
<path d="M10.6822 20.6749C10.6322 21.1114 10.6017 21.6944 10.6724 22.4541C10.6924 22.6683 10.7203 22.891 10.755 23.1161C10.6952 23.1487 10.5166 23.1947 10.1989 23.1894C9.74237 23.1803 9.29797 23.0656 9.16452 22.9212L9.14382 22.9025C9.03278 22.8133 8.96001 22.7545 8.94953 22.5951C8.9462 22.5414 8.96919 22.488 9.01856 22.4127C9.04575 22.3703 9.08171 22.3215 9.12625 22.261C9.20301 22.158 9.29816 22.0296 9.39562 21.8644C9.68129 21.3816 9.78963 21.2325 9.92723 21.0443C9.93812 21.029 9.94961 21.0137 9.96154 20.998C10.0427 20.887 10.1378 20.7542 10.2809 20.5361C10.3875 20.374 10.4762 20.247 10.5492 20.1475C10.6711 19.9817 10.751 19.8917 10.8022 19.8428C10.7947 19.9179 10.7778 20.0235 10.7615 20.1209C10.7372 20.2707 10.7067 20.4541 10.6822 20.6749Z" fill="white"/>
<path d="M10.4735 13.8899C10.4708 13.8937 10.4675 13.8974 10.4647 13.9014C10.4054 13.9836 10.3374 14.0767 10.2564 14.2578C10.0387 14.7415 10.0346 15.0152 10.0312 15.2355C10.0291 15.3509 10.0279 15.4427 9.99629 15.55C9.97454 15.6207 9.93919 15.7018 9.89841 15.7953C9.77 16.0891 9.60249 16.4744 9.67757 16.9928C9.57362 16.9428 9.41469 16.8284 9.39253 16.7676C9.38709 16.7394 9.38101 16.7115 9.37453 16.6837C9.33857 16.5221 9.31473 16.4167 9.41763 16.1799C9.68802 15.5563 9.72128 15.4084 9.7424 15.2386C9.74679 15.2016 9.75119 15.1727 9.76205 15.1259C9.81915 14.8799 9.84906 14.6693 9.87353 14.5002C9.90991 14.2434 9.9344 14.0735 10.021 13.9458C10.0525 13.8985 10.1419 13.874 10.2696 13.874C10.3202 13.874 10.3773 13.8778 10.4395 13.8866L10.4541 13.8876C10.4604 13.8882 10.4671 13.8889 10.4735 13.8899V13.8899Z" fill="white"/>
<path d="M10.1172 20.0416C10.1026 19.8921 10.0765 19.7423 10.0221 19.6014C10.0183 19.5942 10.002 19.5583 9.99865 19.5514C9.98883 19.5334 9.97754 19.5165 9.96707 19.4987C9.96646 19.498 9.96602 19.498 9.96602 19.4976C9.96539 19.4966 9.96498 19.4966 9.96498 19.496C9.95892 19.4895 9.95348 19.483 9.94763 19.4769C9.93883 19.4681 9.92921 19.4596 9.91981 19.4518C9.91813 19.4497 9.91645 19.4481 9.915 19.4474C9.9106 19.4437 9.90413 19.4387 9.89701 19.4345C9.88552 19.4284 9.87464 19.4219 9.86334 19.4161C9.85999 19.414 9.85184 19.4106 9.84431 19.4079C9.84431 19.4079 9.84368 19.4079 9.84368 19.4073C9.842 19.4067 9.84033 19.4062 9.83887 19.4056C9.83719 19.4046 9.83615 19.4039 9.8351 19.4035C9.83343 19.4029 9.83238 19.4025 9.83134 19.4025C9.83029 19.4025 9.83029 19.4019 9.83029 19.4019C9.82696 19.4002 9.82487 19.3998 9.8232 19.3991C9.73619 19.3671 9.64794 19.3322 9.55551 19.3186C9.55488 19.3186 9.55342 19.318 9.55215 19.318H9.55006C9.53981 19.318 9.51848 19.3159 9.51743 19.3159C9.50448 19.3153 9.49192 19.3153 9.47938 19.3159C9.47331 19.3159 9.46745 19.3159 9.46201 19.3165H9.4572C9.45511 19.3165 9.45239 19.3171 9.44969 19.3171C9.44864 19.3182 9.44697 19.3182 9.44634 19.3182C9.44571 19.3182 9.44529 19.3182 9.44529 19.3182C9.42459 19.3243 9.40282 19.3297 9.38212 19.3362C9.37335 19.3406 9.36372 19.345 9.35495 19.3504C9.34742 19.3548 9.33967 19.3602 9.33214 19.364C9.33151 19.3646 9.33048 19.3657 9.32942 19.3657L9.32776 19.3673C9.31792 19.3772 9.30767 19.3864 9.29785 19.3962C9.2945 19.3995 9.28529 19.4108 9.27883 19.419C9.27715 19.4201 9.2761 19.4211 9.2761 19.4221C9.27547 19.4228 9.27547 19.4228 9.27506 19.4232C9.27443 19.4238 9.27443 19.4242 9.27338 19.4249C9.27275 19.4255 9.27275 19.4259 9.27234 19.4259C9.26962 19.4307 9.2669 19.4347 9.26585 19.4368C9.23094 19.4911 9.19558 19.5451 9.15919 19.5989C9.07533 19.7273 8.98937 19.855 8.90238 19.982C8.8229 20.0968 8.74345 20.2116 8.6646 20.3264C8.62048 20.3906 8.57696 20.4542 8.53347 20.5184C8.52593 20.5293 8.51884 20.5402 8.51172 20.551C8.56338 20.5609 8.61503 20.5711 8.66732 20.5809C8.78422 20.6023 8.9007 20.6228 9.01928 20.6391C9.26354 20.6723 9.51179 20.6876 9.7592 20.6788C9.77113 20.6782 9.78303 20.6788 9.79411 20.6809C9.85352 20.596 9.92357 20.4948 10.0129 20.3593C10.0624 20.2835 10.1097 20.2135 10.1543 20.1487C10.1342 20.1177 10.1216 20.0807 10.1172 20.0416V20.0416Z" fill="white"/>
<path d="M9.24718 21.0515C9.22605 21.2397 9.01546 21.7272 8.6867 22.1914C8.41148 22.5793 8.24439 22.6733 8.21112 22.6766C8.07833 22.6583 7.9472 22.3296 7.84325 22.0037C7.80144 21.8716 7.7638 21.7397 7.73221 21.6293C7.6609 21.3813 7.64792 21.0488 7.66048 20.8398C7.93799 20.9937 8.42548 21.0352 9.10998 21.0379H9.11207C9.15726 21.0427 9.20199 21.0477 9.24718 21.0515V21.0515Z" fill="white"/>
<path d="M8.76022 19.5014V19.5024C8.75687 19.5068 8.75415 19.5116 8.75101 19.516C8.63348 19.689 8.51491 19.8611 8.39633 20.0334C8.33484 20.1221 8.27399 20.2108 8.21354 20.3001C8.1803 20.3486 8.13574 20.4019 8.09706 20.4594C7.9996 20.4366 7.90236 20.4142 7.80594 20.3871C7.7271 20.3643 7.6493 20.3398 7.57298 20.3093C7.55769 20.3038 7.54307 20.2978 7.52885 20.2909C7.51629 20.2653 7.49831 20.2423 7.47656 20.225C7.47719 20.2243 7.47719 20.2229 7.47761 20.2223C7.50543 20.1656 7.53366 20.1085 7.56146 20.052C7.61416 19.9481 7.66708 19.8448 7.72584 19.7446C7.83041 19.5639 7.95652 19.3801 8.13345 19.263C8.14223 19.2565 8.15185 19.2504 8.16125 19.2446C8.22985 19.2015 8.29846 19.1711 8.38273 19.1607C8.39257 19.1597 8.45176 19.1601 8.47956 19.1624C8.48437 19.1624 8.48835 19.163 8.49107 19.163H8.49168C8.49379 19.1636 8.49775 19.1647 8.50361 19.1668C8.52431 19.1733 8.54501 19.1776 8.56572 19.1848C8.57283 19.1881 8.57932 19.1912 8.58642 19.195C8.60442 19.2059 8.62282 19.2157 8.63975 19.2293C8.61256 19.2086 8.67739 19.2755 8.67739 19.2707C8.72968 19.3431 8.74557 19.4035 8.76022 19.5014V19.5014Z" fill="white"/>
<path d="M7.83021 19.009C7.6125 19.188 7.4542 19.4264 7.32202 19.6744C7.24798 19.812 7.18107 19.9524 7.11143 20.0923C7.10431 20.1065 7.09719 20.1201 7.08905 20.1341C7.02318 20.1199 6.95728 20.1008 6.89309 20.0804C6.8245 20.0586 6.75653 20.0335 6.69127 20.0032C6.66136 19.9889 6.63147 19.9743 6.60156 19.9586C6.6668 19.835 6.7446 19.7164 6.81864 19.6012C6.9232 19.4385 7.03635 19.2785 7.15932 19.1284C7.20554 19.0713 7.25447 19.0087 7.3193 18.9711C7.38561 18.932 7.46569 18.9412 7.54182 18.9456C7.62234 18.9506 7.70891 18.9527 7.78504 18.9832C7.80073 18.9899 7.81767 19.0004 7.83021 19.009V19.009Z" fill="white"/>
<path d="M7.4846 21.9306C7.47372 21.9398 7.46451 21.9498 7.45637 21.9611C7.44884 21.9633 7.44109 21.965 7.43628 21.9661C7.38401 21.9716 7.33068 21.9755 7.27797 21.9787C7.17675 21.9853 7.07385 21.9896 6.97158 21.9859C6.9145 21.9838 6.86284 21.975 6.83942 21.9387C6.80178 21.8814 6.79049 21.782 6.77688 21.7063C6.70996 21.3346 6.70119 20.9473 6.74865 20.5713C6.94293 20.6409 7.14266 20.6949 7.34761 20.7286C7.30349 21.0676 7.37857 21.5653 7.42269 21.7178C7.44318 21.7887 7.46388 21.8603 7.4846 21.9306Z" fill="white"/>
<path d="M6.8595 18.8862C6.68759 19.0972 6.53094 19.322 6.3904 19.5548C6.33374 19.6496 6.26952 19.7474 6.22226 19.8487C6.1543 19.8296 6.0928 19.8024 6.02756 19.7621C5.97758 19.7311 5.92906 19.6968 5.8818 19.6609C5.86987 19.651 5.83724 19.6255 5.81697 19.6092C5.81216 19.6054 5.80776 19.6017 5.80273 19.5989C5.81843 19.5544 5.8473 19.5048 5.86319 19.4716C5.89915 19.3928 5.93931 19.3154 5.98135 19.2399C6.06124 19.0985 6.15053 18.9603 6.25176 18.8329C6.2894 18.7861 6.32516 18.7256 6.3835 18.7083C6.43684 18.693 6.5071 18.7001 6.54997 18.7076C6.67734 18.7323 6.77688 18.79 6.8595 18.8862Z" fill="white"/>
<path d="M5.53364 19.8062C5.53645 19.7952 5.55056 19.7937 5.55718 19.803C5.60215 19.8656 5.66391 19.9202 5.73006 19.9718C5.75971 19.9943 5.78919 20.0168 5.81914 20.0381C5.8238 20.0414 5.826 20.0472 5.82467 20.0527C5.75542 20.34 5.7076 20.6444 5.70601 20.945C5.70592 20.9616 5.68087 20.9651 5.67699 20.949C5.59124 20.5902 5.47983 20.0168 5.53364 19.8062V19.8062Z" fill="white"/>
<path d="M6.37709 20.4433C6.34217 20.7002 6.32543 20.9576 6.33673 21.2165C6.34217 21.3585 6.35743 21.4995 6.37646 21.6398C6.37646 21.6408 6.37646 21.6419 6.37709 21.6425V21.6431C6.34655 21.636 6.31457 21.635 6.28194 21.6398C6.28843 21.6377 6.27169 21.6387 6.26459 21.6387H6.26248C6.25769 21.6381 6.25057 21.6377 6.24826 21.6371C6.2123 21.6283 6.20917 21.6245 6.18072 21.6065C6.14371 21.5827 6.10459 21.539 6.07845 21.4944C6.00944 21.3748 5.99418 21.2295 5.98874 21.094C5.97848 20.8279 6.00128 20.5623 6.05084 20.3018C6.09329 20.3191 6.13032 20.335 6.1918 20.3616C6.25266 20.3881 6.31581 20.4143 6.37731 20.4427V20.4433H6.37709Z" fill="white"/>
</svg>
