<svg width="32" height="32" viewBox="0 0 32 32" fill="none" xmlns="http://www.w3.org/2000/svg">
<path fill-rule="evenodd" clip-rule="evenodd" d="M15.9996 0.0302734C24.8192 0.0302734 31.9689 7.17996 31.9689 15.9996C31.9689 24.8192 24.8192 31.9689 15.9996 31.9689C7.17996 31.9689 0.0302734 24.8192 0.0302734 15.9996C0.0302734 7.17996 7.17996 0.0302734 15.9996 0.0302734Z" fill="#171717"/>
<path fill-rule="evenodd" clip-rule="evenodd" d="M15.9689 6.78711C21.0572 6.78711 25.182 10.912 25.182 16.0002C25.182 21.0884 21.0572 25.2132 15.9689 25.2132C10.8807 25.2132 6.75586 21.0884 6.75586 16.0002C6.75586 10.912 10.8807 6.78711 15.9689 6.78711Z" fill="black"/>
<path opacity="0.67" fill-rule="evenodd" clip-rule="evenodd" d="M16.2513 2.76251C16.1244 2.64576 16.059 2.64355 16.048 2.64355C16.037 2.64355 15.9715 2.64576 15.8447 2.76251C15.7144 2.88235 15.5588 3.08911 15.3911 3.40815C15.0563 4.04493 14.7359 5.00743 14.4597 6.24937C14.1492 7.64599 13.9038 9.35305 13.749 11.264C14.4967 11.6258 15.2656 12.0191 16.0478 12.4414C16.8301 12.019 17.5991 11.6256 18.3469 11.2638C18.1921 9.35296 17.9468 7.64596 17.6362 6.24937C17.3601 5.00743 17.0397 4.04493 16.7049 3.40815C16.5372 3.08911 16.3815 2.88235 16.2513 2.76251ZM15.3934 12.7999C14.819 12.4947 14.2531 12.206 13.699 11.9347C13.657 12.5499 13.6243 13.184 13.6015 13.8338C13.8946 13.6583 14.1919 13.4835 14.4933 13.3096C14.7946 13.1357 15.0948 12.9658 15.3934 12.7999ZM13.1458 10.9767C13.5945 5.73671 14.7247 2.01855 16.048 2.01855C17.3713 2.01855 18.5014 5.73662 18.9502 10.9766C23.7153 8.74505 27.5022 7.86424 28.1639 9.00952C28.8255 10.1548 26.1687 12.992 21.8523 16.0003C26.1687 19.0087 28.8255 21.8459 28.1639 22.9911C27.5022 24.1364 23.7153 23.2556 18.9502 21.0241C18.5014 26.264 17.3713 29.9821 16.048 29.9821C14.7247 29.9821 13.5945 26.264 13.1458 21.0239C8.38055 23.2555 4.59336 24.1365 3.93171 22.9911C3.27005 21.8459 5.92689 19.0087 10.2433 16.0003C5.92689 12.992 3.27005 10.1548 3.93171 9.00952C4.59336 7.86421 8.38055 8.74511 13.1458 10.9767ZM10.794 15.6217C9.21536 14.5322 7.85864 13.4662 6.80358 12.499C5.86539 11.639 5.19152 10.8804 4.80705 10.2723C4.61445 9.96761 4.51314 9.72952 4.47442 9.55699C4.43671 9.38896 4.46752 9.33143 4.47289 9.32218C4.47827 9.31283 4.51286 9.25727 4.67752 9.20583C4.84655 9.15302 5.10364 9.12168 5.46405 9.13602C6.18336 9.16468 7.17773 9.36865 8.39208 9.75061C9.75767 10.1802 11.3597 10.8213 13.093 11.6428C13.0327 12.4707 12.9891 13.3327 12.964 14.2207C12.2068 14.6866 11.4815 15.1554 10.794 15.6217ZM10.794 16.379C9.21536 17.4685 7.85864 18.5345 6.80358 19.5016C5.86539 20.3616 5.19152 21.1202 4.80705 21.7284C4.61445 22.033 4.51314 22.2711 4.47442 22.4437C4.43671 22.6117 4.46752 22.6692 4.47289 22.6785C4.47824 22.6878 4.5128 22.7434 4.67752 22.7948C4.84655 22.8476 5.10364 22.879 5.46405 22.8646C6.18336 22.836 7.17773 22.632 8.39208 22.25C9.75767 21.8205 11.3597 21.1793 13.093 20.3579C13.0327 19.5299 12.9891 18.6679 12.964 17.7799C12.2068 17.3141 11.4815 16.8453 10.794 16.379ZM12.9474 17.0344C12.3956 16.6898 11.8624 16.3443 11.3502 16.0003C11.8624 15.6563 12.3956 15.3109 12.9474 14.9663C12.9419 15.3077 12.9391 15.6526 12.9391 16.0003C12.9391 16.3481 12.9419 16.6929 12.9474 17.0344ZM13.5801 17.4241C13.5695 16.9563 13.5641 16.4813 13.5641 16.0003C13.5641 15.5193 13.5695 15.0444 13.5801 14.5766C13.9801 14.3335 14.3889 14.0914 14.8056 13.8509C15.2226 13.6104 15.637 13.3776 16.0478 13.1528C16.4586 13.3776 16.873 13.6104 17.2899 13.8509C17.7068 14.0915 18.1157 14.3337 18.5158 14.5768C18.5264 15.0445 18.5319 15.5194 18.5319 16.0003C18.5319 16.4812 18.5264 16.9561 18.5158 17.4238C18.1157 17.667 17.7068 17.9092 17.2899 18.1497C16.873 18.3903 16.4586 18.6231 16.0478 18.8479C15.637 18.6231 15.2226 18.3903 14.8057 18.1497C14.3889 17.9093 13.9801 17.6671 13.5801 17.4241ZM13.6015 18.1669C13.6243 18.8166 13.657 19.4508 13.699 20.066C14.2531 19.7947 14.819 19.506 15.3934 19.2008C15.0948 19.0349 14.7946 18.865 14.4933 18.6911C14.1919 18.5172 13.8946 18.3424 13.6015 18.1669ZM16.0478 19.5592C15.2656 19.9816 14.4967 20.3749 13.749 20.7367C13.9038 22.6476 14.1492 24.3547 14.4597 25.7513C14.7359 26.9932 15.0563 27.9557 15.3911 28.5925C15.5588 28.9115 15.7144 29.1183 15.8447 29.2381C15.9715 29.3549 16.037 29.3571 16.048 29.3571C16.059 29.3571 16.1244 29.3549 16.2513 29.2381C16.3815 29.1183 16.5372 28.9115 16.7049 28.5925C17.0397 27.9557 17.3601 26.9932 17.6362 25.7513C17.9468 24.3547 18.1921 22.6477 18.3469 20.7369C17.5991 20.375 16.8301 19.9816 16.0478 19.5592ZM19.0029 20.358C20.7361 21.1794 22.338 21.8205 23.7035 22.25C24.9178 22.632 25.9122 22.836 26.6315 22.8646C26.9919 22.879 27.249 22.8476 27.4181 22.7948C27.5828 22.7434 27.6173 22.6878 27.6227 22.6785C27.628 22.6693 27.6589 22.6118 27.6212 22.4437C27.5824 22.2711 27.4811 22.033 27.2885 21.7284C26.9041 21.1202 26.2302 20.3616 25.292 19.5016C24.2369 18.5345 22.8802 17.4685 21.3016 16.379C20.6142 16.8452 19.889 17.314 19.132 17.7797C19.1069 18.6678 19.0633 19.53 19.0029 20.358ZM21.3016 15.6217C22.8802 14.5322 24.2369 13.4662 25.292 12.499C26.2302 11.639 26.9041 10.8804 27.2885 10.2723C27.4811 9.96761 27.5824 9.72952 27.6212 9.55699C27.6589 9.3889 27.628 9.3314 27.6227 9.32218C27.6173 9.31287 27.5828 9.2573 27.4181 9.20583C27.249 9.15302 26.9919 9.12168 26.6315 9.13602C25.9122 9.16468 24.9178 9.36865 23.7035 9.75061C22.338 10.1801 20.7361 10.8212 19.0029 11.6426C19.0633 12.4707 19.1069 13.3328 19.132 14.221C19.889 14.6867 20.6142 15.1555 21.3016 15.6217ZM19.1485 14.9666C19.7002 15.3111 20.2333 15.6564 20.7453 16.0003C20.2333 16.3442 19.7002 16.6896 19.1485 17.0341C19.1541 16.6928 19.1569 16.348 19.1569 16.0003C19.1569 15.6526 19.1541 15.3079 19.1485 14.9666ZM18.4944 13.834C18.4717 13.1841 18.439 12.5499 18.397 11.9345C17.8428 12.2058 17.2767 12.4946 16.7022 12.7999C17.0008 12.9658 17.3009 13.1357 17.6023 13.3096C17.9038 13.4835 18.2013 13.6584 18.4944 13.834ZM18.397 20.0661C17.8428 19.7948 17.2767 19.5061 16.7022 19.2008C17.0008 19.0349 17.3009 18.865 17.6023 18.6911C17.9038 18.5171 18.2013 18.3422 18.4944 18.1666C18.4717 18.8165 18.439 19.4508 18.397 20.0661Z" fill="white"/>
<path fill-rule="evenodd" clip-rule="evenodd" d="M7.11112 12.084C7.65415 12.084 8.09434 12.5244 8.09434 13.0676C8.09434 13.6109 7.65415 14.0513 7.11112 14.0513C6.56812 14.0513 6.12793 13.6109 6.12793 13.0676C6.12793 12.5244 6.56812 12.084 7.11112 12.084Z" fill="white"/>
<path fill-rule="evenodd" clip-rule="evenodd" d="M22.7366 8.71582C23.2799 8.71582 23.7203 9.15623 23.7203 9.69951C23.7203 10.2428 23.2799 10.6832 22.7366 10.6832C22.1933 10.6832 21.7529 10.2428 21.7529 9.69951C21.7529 9.15623 22.1933 8.71582 22.7366 8.71582Z" fill="white"/>
<path fill-rule="evenodd" clip-rule="evenodd" d="M14.0667 24.1553C14.61 24.1553 15.0504 24.5955 15.0504 25.1385C15.0504 25.6815 14.61 26.1217 14.0667 26.1217C13.5234 26.1217 13.083 25.6815 13.083 25.1385C13.083 24.5955 13.5234 24.1553 14.0667 24.1553Z" fill="white"/>
<path fill-rule="evenodd" clip-rule="evenodd" d="M15.9926 14.3271C16.9124 14.3271 17.658 15.0728 17.658 15.9926C17.658 16.9124 16.9124 17.658 15.9926 17.658C15.0728 17.658 14.3271 16.9124 14.3271 15.9926C14.3271 15.0728 15.0728 14.3271 15.9926 14.3271Z" fill="white"/>
</svg>
