<svg width="118" height="23" viewBox="0 0 118 23" fill="none" xmlns="http://www.w3.org/2000/svg">
<path d="M105.595 18.1692H109.855C110.019 18.7078 110.581 19.2466 111.634 19.2466C113.061 19.2466 113.553 18.3566 113.553 17.0455V16.1096H113.459C112.757 16.929 111.82 17.5377 110.44 17.5377C107.725 17.5377 105.361 15.5243 105.361 11.5923C105.361 7.98771 107.303 5.17917 110.229 5.17917C111.915 5.17917 112.945 5.85784 113.623 6.93457H113.693V5.55388H117.906V16.4607C117.906 18.4736 117.205 20.0418 116.151 20.9784C115.051 21.9611 113.482 22.3591 111.704 22.3591C108.357 22.3591 106.016 20.9784 105.595 18.1692V18.1692ZM113.74 11.3818C113.74 9.81337 112.991 8.54989 111.704 8.54989C110.463 8.54989 109.667 9.67307 109.667 11.3818C109.667 13.0671 110.463 14.2839 111.704 14.2839C112.991 14.2839 113.74 13.0438 113.74 11.3818ZM100.656 7.70733H100.726C101.639 5.9517 102.833 5.29637 104.354 5.29637C104.705 5.29637 104.939 5.3433 105.079 5.41334V9.27525H104.986C102.388 8.8074 100.867 10.048 100.867 12.8799V18.1461H96.4429V5.55412H100.656V7.70733V7.70733ZM0 0.498047H8.66047C10.2984 0.498047 11.5624 0.896099 12.4526 1.62146C13.4583 2.44068 13.9972 3.65794 13.9972 5.1089C13.9972 6.79426 13.3185 7.84764 11.9138 8.50272V8.57323C13.7399 9.18139 14.7923 10.8196 14.7923 12.8094C14.7923 14.7053 14.067 16.1796 12.873 17.0693C11.8671 17.7949 10.5566 18.1461 8.8246 18.1461H0V0.498047ZM8.23931 14.237C9.29245 14.237 10.0643 13.605 10.0643 12.4351C10.0643 11.2176 9.22171 10.6328 8.21597 10.6328H4.79856V14.237H8.23931ZM7.79457 7.40242C8.73051 7.40242 9.40918 6.88788 9.40918 5.85784C9.40918 4.85163 8.70717 4.35996 7.77122 4.35996H4.79856V7.40242H7.79457V7.40242Z" fill="#030405"/>
<path d="M15.5918 0.495117H20.1324V18.1431H15.5918V0.495117ZM20.9992 11.87C20.9992 7.89116 23.5738 5.19959 27.5522 5.19959C31.5316 5.19959 34.0595 7.89116 34.0595 11.87C34.0595 15.8727 31.5316 18.5405 27.5522 18.5405C23.5738 18.5405 20.9992 15.8727 20.9992 11.87V11.87ZM29.5656 11.87C29.5656 9.67014 28.8629 8.28921 27.5055 8.28921C26.1484 8.28921 25.4931 9.67014 25.4931 11.87C25.4931 14.0938 26.1484 15.4747 27.5055 15.4747C28.8629 15.4747 29.5656 14.0938 29.5656 11.87ZM34.5762 11.87C34.5762 7.89116 37.1508 5.19959 41.1292 5.19959C45.1085 5.19959 47.6364 7.89116 47.6364 11.87C47.6364 15.8727 45.1085 18.5405 41.1292 18.5405C37.1508 18.5405 34.5762 15.8727 34.5762 11.87ZM43.1425 11.87C43.1425 9.67014 42.4398 8.28921 41.0825 8.28921C39.7254 8.28921 39.0701 9.67014 39.0701 11.87C39.0701 14.0938 39.7254 15.4747 41.0825 15.4747C42.4398 15.4747 43.1425 14.0938 43.1425 11.87ZM48.5033 5.55095H52.7166V7.44642H52.7866C53.6292 5.97188 54.7757 5.17624 56.5785 5.17624C58.1697 5.17624 59.3639 5.97188 59.9725 7.3528H60.0423C61.0724 5.69079 62.4064 5.17624 63.9509 5.17624C66.8769 5.17624 68.1409 7.32945 68.1409 10.2318V18.1429H63.717V11.0275C63.717 9.73994 63.319 8.89738 62.1958 8.89738C61.0957 8.89738 60.5335 9.92741 60.5335 11.2852V18.1429H56.1106V11.0275C56.1106 9.73994 55.7126 8.89738 54.5894 8.89738C53.4884 8.89738 52.9274 9.92741 52.9274 11.2852V18.1429H48.5033V5.55095V5.55095ZM73.5509 16.5047H73.5044V18.1431H69.2912V0.495117H73.715V6.8616H73.785C74.6276 5.76177 75.7508 5.17624 77.3663 5.17624C80.5262 5.17624 82.3514 8.03147 82.3514 11.8236C82.3514 16.1067 80.3621 18.5643 77.0857 18.5643C75.7274 18.5643 74.3236 17.909 73.5509 16.5047ZM77.8575 11.7769C77.8575 9.74017 77.1091 8.42952 75.7741 8.42952C74.417 8.42952 73.5509 9.74017 73.5509 11.7769C73.5509 13.7893 74.417 15.1238 75.7741 15.1238C77.1324 15.1238 77.8575 13.8127 77.8575 11.7769ZM82.9143 11.8236C82.9143 7.89116 85.5123 5.15313 89.281 5.15313C91.1536 5.15313 92.605 5.73795 93.7049 6.79133C95.1563 8.1956 95.8116 10.3955 95.764 12.9939H87.3151C87.5025 14.5623 88.251 15.3577 89.5848 15.3577C90.3575 15.3577 91.0362 15.0068 91.3177 14.1643H95.5768C94.8283 17.0426 92.605 18.494 89.4452 18.494C85.5366 18.494 82.9143 15.8496 82.9143 11.8236ZM87.3151 10.5129H91.3411C91.2701 8.9917 90.4276 8.1956 89.3742 8.1956C88.1579 8.1956 87.4792 9.0615 87.3151 10.5129Z" fill="#030405"/>
</svg>
