<svg width="32" height="32" viewBox="0 0 32 32" fill="none" xmlns="http://www.w3.org/2000/svg">
<path fill-rule="evenodd" clip-rule="evenodd" d="M16 32C24.8366 32 32 24.8366 32 16C32 7.16344 24.8366 0 16 0C7.16344 0 0 7.16344 0 16C0 24.8366 7.16344 32 16 32Z" fill="#F3BA2F"/>
<path d="M18.0311 22.9411V25.2943L15.9707 26.5011L13.9709 25.2943V22.9411L15.9707 24.1479L18.0311 22.9411ZM7 14.7933L8.99978 16.0001V20.0438L12.4549 22.0954V24.4486L7 21.2506V14.7933ZM24.9404 14.7933V21.2506L19.4248 24.4486V22.0954L22.88 20.0438V16.0001L24.9404 14.7933ZM19.4248 11.5953L21.4852 12.8021V15.1553L18.0301 17.2069V21.311L16.0303 22.5177L14.0305 21.311V17.2069L10.4542 15.1553V12.8021L12.5146 11.5953L15.9697 13.6468L19.4248 11.5953ZM10.4551 16.8458L12.4549 18.0526V20.4059L10.4551 19.1991V16.8458ZM21.4862 16.8458V19.1991L19.4864 20.4059V18.0526L21.4862 16.8458ZM8.99978 9.54373L11.0602 10.7505L8.99978 11.9573V14.3106L7 13.1038V10.7505L8.99978 9.54373ZM22.9396 9.54373L25 10.7505V13.1038L22.9396 14.3106V11.9573L20.9398 10.7505L22.9396 9.54373ZM15.9697 9.54373L18.0301 10.7505L15.9697 11.9573L13.9699 10.7505L15.9697 9.54373ZM15.9697 5.5L21.4852 8.698L19.4854 9.9048L16.0303 7.85325L12.5146 9.9048L10.5148 8.698L15.9697 5.5Z" fill="white"/>
</svg>
