<svg width="32" height="32" viewBox="0 0 32 32" fill="none" xmlns="http://www.w3.org/2000/svg">
<path d="M11.6865 26.178C10.5457 27.3188 7.56833 27.8213 5.47659 28.0382C4.27291 28.1631 3.28878 27.179 3.41365 25.9754C3.63064 23.8838 4.13313 20.9066 5.27395 19.7658C7.11031 17.9295 10.0345 17.8763 11.8052 19.647C13.576 21.4177 13.5228 24.3418 11.6865 26.178Z" fill="#1E4DD8"/>
<path fill-rule="evenodd" clip-rule="evenodd" d="M11.4491 9.56251C14.7794 4.21127 21.1086 1.49488 27.2998 2.79145C27.9811 2.93412 28.5135 3.46642 28.6562 4.14766C29.954 10.3445 27.2268 16.678 21.8613 19.9994C21.7062 19.4113 21.398 18.8607 20.9479 18.4106L13.0035 10.4665C12.5622 10.0253 12.0242 9.72043 11.4491 9.56251ZM9.16276 15.7263L15.7804 22.3437C15.8053 22.3685 15.8309 22.3923 15.8571 22.415C15.8565 22.4144 15.8559 22.4138 15.8553 22.4132L9.28065 15.8389C9.24213 15.8004 9.20282 15.7628 9.16276 15.7263ZM23.8468 12.5719C22.4739 13.9447 20.248 13.9447 18.8751 12.5719C17.5022 11.199 17.5022 8.97322 18.8751 7.60039C20.248 6.22756 22.4739 6.22755 23.8468 7.60039C25.2196 8.97322 25.2196 11.199 23.8468 12.5719Z" fill="#1E4DD8"/>
<g filter="url(#filter0_f_2289_44385)">
<path fill-rule="evenodd" clip-rule="evenodd" d="M21.8611 19.9996C21.7061 19.4112 21.3979 18.8603 20.9476 18.4101L13.0032 10.466C12.5622 10.025 12.0246 9.72029 11.4499 9.56229C11.3943 9.65162 11.3395 9.74168 11.2856 9.83247L9.47884 13.3033C9.142 13.8707 9.23278 14.5942 9.69934 15.0607L16.388 21.7491C16.8539 22.2149 17.5761 22.3059 18.143 21.9702L21.6085 20.1525C21.6934 20.1023 21.7776 20.0513 21.8611 19.9996Z" fill="#1E4DD8"/>
</g>
<g filter="url(#filter1_i_2289_44385)">
<path d="M18.2933 29.5726L21.6482 22.383C22.2732 21.0435 21.9935 19.456 20.9482 18.4107L13.0038 10.4667C11.9585 9.42147 10.371 9.14176 9.03133 9.76685L1.93705 13.0771C1.26329 13.3915 1.10678 14.2798 1.63252 14.8055C1.85267 15.0256 2.15771 15.1391 2.46823 15.1164L6.53867 14.8188C7.55761 14.7443 8.55856 15.1167 9.28098 15.8391L15.8557 22.4134C16.6222 23.1799 16.9922 24.2571 16.8585 25.3327L16.3993 29.0278C16.3614 29.333 16.4664 29.6387 16.6839 29.8562C17.1734 30.3457 18.0006 30.2 18.2933 29.5726Z" fill="#9EB3EE" fill-opacity="0.4"/>
</g>
<defs>
<filter id="filter0_f_2289_44385" x="5.76103" y="6.04698" width="19.6156" height="19.6399" filterUnits="userSpaceOnUse" color-interpolation-filters="sRGB">
<feFlood flood-opacity="0" result="BackgroundImageFix"/>
<feBlend mode="normal" in="SourceGraphic" in2="BackgroundImageFix" result="shape"/>
<feGaussianBlur stdDeviation="1.75776" result="effect1_foregroundBlur_2289_44385"/>
</filter>
<filter id="filter1_i_2289_44385" x="1.31851" y="9.22129" width="20.8752" height="20.9272" filterUnits="userSpaceOnUse" color-interpolation-filters="sRGB">
<feFlood flood-opacity="0" result="BackgroundImageFix"/>
<feBlend mode="normal" in="SourceGraphic" in2="BackgroundImageFix" result="shape"/>
<feColorMatrix in="SourceAlpha" type="matrix" values="0 0 0 0 0 0 0 0 0 0 0 0 0 0 0 0 0 0 127 0" result="hardAlpha"/>
<feOffset dx="0.215725" dy="-0.215725"/>
<feGaussianBlur stdDeviation="0.359542"/>
<feComposite in2="hardAlpha" operator="arithmetic" k2="-1" k3="1"/>
<feColorMatrix type="matrix" values="0 0 0 0 1 0 0 0 0 1 0 0 0 0 1 0 0 0 0.6 0"/>
<feBlend mode="normal" in2="shape" result="effect1_innerShadow_2289_44385"/>
</filter>
</defs>
</svg>
