<svg width="34" height="34" viewBox="0 0 34 34" fill="none" xmlns="http://www.w3.org/2000/svg">
<path d="M16.7174 0C25.9044 0 33.3528 7.44826 33.3528 16.6354C33.3528 25.8225 25.9041 33.2708 16.7174 33.2708C7.53069 33.2708 0.0820312 25.8244 0.0820312 16.6354C0.0820312 7.44639 7.52936 0 16.7174 0Z" fill="#53AE94"/>
<path d="M18.7704 14.4191V11.9445H24.4295V8.17383H9.01965V11.9445H14.6793V14.4172C10.0797 14.6285 6.62109 15.5393 6.62109 16.6306C6.62109 17.7219 10.0813 18.6328 14.6793 18.8454V26.772H18.7716V18.8448C23.3629 18.633 26.8144 17.7227 26.8144 16.6323C26.8144 15.542 23.3629 14.6318 18.7716 14.4198L18.7704 14.4191ZM18.7717 18.1734V18.1714C18.6563 18.1787 18.063 18.2143 16.7422 18.2143C15.6862 18.2143 14.9432 18.1843 14.6814 18.1708V18.1741C10.6177 17.9942 7.58435 17.2864 7.58435 16.4396C7.58435 15.5929 10.618 14.8863 14.6814 14.7059V17.469C14.9476 17.4874 15.7088 17.5322 16.7595 17.5322C18.0215 17.5322 18.6559 17.4797 18.7724 17.469V14.7059C22.8281 14.8865 25.8544 15.5949 25.8544 16.4387C25.8544 17.2824 22.8267 17.9911 18.7724 18.1717" fill="white"/>
</svg>
