<svg width="32" height="32" viewBox="0 0 32 32" fill="none" xmlns="http://www.w3.org/2000/svg">
<path d="M5.6582 6.02441H26.0826V26.4488H5.6582V6.02441Z" fill="white"/>
<path fill-rule="evenodd" clip-rule="evenodd" d="M13.3092 0.164098C7.36327 1.26829 2.58255 5.43159 0.772917 11.0808C-2.44494 21.1268 4.7711 31.5403 15.2548 31.9798C16.3648 32.0264 17.5043 31.9909 18.2074 31.8879C26.1951 30.7177 32 24.0245 32 15.9851C32 8.51405 26.8645 2.02571 19.6282 0.354143C17.9929 -0.0235976 14.8316 -0.118689 13.3092 0.164098ZM13.3242 8.89068C13.1457 10.4117 12.2181 11.8991 10.8962 12.7835C10.1604 13.276 9.70355 13.4393 8.30884 13.709L7.86054 13.7956V10.9512V8.10687H10.6384H13.4161L13.3242 8.89068ZM24.2064 10.9403V13.7046L21.4821 13.742L18.7578 13.7795V19.3081V24.8366L16.0335 24.7992L13.3092 24.7617V18.5421C13.3092 12.4158 13.3139 12.3109 13.6188 11.556C14.2165 10.077 15.9042 8.62987 17.4636 8.25932C17.7581 8.18938 19.3958 8.14198 21.1028 8.154L24.2064 8.17598V10.9403Z" fill="#2E69FB"/>
</svg>
