<svg width="32" height="33" viewBox="0 0 32 33" fill="none" xmlns="http://www.w3.org/2000/svg">
<path fill-rule="evenodd" clip-rule="evenodd" d="M16 32.5037C24.8366 32.5037 32 25.3395 32 16.5019C32 7.66428 24.8366 0.5 16 0.5C7.16344 0.5 0 7.66428 0 16.5019C0 25.3395 7.16344 32.5037 16 32.5037Z" fill="black"/>
<g clip-path="url(#clip0)">
<path d="M23.7087 23.3402L21.1268 12.2604L21.1222 12.2375L15.9817 5.19507L10.9436 12.2146L10.9297 12.2329L8.29199 23.3356L15.9771 27.8088L23.5365 23.4366L23.5412 23.4457L23.5365 23.4366L23.7087 23.3402ZM17.1028 23.3953L15.9817 26.8867L14.9211 23.3953H17.1028ZM11.367 12.3384L15.7677 6.19982V10.4666L12.5346 16.0133L11.367 12.3384ZM12.2369 16.5226L9.07352 21.9409L11.1437 13.0863L12.2369 16.5226ZM12.4369 17.0915L14.307 22.9824H8.97118L12.4369 17.0915ZM16.1911 6.19064L20.6756 12.3384L19.4754 16.0684L16.1911 10.4712V6.19064ZM19.587 17.0869L20.4709 18.5871L23.0527 22.9869H17.6843L19.587 17.0869ZM20.8849 13.0863L22.9736 22.0143L20.8291 18.3715L19.7731 16.5731L20.8849 13.0863ZM22.7503 23.3998L16.3492 27.1298L17.5541 23.3998H22.7503ZM19.3032 16.6006L17.2424 22.9869H14.7443L12.7021 16.5501L15.9771 10.9391L19.3032 16.6006ZM9.27356 23.3953H14.4373L15.6235 27.1252L9.27356 23.3953Z" fill="white"/>
</g>
<defs>
<clipPath id="clip0">
<rect width="15.4167" height="22.6138" fill="white" transform="translate(8.29199 5.19507)"/>
</clipPath>
</defs>
</svg>
