<svg width="70" height="19" viewBox="0 0 70 19" fill="none" xmlns="http://www.w3.org/2000/svg">
<path d="M25.042 10.7749C24.7887 8.58562 23.8479 6.97534 22.3281 6.08879C20.6274 5.09368 18.0401 5.02131 16.1946 5.94405C14.8738 6.61349 13.7882 7.89808 13.2997 9.36361C12.8112 10.8834 12.8112 12.8736 13.2997 14.4296C13.6254 15.4247 14.0415 16.1485 14.711 16.8179C15.5071 17.614 16.5565 18.1206 17.7506 18.2834C18.1848 18.3377 19.5237 18.3558 19.976 18.2834C20.1931 18.2472 20.555 18.1749 20.7902 18.1025C22.9614 17.4693 24.445 15.8047 24.9516 13.4164C25.0782 12.8556 25.1144 11.4443 25.042 10.7749ZM21.333 13.4164C21.1702 15.7142 20.6636 16.9626 19.7408 17.3969C19.397 17.5597 18.8 17.5597 18.4743 17.415C17.6601 17.0531 17.0812 15.9314 16.8098 14.1582C16.6288 13.0365 16.6107 10.5397 16.7736 9.32743C17.0088 7.6086 17.4973 6.59539 18.2753 6.25163C18.8 6.01642 19.5237 6.16116 19.9941 6.5773C21.0435 7.51813 21.5682 10.1959 21.333 13.4164Z" fill="#030405"/>
<path d="M7.23516 2.07721H8.79116C10.5824 2.07721 10.8718 2.1134 11.5051 2.42098C12.4278 2.8733 13.0973 3.75985 13.6763 5.29775C13.9115 5.93101 13.9115 5.93101 14.4362 5.76817L14.7799 5.65961L14.7437 3.3799C14.7256 2.13149 14.6895 1.00973 14.6714 0.901171L14.6352 0.702148H7.83223C4.08699 0.702148 0.956914 0.702148 0.86645 0.720241L0.703613 0.738334L0.721706 1.13638L0.739799 1.53442L1.2464 1.62489C1.91584 1.69726 2.31388 1.89628 2.56719 2.24005C3.10997 3.01804 3.20044 4.08553 3.20044 9.15155C3.20044 14.5432 3.09188 15.864 2.56719 16.5335C2.29579 16.8772 2.07868 17.0039 1.48161 17.1124C0.68552 17.2572 0.721706 17.2391 0.721706 17.6552C0.721706 17.8904 0.739799 17.999 0.775985 18.0171C0.86645 18.0533 9.56915 18.0533 9.65962 18.0171C9.78627 17.9628 9.76818 17.3296 9.65962 17.2572C9.60534 17.2391 9.31585 17.1667 9.00827 17.1305C8.70069 17.0763 8.35693 17.0039 8.24837 16.9677C7.6694 16.7144 7.36181 16.0269 7.23516 14.7965C7.1447 13.91 7.09042 12.2635 7.09042 11.0513V9.92955L7.61512 9.94764C8.73688 9.98382 9.33395 10.0381 9.56915 10.1467C10.0758 10.3638 10.4919 10.997 10.709 11.8836L10.8176 12.354L11.2156 12.3721L11.6137 12.3902V9.42294V6.4557L11.2156 6.47379L10.8176 6.49189L10.6909 6.9623C10.4557 7.86695 10.0938 8.42783 9.55106 8.68113C9.33395 8.78969 9.17111 8.80778 8.64641 8.84397C8.28456 8.86206 7.79605 8.88016 7.54274 8.88016H7.09042V7.41463C7.09042 5.9491 7.16279 2.81902 7.21707 2.33051L7.23516 2.07721Z" fill="#030405"/>
<path d="M69.0226 12.5303C68.6065 11.698 67.8466 11.1371 66.2363 10.4677C64.9336 9.92492 64.2823 9.54497 63.8661 9.11074C63.5405 8.74888 63.45 8.45939 63.4862 7.9347C63.5224 7.44619 63.6309 7.1567 63.9385 6.83103C64.3366 6.41489 64.8793 6.27015 65.5307 6.3968C66.5982 6.61391 67.2857 7.35572 67.8647 8.92981C68.0818 9.49069 68.0999 9.50878 68.4798 9.36404L68.715 9.27358V8.64032C68.715 8.29656 68.697 7.55475 68.6789 6.99387L68.6427 5.98066L68.4617 5.90829C67.4847 5.49215 65.6212 5.23885 64.4089 5.34741C63.0339 5.47406 62.0207 5.90829 61.2427 6.72247C60.4647 7.51856 60.1209 8.45939 60.1752 9.58116C60.2295 10.5039 60.5009 11.1733 61.0617 11.7523C61.5864 12.2951 62.0388 12.5484 63.3053 13.0369C65.3498 13.833 65.8925 14.3034 65.8925 15.2985C65.8925 16.1308 65.4402 16.746 64.6441 17.0174C64.3546 17.1259 63.6309 17.1259 63.2329 17.0174C62.2197 16.746 61.4417 15.8594 60.7722 14.231L60.6094 13.8149L60.4104 13.833C60.3018 13.833 60.1571 13.8692 60.0666 13.9054L59.9219 13.9777L59.94 14.7015C59.94 15.0995 59.9581 15.9318 59.9762 16.5469L60.0123 17.6687L60.2476 17.7592C60.718 17.9582 62.1111 18.2658 62.9977 18.3562C63.1062 18.3743 63.7033 18.3743 64.3366 18.3562C65.4221 18.3381 65.4945 18.3381 66.0373 18.1934C67.6476 17.7773 68.6789 16.8726 69.1493 15.5156C69.294 15.0995 69.3121 14.9729 69.3302 14.3396C69.3664 13.4892 69.294 13.0731 69.0226 12.5303Z" fill="#030405"/>
<path d="M59.2326 10.4212C58.9974 8.19579 58.1109 6.67598 56.573 5.91608C55.216 5.22855 53.1172 5.28283 51.5974 6.02464C50.15 6.73026 49.1549 7.9063 48.594 9.57085C48.3045 10.4393 48.214 11.1449 48.2502 12.2667C48.2683 12.9723 48.3045 13.3523 48.3769 13.678C48.9559 16.2291 50.6928 17.966 53.1534 18.4002C53.6962 18.4907 54.9084 18.4907 55.4693 18.4002C56.2473 18.2555 57.152 17.9117 57.7128 17.5317C58.4004 17.0613 59.106 16.3557 59.106 16.1386C59.106 16.0119 58.8708 15.7044 58.7622 15.7044C58.726 15.7044 58.527 15.8129 58.328 15.9215C57.6586 16.3557 57.0072 16.5366 56.1026 16.5366C54.8723 16.5366 54.0762 16.2291 53.2982 15.433C52.9544 15.0892 52.8097 14.8902 52.6287 14.5464C52.2307 13.7865 52.0136 12.9 51.9774 11.8867L51.9593 11.4525L55.6141 11.4344L59.2688 11.4163L59.2869 11.163C59.2869 11.0907 59.2688 10.7288 59.2326 10.4212ZM55.1255 10.3127C54.0943 10.3669 51.8869 10.4031 51.8507 10.3488C51.8145 10.2946 51.905 9.40802 51.9955 8.95569C52.2126 7.85202 52.5744 7.07403 53.0449 6.58552C53.2982 6.33222 53.4248 6.24175 53.6419 6.18747C53.7867 6.15129 53.9495 6.1151 54.0038 6.1151C54.239 6.1151 54.4923 6.22366 54.6913 6.42268C55.2341 6.91119 55.5236 7.97867 55.596 9.53467L55.6322 10.3127H55.1255Z" fill="#030405"/>
<path d="M33.9425 5.27539C33.3635 5.27539 33.0559 5.34776 32.6036 5.54678C31.7533 5.92674 31.12 6.55999 30.5591 7.59129L30.3782 7.91696L30.3963 7.35608C30.4144 7.0485 30.4325 6.46952 30.4506 6.05339L30.4687 5.32967H30.342C30.1792 5.32967 25.2941 6.30669 25.1493 6.36097C25.0589 6.39715 25.0408 6.45143 25.0408 6.68664C25.0408 6.92185 25.0589 6.95803 25.1493 6.97613C25.2036 6.99422 25.4388 7.03041 25.6559 7.06659C26.0902 7.15706 26.2168 7.21134 26.3977 7.44654C26.7234 7.88077 26.7958 8.64068 26.7958 11.8974C26.7958 14.5571 26.7415 15.8779 26.6149 16.294C26.452 16.8006 26.1806 17.0539 25.7102 17.1444C25.5474 17.1805 25.3484 17.2167 25.2579 17.2348L25.077 17.271L25.0589 17.6148C25.0408 17.85 25.0589 17.9766 25.1131 17.9947C25.1493 18.0128 26.8139 18.0309 28.8222 18.0309L32.477 18.0128L32.4951 17.6329C32.4951 17.4158 32.4951 17.2529 32.477 17.2529C32.1875 17.2529 31.319 17.1263 31.1924 17.072C30.7762 16.8911 30.5772 16.5292 30.4867 15.7874C30.3782 14.9008 30.3239 12.7116 30.3601 10.9204C30.3963 9.11109 30.3963 9.093 30.5048 8.98444C30.7762 8.69496 31.4457 8.47784 32.0427 8.47784C32.5312 8.47784 33.0198 8.60449 33.5445 8.85779C33.7978 8.98444 34.033 9.07491 34.0691 9.05682C34.1415 9.03872 35.3357 5.87246 35.3357 5.70962C35.2995 5.49251 34.6119 5.27539 33.9425 5.27539Z" fill="#030405"/>
<path d="M47.1454 9.74077C46.6569 7.47915 45.2456 5.92316 43.3458 5.54321C43.0564 5.48893 42.785 5.47084 42.2241 5.48893C41.3737 5.52511 40.7947 5.65176 40.1434 5.94125C39.9263 6.03172 39.7453 6.12218 39.7273 6.12218C39.7092 6.12218 39.7092 4.83758 39.7273 3.2635C39.7815 1.03806 39.7634 0.386719 39.7273 0.386719C39.5644 0.386719 34.5346 1.34564 34.4803 1.38183C34.4441 1.41802 34.426 1.52657 34.426 1.68941C34.4441 1.9608 34.4079 1.94271 35.0231 2.08746C35.204 2.12364 35.4211 2.21411 35.5116 2.26838C35.7106 2.41313 35.8916 2.7388 36.0001 3.19112C36.0906 3.55298 36.1087 3.80628 36.1449 6.21265C36.181 8.67329 36.181 11.2244 36.1087 15.8743L36.0725 17.8102L36.4343 17.9007C36.959 18.0273 38.4608 18.2625 38.9493 18.3168C39.673 18.3892 41.3375 18.3711 41.8803 18.2987C44.1962 17.955 45.9331 16.6161 46.7473 14.5535C46.9644 14.0107 47.1635 13.1603 47.2358 12.5452C47.3263 11.7853 47.272 10.3197 47.1454 9.74077ZM43.4725 13.3413C43.2373 14.7706 42.8392 15.8924 42.2603 16.598C41.9889 16.9418 41.5185 17.2674 41.1566 17.376C40.9214 17.4484 40.4148 17.4665 39.9806 17.4122C39.872 17.3941 39.7815 17.3579 39.7454 17.3217C39.6549 17.2132 39.5644 10.5188 39.6187 8.56473L39.6549 7.00873L40.0529 6.90018C40.6319 6.73734 41.2652 6.75543 41.6994 6.97255C42.5859 7.38869 43.183 8.43808 43.4906 10.1569C43.5991 10.7178 43.5811 12.6537 43.4725 13.3413Z" fill="#030405"/>
</svg>
