<svg width="32" height="33" viewBox="0 0 32 33" fill="none" xmlns="http://www.w3.org/2000/svg">
<mask id="mask0" mask-type="alpha" maskUnits="userSpaceOnUse" x="0" y="4" width="28" height="29">
<path fill-rule="evenodd" clip-rule="evenodd" d="M14 32.0293C21.732 32.0293 28 25.7613 28 18.0293C28 10.2973 21.732 4.0293 14 4.0293C6.26801 4.0293 0 10.2973 0 18.0293C0 25.7613 6.26801 32.0293 14 32.0293Z" fill="#6E70B1"/>
</mask>
<g mask="url(#mask0)">
<path d="M11.9149 1.68701H10.5568V13.6038L-0.291032 8.17993C-0.795037 8.66681 -1.10368 9.32113 -1.15886 10.0197L7.17227 14.1853H4.13488L-1.17188 11.5341V12.3021L2.61619 14.194H-1.17188V15.5521H11.928L11.9149 1.68701Z" fill="white"/>
<path d="M28.2572 27.0078C28.7757 26.5345 29.1029 25.8877 29.1771 25.1897L20.7505 20.9807H23.7879L29.1944 23.684V22.9246L25.2892 20.9807H29.1944V19.6226H16.0078V32.5284H17.366V21.5621L28.2572 27.0078Z" fill="white"/>
<path fill-rule="evenodd" clip-rule="evenodd" d="M17.7458 14.1806C18.2561 14.6966 18.8252 15.1543 19.4421 15.5431H16.0078V11.7629C16.4582 12.6583 17.046 13.4727 17.7436 14.1784L17.7391 14.1806H17.7458ZM16.3372 2.63721H16.0078V3.23713C16.1106 3.03283 16.2205 2.83275 16.3372 2.63721Z" fill="white"/>
<path d="M-1.18066 19.6182V20.9807H2.6074L-1.18066 22.8725V24.8859C-1.18066 24.9727 -1.18066 25.0551 -1.18066 25.1419L7.15047 20.9763H10.1879L-0.738073 26.4393C-0.615482 26.6353 -0.469803 26.816 -0.30416 26.9773L10.5437 21.5578V34.4251H11.9018V19.6182H-1.18066Z" fill="white"/>
<path fill-rule="evenodd" clip-rule="evenodd" d="M29.1932 15.7616C27.8088 16.5498 26.207 17 24.5 17C22.6413 17 20.9074 16.4662 19.443 15.5436H15.9936V11.7345C15.3577 10.4596 15 9.02156 15 7.5C15 5.97844 15.3577 4.54043 15.9936 3.26548V-0.213867H11.9148V15.5436H-1.18066V19.6181H11.9148V37.2766H15.9936V19.6181H29.1932V15.7616Z" fill="#FD605E"/>
<path d="M7.15926 14.1851L-1.17188 10.0195C-1.17188 10.0976 -1.17188 10.1801 -1.17188 10.2582V11.5295L4.13488 14.1808L7.15926 14.1851Z" fill="#FD605E"/>
<path fill-rule="evenodd" clip-rule="evenodd" d="M17.7317 14.1665C17.735 14.1698 17.7383 14.1732 17.7416 14.1765L17.7119 14.1764L17.7317 14.1665Z" fill="#FD605E"/>
<path d="M20.749 20.9805L29.1756 25.1938C29.1809 25.0926 29.1809 24.9912 29.1756 24.89V23.6837L23.7864 20.9805H20.749Z" fill="#FD605E"/>
<path d="M7.15926 20.9805L-1.17188 25.146C-1.13486 25.6087 -0.98595 26.0554 -0.737962 26.4478L10.201 20.9805H7.15926Z" fill="#FD605E"/>
<path d="M29.1935 22.92V20.9761H25.3057L29.1935 22.92Z" fill="#183EAD"/>
<path d="M29.1935 14.1851V12.2412L25.3057 14.1851H29.1935Z" fill="#183EAD"/>
<path d="M-0.282227 26.9772C0.251874 27.4873 0.962178 35.376 1.70076 35.3755H10.5569V21.5576L-0.282227 26.9772Z" fill="#183EAD"/>
<path d="M17.3516 21.5576V37.2766H26.3119C27.0322 37.2766 27.7262 27.5001 28.2558 27.0119L17.3516 21.5576Z" fill="#183EAD"/>
<path d="M10.5558 -0.214355H1.40895C0.769494 -0.149146 0.17048 7.73323 -0.291992 8.17963L10.5558 13.6035V-0.214355Z" fill="#183EAD"/>
<path d="M-1.18066 20.9761V22.8679L2.60306 20.9761H-1.18066Z" fill="#183EAD"/>
<path d="M-1.18066 12.2891V14.1853H2.60306L-1.18066 12.2891Z" fill="#183EAD"/>
</g>
<path fill-rule="evenodd" clip-rule="evenodd" d="M24.5 15C28.6421 15 32 11.6421 32 7.5C32 3.35786 28.6421 0 24.5 0C20.3579 0 17 3.35786 17 7.5C17 11.6421 20.3579 15 24.5 15Z" fill="#373D43"/>
<path d="M27.336 9.26567H26.7419C26.627 9.26567 26.512 9.38066 26.512 9.49564V10.588H23.5799V7.73258H25.4963C25.6113 7.73258 25.7263 7.63676 25.7263 7.50261V7.04268C25.7263 6.9277 25.6113 6.81272 25.4963 6.81272H23.5799V5.33712C23.5799 4.62806 24.0782 4.05315 24.9597 4.05315C25.458 4.05315 25.8987 4.28311 26.1287 4.41726C26.2245 4.49391 26.3587 4.47475 26.4353 4.37893L26.7994 3.919C26.8952 3.80402 26.8761 3.65071 26.7611 3.57406C26.4545 3.36325 25.8221 2.97998 24.9597 2.97998C23.4458 2.97998 22.3535 3.97649 22.3535 5.29879V6.81272H21.8169C21.6827 6.81272 21.5869 6.9277 21.5869 7.04268V7.50261C21.5869 7.63676 21.6827 7.73258 21.8169 7.73258H22.3535V10.588H21.6636C21.5294 10.588 21.4336 10.703 21.4336 10.8179V11.3354C21.4336 11.4695 21.5294 11.5653 21.6636 11.5653H27.336C27.451 11.5653 27.566 11.4695 27.566 11.3354V9.49564C27.566 9.38066 27.451 9.26567 27.336 9.26567Z" fill="white"/>
</svg>
