<svg width="24" height="21" viewBox="0 0 24 21" fill="none" xmlns="http://www.w3.org/2000/svg">
<path d="M21.5156 5.625C22.4531 4.92188 23.2969 4.07812 23.9531 3.09375C23.1094 3.46875 22.125 3.75 21.1406 3.84375C22.1719 3.23438 22.9219 2.29688 23.2969 1.125C22.3594 1.6875 21.2812 2.10938 20.2031 2.34375C19.2656 1.35938 18 0.796875 16.5938 0.796875C13.875 0.796875 11.6719 3 11.6719 5.71875C11.6719 6.09375 11.7188 6.46875 11.8125 6.84375C7.73438 6.60938 4.07812 4.64062 1.64062 1.6875C1.21875 2.39062 0.984375 3.23438 0.984375 4.17188C0.984375 5.85938 1.82812 7.35938 3.1875 8.25C2.39062 8.20312 1.59375 8.01562 0.9375 7.64062V7.6875C0.9375 10.0781 2.625 12.0469 4.875 12.5156C4.5 12.6094 4.03125 12.7031 3.60938 12.7031C3.28125 12.7031 3 12.6562 2.67188 12.6094C3.28125 14.5781 5.10938 15.9844 7.26562 16.0312C5.57812 17.3438 3.46875 18.1406 1.17188 18.1406C0.75 18.1406 0.375 18.0938 0 18.0469C2.15625 19.4531 4.73438 20.25 7.54688 20.25C16.5938 20.25 21.5156 12.7969 21.5156 6.28125C21.5156 6.04688 21.5156 5.85938 21.5156 5.625Z" fill="#1DA1F2"/>
</svg>
