<svg width="80" height="56" viewBox="0 0 80 56" fill="none" xmlns="http://www.w3.org/2000/svg">
<path d="M14.1055 25.4486C14.1055 11.3938 25.4992 0 39.5541 0V0C53.609 0 65.0027 11.3938 65.0027 25.4486V25.4486C65.0027 39.5035 53.609 50.8973 39.5541 50.8973V50.8973C25.4992 50.8973 14.1055 39.5035 14.1055 25.4486V25.4486Z" fill="#00A76A"/>
<path d="M33.1568 21.2219L33.5308 21.4407L33.8913 21.6503L45.3905 28.3726V22.0924L44.3181 21.468L38.9019 18.3051L33.5758 15.1924C33.5443 15.1742 33.5037 15.1742 33.4722 15.1924L28.1416 18.3051L33.1568 21.2219Z" fill="white"/>
<path d="M45.391 15.375L40.3804 18.3055L45.391 21.2314V15.375Z" fill="white"/>
<path d="M46.1304 22.5211V28.8059L51.515 31.9505V18.5789C51.515 18.5424 51.497 18.506 51.461 18.4878L46.1304 15.375V22.5211Z" fill="white"/>
<path d="M45.3914 29.2387L33.8921 22.521V28.8057L45.7068 35.7058C45.7383 35.724 45.7789 35.724 45.8104 35.7058L51.141 32.593L51.0194 32.5246L45.3914 29.2387Z" fill="white"/>
<path d="M33.1571 22.0924L27.7725 18.9478V32.3194C27.7725 32.3558 27.7905 32.3923 27.8265 32.4105L33.1571 35.5233V22.0924Z" fill="white"/>
<path d="M38.9028 32.5929L33.8921 29.667V35.5233L38.9028 32.5929Z" fill="white"/>
<path d="M15.2557 27.359C14.8435 28.1228 14.3093 28.8006 13.7029 29.3697C13.6998 29.5037 13.6982 29.6381 13.6982 29.7728C13.6982 37.4661 18.8134 43.9685 25.8316 46.0572C26.6173 46.291 27.0647 47.1176 26.8309 47.9033C26.737 48.2189 26.5475 48.4798 26.3034 48.664C25.8832 49.6934 25.2401 50.657 24.3362 51.4539C21.5671 53.8951 16.7483 54.3564 13.5923 52.3387C12.9948 51.9594 12.9311 51.8203 13.1796 51.1876C14.1228 48.7322 16.5322 46.8332 19.1832 46.0823C18.4891 45.5919 17.8277 45.0583 17.2029 44.4855C17.179 44.507 17.1542 44.5291 17.1285 44.5518C16.3099 45.3826 15.2943 46.0544 14.0883 46.4421C10.5739 47.5716 5.97294 46.0667 3.88764 42.955C3.49179 42.3683 3.48905 42.2153 3.96991 41.7349C6.28502 39.3867 10.3622 38.7619 13.5239 39.9634C13.1841 39.3924 12.872 38.803 12.5894 38.1971C12.5412 38.2046 12.4905 38.2119 12.4371 38.2192C11.2952 38.4567 10.0775 38.4526 8.85896 38.1064C5.30796 37.0976 2.31369 33.2939 2.30385 29.5481C2.29973 28.8404 2.38228 28.7116 3.04885 28.5784C5.69922 28.0282 8.69378 29.1027 10.7683 31.0282C10.7426 30.6131 10.7295 30.1945 10.7295 29.7728C10.7295 29.6147 10.7313 29.457 10.735 29.2998C10.1435 28.6266 9.65703 27.8369 9.33064 26.9316C8.07865 23.4589 9.42149 18.808 12.4583 16.615C13.0307 16.1989 13.1835 16.1908 13.6804 16.6545C16.4291 19.1808 17.0493 24.0416 15.2557 27.359Z" fill="#BCBFC1"/>
<path fill-rule="evenodd" clip-rule="evenodd" d="M9.50852 27.377C9.44497 27.2315 9.38568 27.0828 9.33089 26.9309C8.07891 23.4581 9.42174 18.8073 12.4585 16.6143C13.0309 16.1981 13.1837 16.19 13.6807 16.6537C16.4293 19.18 17.0496 24.0408 15.256 27.3583C14.8438 28.122 14.3096 28.7999 13.7032 29.3689C13.7001 29.5029 13.6985 29.6373 13.6985 29.7721C13.6985 37.4654 18.8137 43.9678 25.8318 46.0564C26.6176 46.2903 27.065 47.1168 26.8311 47.9026C26.7372 48.2181 26.5477 48.4791 26.3037 48.6633C25.8835 49.6926 25.2404 50.6562 24.3365 51.4531C21.5674 53.8943 16.7486 54.3556 13.5926 52.338C12.9951 51.9587 12.9314 51.8196 13.1799 51.1869C13.5469 50.2315 14.1359 49.3603 14.8747 48.6083C15.4275 48.0455 16.0643 47.5494 16.7548 47.1346C17.3472 46.7787 17.9792 46.4826 18.6316 46.2556C18.6574 46.2466 18.6831 46.2378 18.7089 46.229C18.7091 46.229 18.7093 46.2289 18.7095 46.2288C18.8664 46.1757 19.0245 46.1265 19.1835 46.0815C18.4894 45.5911 17.828 45.0576 17.2031 44.4847C17.1792 44.5063 17.1544 44.5284 17.1288 44.551C16.3102 45.3819 15.2946 46.0537 14.0886 46.4413C13.9546 46.4844 13.8191 46.5236 13.6822 46.5591C10.227 47.4538 5.8937 45.9473 3.88789 42.9542C3.49204 42.3676 3.4893 42.2146 3.97016 41.7342C4.7968 40.8957 5.84808 40.277 7.00213 39.8827C7.4736 39.7216 7.96221 39.5979 8.45967 39.5121C8.45968 39.5121 8.4597 39.5121 8.45971 39.5121C9.16283 39.3907 9.88362 39.3448 10.5986 39.3752C11.29 39.4047 11.976 39.5055 12.6354 39.6786C12.6728 39.6885 12.7101 39.6985 12.7473 39.7088C12.7746 39.7163 12.8018 39.724 12.829 39.7318C13.0648 39.7993 13.2969 39.8763 13.5242 39.9626C13.1844 39.3917 12.8723 38.8023 12.5897 38.1964C12.5415 38.2039 12.4907 38.2112 12.4374 38.2184C11.2954 38.4559 10.0778 38.4518 8.85922 38.1057C8.29251 37.9447 7.73998 37.7125 7.2115 37.4207C4.42851 35.8843 2.31237 32.6954 2.30411 29.5473C2.29998 28.8397 2.38254 28.7108 3.0491 28.5777C4.6021 28.2553 6.27327 28.4907 7.80829 29.1283C8.01784 29.2154 8.22486 29.3099 8.4287 29.4115C8.65285 29.5233 8.87316 29.6437 9.08876 29.7721C9.3065 29.9018 9.51943 30.0397 9.72667 30.1853C10.0934 30.443 10.4424 30.7247 10.7686 31.0275C10.7428 30.6123 10.7298 30.1937 10.7298 29.7721C10.7298 29.614 10.7316 29.4563 10.7353 29.299C10.243 28.7388 9.82355 28.098 9.50852 27.377ZM6.79002 26.3924C6.38862 24.4837 6.53134 22.4664 7.07885 20.6333C7.75453 18.3711 9.10534 16.1951 11.1066 14.7487C11.2615 14.6361 11.5027 14.465 11.7788 14.3249C12.0753 14.1746 12.5499 13.987 13.1505 14.0007C14.2606 14.026 15.0098 14.7386 15.2234 14.9417C15.2326 14.9505 15.2408 14.9582 15.2479 14.965C17.0874 16.6598 18.1208 19.0323 18.453 21.3875C18.7859 23.7478 18.4463 26.3008 17.2835 28.4525C16.9226 29.1213 16.4918 29.7358 16.0114 30.2888C16.2335 36.7088 20.5793 42.0894 26.489 43.8482L25.8318 46.0564L26.489 43.8482C28.4943 44.4451 29.6361 46.5545 29.0393 48.5598C28.8746 49.1134 28.5924 49.6036 28.2287 50.0089C27.688 51.1626 26.911 52.2548 25.8601 53.1813L25.8601 53.1814C24.0474 54.7794 21.6607 55.6595 19.3082 55.863C16.9563 56.0664 14.4364 55.6105 12.3556 54.2817C12.194 54.1791 11.9457 54.0174 11.7135 53.8118C11.4647 53.5914 11.1157 53.219 10.9077 52.6555C10.5231 51.6138 10.9102 50.6551 11.0206 50.3817C11.0253 50.37 11.0296 50.3595 11.0332 50.3503C11.1978 49.9234 11.3934 49.5127 11.6161 49.1193C10.2847 49.1208 8.95415 48.8889 7.71603 48.4714C5.47885 47.7168 3.35152 46.2906 1.97607 44.2399C1.86902 44.0812 1.70647 43.8341 1.57617 43.5533C1.43626 43.2517 1.26545 42.7708 1.30019 42.1711C1.36439 41.0626 2.10275 40.3388 2.31325 40.1324C2.32229 40.1235 2.33036 40.1156 2.33736 40.1087C3.00143 39.4368 3.76074 38.879 4.58224 38.4324C3.77282 37.7982 3.04788 37.0606 2.43044 36.2613C0.987122 34.3929 0.00768218 32.0264 0.000196544 29.5572C-0.000878765 29.3658 0.000848013 29.07 0.0481566 28.764C0.0989508 28.4354 0.223486 27.9405 0.584915 27.4608C1.25306 26.5739 2.26886 26.381 2.55846 26.326C2.57088 26.3236 2.58196 26.3215 2.59162 26.3196C3.98998 26.0311 5.41893 26.0817 6.79002 26.3924Z" fill="white"/>
<path d="M64.7438 27.3585C65.156 28.1223 65.6902 28.8001 66.2966 29.3692C66.2997 29.5032 66.3013 29.6376 66.3013 29.7724C66.3013 37.4656 61.1861 43.968 54.1679 46.0567C53.3822 46.2906 52.9348 47.1171 53.1687 47.9028C53.2626 48.2184 53.452 48.4793 53.6961 48.6635C54.1163 49.6929 54.7594 50.6565 55.6633 51.4534C58.4324 53.8946 63.2512 54.3559 66.4072 52.3382C67.0047 51.959 67.0684 51.8198 66.8199 51.1871C65.8767 48.7317 63.4673 46.8328 60.8163 46.0818C61.5104 45.5914 62.1718 45.0578 62.7966 44.485C62.8205 44.5065 62.8453 44.5286 62.871 44.5513C63.6896 45.3821 64.7052 46.0539 65.9112 46.4416C69.4256 47.5711 74.0266 46.0662 76.1119 42.9545C76.5077 42.3678 76.5105 42.2148 76.0296 41.7344C73.7145 39.3862 69.6373 38.7614 66.4756 39.9629C66.8154 39.3919 67.1275 38.8026 67.4101 38.1966C67.4583 38.2041 67.5091 38.2115 67.5624 38.2187C68.7043 38.4562 69.922 38.4521 71.1405 38.1059C74.6915 37.0971 77.6858 33.2934 77.6957 29.5476C77.6998 28.8399 77.6172 28.7111 76.9507 28.5779C74.3003 28.0277 71.3057 29.1023 69.2312 31.0277C69.2569 30.6126 69.27 30.194 69.27 29.7724C69.27 29.6142 69.2682 29.4566 69.2645 29.2993C69.856 28.6261 70.3425 27.8364 70.6689 26.9311C71.9209 23.4584 70.578 18.8076 67.5413 16.6145C66.9689 16.1984 66.8161 16.1903 66.3191 16.654C63.5704 19.1803 62.9502 24.0411 64.7438 27.3585Z" fill="#BCBFC1"/>
<path fill-rule="evenodd" clip-rule="evenodd" d="M70.4915 27.3774C70.555 27.232 70.6143 27.0833 70.6691 26.9314C71.9211 23.4586 70.5783 18.8078 67.5415 16.6147C66.9691 16.1986 66.8163 16.1905 66.3193 16.6542C63.5707 19.1805 62.9504 24.0413 64.744 27.3588C65.1562 28.1225 65.6904 28.8004 66.2968 29.3694C66.2999 29.5034 66.3015 29.6378 66.3015 29.7726C66.3015 37.4658 61.1863 43.9682 54.1682 46.0569C53.3824 46.2908 52.935 47.1173 53.1689 47.9031C53.2628 48.2186 53.4523 48.4796 53.6963 48.6638C54.1165 49.6931 54.7596 50.6567 55.6635 51.4536C58.4326 53.8948 63.2514 54.3561 66.4074 52.3385C67.0049 51.9592 67.0686 51.8201 66.8201 51.1874C66.4531 50.232 65.8641 49.3608 65.1253 48.6088C64.5725 48.046 63.9357 47.5499 63.2452 47.1351C62.6528 46.7791 62.0208 46.4831 61.3684 46.2561C61.3426 46.2471 61.3169 46.2383 61.2911 46.2295C61.2909 46.2294 61.2907 46.2294 61.2905 46.2293C61.1336 46.1762 60.9755 46.127 60.8165 46.082C61.5106 45.5916 62.172 45.058 62.7969 44.4852C62.8208 44.5068 62.8456 44.5289 62.8712 44.5515C63.6898 45.3823 64.7054 46.0541 65.9114 46.4418C66.0454 46.4849 66.1809 46.5241 66.3178 46.5595C69.773 47.4543 74.1063 45.9478 76.1121 42.9547C76.508 42.3681 76.5107 42.2151 76.0298 41.7346C75.2032 40.8962 74.1519 40.2775 72.9979 39.8832C72.5264 39.7221 72.0378 39.5984 71.5403 39.5125C71.5403 39.5125 71.5403 39.5125 71.5403 39.5125C70.8372 39.3912 70.1164 39.3453 69.4014 39.3757C68.71 39.4052 68.024 39.506 67.3646 39.6791C67.3272 39.6889 67.2899 39.699 67.2527 39.7093C67.2254 39.7168 67.1982 39.7245 67.171 39.7323C66.9352 39.7998 66.7031 39.8768 66.4758 39.9631C66.8156 39.3922 67.1277 38.8028 67.4103 38.1968C67.4585 38.2044 67.5093 38.2117 67.5626 38.2189C68.7046 38.4564 69.9222 38.4523 71.1408 38.1062C71.7075 37.9452 72.26 37.713 72.7885 37.4212C75.5715 35.8847 77.6876 32.6959 77.6959 29.5478C77.7 28.8402 77.6175 28.7113 76.9509 28.5782C75.3979 28.2557 73.7267 28.4912 72.1917 29.1288C71.9822 29.2158 71.7751 29.3104 71.5713 29.412C71.3471 29.5238 71.1268 29.6442 70.9112 29.7726C70.6935 29.9023 70.4806 30.0402 70.2733 30.1858C69.9066 30.4435 69.5576 30.7252 69.2314 31.0279C69.2572 30.6128 69.2702 30.1942 69.2702 29.7726C69.2702 29.6145 69.2684 29.4568 69.2647 29.2995C69.757 28.7393 70.1765 28.0985 70.4915 27.3774ZM73.21 26.3929C73.6114 24.4842 73.4687 22.4669 72.9211 20.6338C72.2455 18.3716 70.8947 16.1956 68.8934 14.7492C68.7385 14.6366 68.4973 14.4655 68.2212 14.3254C67.9247 14.175 67.4501 13.9875 66.8495 14.0012C65.7394 14.0265 64.9902 14.7391 64.7766 14.9422C64.7674 14.9509 64.7592 14.9587 64.7521 14.9655C62.9126 16.6603 61.8792 19.0328 61.547 21.388C61.2141 23.7483 61.5537 26.3013 62.7165 28.453C63.0774 29.1218 63.5082 29.7363 63.9886 30.2893C63.7665 36.7093 59.4207 42.0899 53.511 43.8487L54.1682 46.0569L53.511 43.8487C51.5057 44.4455 50.3639 46.555 50.9607 48.5603C51.1254 49.1139 51.4076 49.6041 51.7713 50.0093C52.312 51.1631 53.089 52.2553 54.1399 53.1818L54.1399 53.1819C55.9526 54.7799 58.3393 55.66 60.6918 55.8635C63.0437 56.0669 65.5636 55.611 67.6444 54.2822C67.806 54.1795 68.0543 54.0179 68.2865 53.8123C68.5353 53.5919 68.8843 53.2195 69.0923 52.656C69.4769 51.6143 69.0898 50.6556 68.9794 50.3822C68.9747 50.3705 68.9704 50.36 68.9668 50.3508C68.8022 49.9239 68.6066 49.5132 68.3839 49.1198C69.7153 49.1213 71.0459 48.8894 72.284 48.4718C74.5212 47.7173 76.6485 46.2911 78.0239 44.2404C78.131 44.0817 78.2935 43.8346 78.4238 43.5538C78.5637 43.2522 78.7345 42.7713 78.6998 42.1716C78.6356 41.0631 77.8973 40.3393 77.6867 40.1329C77.6777 40.124 77.6696 40.1161 77.6626 40.1092C76.9986 39.4373 76.2393 38.8794 75.4178 38.4328C76.2272 37.7987 76.9521 37.0611 77.5696 36.2618C79.0129 34.3934 79.9923 32.0269 79.9998 29.5577C80.0009 29.3663 79.9992 29.0705 79.9518 28.7645C79.901 28.4359 79.7765 27.941 79.4151 27.4613C78.7469 26.5744 77.7311 26.3814 77.4415 26.3265C77.4291 26.3241 77.418 26.322 77.4084 26.3201C76.01 26.0316 74.5811 26.0822 73.21 26.3929Z" fill="white"/>
</svg>
