<svg width="110" height="37" viewBox="0 0 110 37" fill="none" xmlns="http://www.w3.org/2000/svg">
<path d="M5.37926 29.153C6.38404 29.153 7.40743 28.7437 8.24475 28.2413V25.2642C7.16554 25.4688 6.04911 25.5619 4.93269 25.8038C4.03954 25.9898 3.3883 26.455 3.3883 27.4784C3.3883 28.7065 4.31865 29.153 5.37926 29.153ZM8.375 30.4741C7.44464 31.4603 6.10493 31.9999 4.80244 31.9999C2.17884 31.9999 0.225091 30.2323 0.150663 27.6459C0.0948418 25.2269 1.91834 23.6267 3.96512 23.3476L8.31918 22.715C8.22614 21.4311 6.19797 20.9659 5.30483 20.9659C4.16979 20.9659 2.77426 21.2636 1.78809 21.7474H1.43455V18.8075C2.69983 18.454 3.96512 18.1562 5.36065 18.1562C8.3936 18.1562 11.3521 19.2913 11.4638 22.6406V31.6836H8.375V30.4741Z" fill="#000100"/>
<path d="M21.1579 21.1892H20.7299C19.6135 20.7426 17.9575 21.2078 16.9341 21.8405V31.6836H13.7336V18.4354H16.841V19.2913C18.1807 18.6028 19.6135 18.1562 21.1579 18.1562V21.1892Z" fill="#000100"/>
<path d="M36.1925 23.571C36.1925 22.529 36.0622 21.1149 34.6667 21.1707C33.8294 21.1893 33.1223 21.8778 32.6013 22.4546V31.6837H29.4381V23.571C29.4381 22.5662 29.3451 21.1707 28.0053 21.1707C27.2238 21.1707 26.3307 21.7289 25.7725 22.2313V31.6837H22.5535V18.4355H25.6981V19.3286C26.3307 18.696 27.3355 18.1564 28.2472 18.1564C29.6056 18.1377 30.7592 18.696 31.5593 19.6635C32.4524 18.8634 33.6061 18.1191 34.89 18.1191C37.681 18.1191 39.3743 20.2962 39.3929 23.1058V31.6837H36.1739V23.571H36.1925Z" fill="#000100"/>
<path d="M45.868 29.153C46.8728 29.153 47.8962 28.7437 48.7335 28.2413V25.2642C47.6543 25.4688 46.5379 25.5619 45.4215 25.8038C44.5283 25.9898 43.8771 26.455 43.8771 27.4784C43.8771 28.7065 44.8074 29.153 45.868 29.153ZM48.8638 30.4741C47.9334 31.4603 46.5937 31.9999 45.2912 31.9999C42.6676 31.9999 40.7139 30.2323 40.6394 27.6459C40.5836 25.2269 42.4071 23.6267 44.4539 23.3476L48.8079 22.715C48.7149 21.4311 46.6867 20.9659 45.7936 20.9659C44.6586 20.9659 43.263 21.2636 42.2769 21.7474H41.9233V18.8075C43.1886 18.454 44.4539 18.1562 45.8494 18.1562C48.8824 18.1562 51.8409 19.2913 51.9525 22.6406V31.6836H48.8638V30.4741V30.4741Z" fill="#000100"/>
<path d="M65.8704 23.0871V31.6836H62.6699V23.4221C62.6886 22.1568 62.0931 21.1148 60.679 21.1148C59.6184 21.1148 58.2787 21.5986 57.3855 22.194V31.6836H54.1665V18.4354H57.2739V19.2913C58.4834 18.6772 59.8231 18.1562 61.1442 18.1562C63.9352 18.1562 65.8704 20.1286 65.8704 23.0871Z" fill="#000100"/>
<path d="M71.304 31.6836H68.085V18.4354H71.304V31.6836ZM71.3412 17.1515H68.1036V13.9883H71.3412V17.1515Z" fill="#000100"/>
<path d="M85.3895 23.0871V31.6836H82.1704V23.4221C82.189 22.1568 81.5936 21.1148 80.1795 21.1148C79.1189 21.1148 77.7792 21.5986 76.886 22.194V31.6836H73.667V18.4354H76.7744V19.2913C77.9838 18.6772 79.3235 18.1562 80.6447 18.1562C83.4543 18.1562 85.3895 20.1286 85.3895 23.0871Z" fill="#000100"/>
<path d="M93.3162 29.0962C95.1397 29.0962 96.3305 27.5332 96.3305 25.0585C96.3305 22.5838 95.121 21.0208 93.3162 21.0208C91.5299 21.0208 90.3018 22.5838 90.3018 25.0585C90.3018 27.5332 91.5113 29.0962 93.3162 29.0962ZM93.3348 18.1553C97.0748 18.1553 99.624 20.8533 99.624 25.0585C99.624 29.2637 97.0934 31.9617 93.3348 31.9617C89.5761 31.9617 86.9897 29.2637 86.9897 25.0585C86.9897 20.8533 89.5761 18.1553 93.3348 18.1553Z" fill="#000100"/>
<path d="M103.904 8.62882L100.312 0.534737C100.201 0.292845 99.9962 0.106774 99.7729 0.0323457C99.5496 -0.0420826 99.3449 0.0137386 99.2333 0.181202L90.7298 13.6527C90.5996 13.8574 90.6554 14.1923 90.8787 14.4342C91.0834 14.6947 91.3997 14.8064 91.6416 14.7319L103.904 8.62882Z" fill="#CC7C2D"/>
<path d="M100.554 16.8528C100.424 17.0017 100.424 17.2436 100.536 17.4669C100.647 17.7088 100.852 17.8948 101.075 17.9693L108.276 20.351C108.499 20.4254 108.686 20.3696 108.797 20.2207C108.909 20.0719 108.909 19.8486 108.816 19.6253L105.746 12.7593L100.554 16.8528Z" fill="#918F3C"/>
<path d="M109.653 7.08439C109.449 6.80528 109.114 6.67503 108.872 6.76807L103.904 8.62877L105.746 12.7595L109.746 7.9031C109.914 7.69842 109.877 7.36349 109.653 7.08439Z" fill="#000100"/>
</svg>
