<svg width="95" height="24" viewBox="0 0 95 24" fill="none" xmlns="http://www.w3.org/2000/svg">
<path d="M16.906 0.673828H8.11328V12.5358H19.9849V3.74307C19.9849 3.3392 19.9052 2.9393 19.7503 2.56629C19.5955 2.19328 19.3685 1.8545 19.0825 1.56937C18.7965 1.28424 18.457 1.05836 18.0835 0.904684C17.71 0.751009 17.3099 0.672558 16.906 0.673828Z" fill="#142533"/>
<path d="M5.37167 0.673874H3.85635C3.04234 0.673874 2.26167 0.99724 1.68607 1.57283C1.11048 2.14843 0.787109 2.9291 0.787109 3.74312L0.787109 5.25844H5.37167V0.673874Z" fill="#142533"/>
<path d="M0.787109 7.99933H5.37167V12.5839H0.787109V7.99933Z" fill="#142533"/>
<path d="M15.4395 19.8711H16.9548C17.3586 19.8711 17.7585 19.7914 18.1316 19.6366C18.5046 19.4817 18.8433 19.2548 19.1285 18.9688C19.4136 18.6827 19.6395 18.3432 19.7932 17.9698C19.9468 17.5963 20.0253 17.1961 20.024 16.7922V15.3252H15.4395V19.8711Z" fill="#142533"/>
<path d="M8.11328 15.3252H12.6978V19.9097H8.11328V15.3252Z" fill="#142533"/>
<path d="M0.787109 15.3252V16.8405C0.787109 17.6545 1.11048 18.4352 1.68607 19.0108C2.26167 19.5864 3.04234 19.9097 3.85635 19.9097H5.37167V15.3252H0.787109Z" fill="#142533"/>
<path d="M31.7015 1.89951H29.9062V18.6838H39.4132V17.0816H31.7015V1.89951Z" fill="#142533"/>
<path d="M45.1856 6.34897C41.6917 6.34897 39.2305 8.94528 39.2305 12.6805V13.1052C39.2877 14.6852 39.9533 16.182 41.0883 17.2827C42.2232 18.3835 43.7397 19.0031 45.3207 19.012H45.5523C47.1876 19.0091 48.7684 18.424 50.0114 17.3616V17.3133L49.2007 15.991L49.1138 16.0393C48.1488 16.9395 46.8816 17.4457 45.562 17.4581C44.9585 17.4715 44.3586 17.3618 43.799 17.1355C43.2393 16.9093 42.7317 16.5712 42.3071 16.1422C41.8825 15.7131 41.5499 15.2019 41.3296 14.6399C41.1093 14.0779 41.0059 13.4768 41.0257 12.8735H50.0983V12.777C50.0983 12.777 50.0983 12.2076 50.0983 11.9277C50.1852 8.5206 48.2066 6.34897 45.1856 6.34897ZM41.1222 11.3582C41.2383 10.3892 41.7066 9.49669 42.4381 8.85063C43.1696 8.20458 44.1131 7.85008 45.0891 7.85464C46.6044 7.85464 48.2645 8.7619 48.3996 11.3582H41.1222Z" fill="#142533"/>
<path d="M60.6286 7.76775V8.39511C60.251 7.76612 59.718 7.24486 59.0808 6.88144C58.4435 6.51802 57.7235 6.32467 56.9899 6.31999H56.7679C53.5539 6.31999 51.334 8.86804 51.334 12.6033C51.334 16.3385 53.4574 18.9444 56.6231 18.9444C57.4292 18.9828 58.2304 18.7999 58.9399 18.4154C59.6493 18.0308 60.24 17.4595 60.6479 16.7631V18.6066H62.3466V1.89951H60.6286V7.76775ZM56.9416 17.3615C54.7217 17.3615 53.2547 15.4312 53.2547 12.6322C53.2547 9.83321 54.8086 7.95113 56.9899 7.95113C58.7948 7.95113 60.6286 9.41819 60.6286 12.6322C60.6286 16.1165 58.6982 17.3615 56.903 17.3615H56.9416Z" fill="#142533"/>
<path d="M72.7401 7.99936V8.09588C72.4023 7.52643 71.3696 6.30066 68.8794 6.30066C65.7137 6.30066 63.6289 8.71359 63.6289 12.4005C63.6289 16.0875 65.8102 18.5873 69.0242 18.5873C69.7644 18.6422 70.5053 18.4909 71.1647 18.1501C71.8241 17.8094 72.3761 17.2925 72.7594 16.6569V18.317C72.7594 20.6335 71.2924 21.9557 68.6864 21.9557C67.5633 21.9629 66.4547 21.7015 65.4531 21.1932L65.3662 21.145L64.7002 22.6121L64.7968 22.6603C66.0123 23.2766 67.3527 23.6067 68.7154 23.6255C71.5047 23.6255 74.5064 22.2067 74.5064 18.2784V6.69638H72.7401V7.99936ZM69.2365 17.0816C66.9201 17.0816 65.3759 15.2864 65.3759 12.4971C65.3759 9.70771 66.6981 8.04762 68.9663 8.04762C71.4661 8.04762 72.6533 9.51468 72.6533 12.4971C72.6533 15.4794 71.5047 17.0816 69.2365 17.0816Z" fill="#142533"/>
<path d="M81.6294 6.34897C78.1258 6.34897 75.7129 8.94528 75.7129 12.6322V13.0569C75.7631 14.6538 76.4329 16.1685 77.5805 17.28C78.7281 18.3916 80.2633 19.0128 81.861 19.012H82.1023C83.7323 19.0027 85.3059 18.4143 86.5421 17.3519L85.7217 15.9428H85.6252C84.6637 16.8424 83.3997 17.3487 82.083 17.3616C81.4791 17.375 80.8788 17.2652 80.3186 17.0391C79.7585 16.8129 79.2503 16.4751 78.8249 16.0461C78.3996 15.6172 78.066 15.1061 77.8446 14.5441C77.6232 13.982 77.5186 13.3808 77.5371 12.777H86.6869V12.6805C86.6869 12.6805 86.6869 12.111 86.6869 11.8311C86.6869 8.5206 84.6986 6.34897 81.6294 6.34897ZM77.6046 11.3582C77.7229 10.3884 78.1932 9.49575 78.9263 8.84987C79.6594 8.20398 80.6041 7.84982 81.5811 7.85464C83.0868 7.85464 84.7469 8.7619 84.882 11.3582H77.6046Z" fill="#142533"/>
<path d="M94.0603 6.58065C93.819 6.58065 93.6356 6.58065 93.3943 6.48413C92.5603 6.50818 91.7541 6.78896 91.0856 7.28816C90.4171 7.78736 89.919 8.48067 89.6591 9.27348V6.58065H87.9121V18.5391V18.6356H89.7073V13.5781C89.7135 12.8008 89.8405 12.029 90.0837 11.2907C90.6532 9.44721 91.9272 8.2697 93.4425 8.2697C93.6319 8.25054 93.8227 8.25054 94.012 8.2697H94.1085V6.58065H94.0603Z" fill="#142533"/>
</svg>
