<svg width="563" height="73" viewBox="0 0 563 73" fill="none" xmlns="http://www.w3.org/2000/svg">
<path d="M99.8538 15.8004L101.635 16.1754C105.854 17.0193 106.417 19.5508 106.417 21.801V51.1477C106.417 53.5854 105.854 55.9294 101.635 56.7733L99.8538 57.1483V58.0859H120.668V57.1483L118.887 56.7733C114.668 55.9294 114.105 53.5854 114.105 51.1477V21.8947C114.105 19.5508 114.668 17.113 118.887 16.2692L120.668 15.8941V14.9565H99.8538V15.8004Z" fill="black"/>
<path d="M524.303 14.8633V29.396H525.147L527.303 24.0517C529.459 18.8012 531.616 15.8946 537.242 15.8946H539.586V51.1482C539.586 53.3984 539.023 56.1175 534.804 56.7738L533.022 57.055V57.9926H553.837V57.055L552.056 56.7738C547.836 56.1175 547.274 53.3984 547.274 51.1482V15.8946H549.618C555.243 15.8946 557.4 18.8012 559.556 24.0517L561.713 29.396H562.557V14.8633H524.303Z" fill="black"/>
<path d="M505.645 15.8009L507.332 15.9884C510.52 16.4572 513.427 18.0511 513.521 26.2082L513.708 45.8977L497.019 26.1144C492.05 20.2076 489.987 17.6761 488.487 15.0508L488.393 14.8633H473.11V15.8009L473.391 15.8946C476.579 16.4572 478.548 17.7698 481.83 21.3327L482.486 21.989V44.585C482.486 54.2423 479.486 55.8362 475.735 56.7738L474.517 57.055V57.9926H491.675V57.055L490.456 56.7738C487.174 55.9299 483.799 54.9923 483.705 44.585L483.518 23.1141L513.802 58.7427L513.896 58.8365H514.833V26.2082C514.833 17.9573 517.927 16.4572 521.021 15.9884L522.709 15.8009V14.8633H505.738L505.645 15.8009Z" fill="black"/>
<path d="M330.221 50.3043C327.314 55.1798 323.845 57.055 317.282 57.055H315.501C311.844 57.055 310.25 55.2736 310.25 51.2419V36.3342L312.969 36.4279C319.532 36.5217 321.314 36.803 323.376 43.1786L324.126 45.5226H325.064V26.2082H324.126L323.376 28.5521C321.407 34.834 319.438 35.2091 312.969 35.3028L310.25 35.3966V15.9884H314.844C322.626 15.9884 326.095 17.5823 328.627 22.364L331.533 27.7083H332.377V15.0508H295.811V15.9884L297.592 16.3634C301.53 17.2072 302.374 19.0824 302.374 21.8015V51.1482C302.374 53.3984 301.812 56.1174 297.592 56.7737L295.811 57.055V57.9926H333.971V45.3351H333.127L330.221 50.3043Z" fill="black"/>
<path d="M466.828 50.3043C463.922 55.1798 460.453 57.055 453.889 57.055H452.108C448.451 57.055 446.857 55.2736 446.857 51.2419V36.3342L449.576 36.4279C456.14 36.5217 457.921 36.803 459.984 43.1786L460.734 45.5226H461.671V26.2082H460.734L459.984 28.5521C458.015 34.834 456.046 35.2091 449.576 35.3028L446.857 35.3966V15.9884H451.452C459.14 15.9884 462.703 17.5823 465.234 22.364L468.141 27.7083H468.985V15.0508H432.418V15.9884L434.2 16.3634C438.138 17.2072 438.982 19.0824 438.982 21.8015V51.1482C438.982 53.3984 438.419 56.1174 434.2 56.7737L432.418 57.055V57.9926H470.579V45.3351H469.735L466.828 50.3043Z" fill="black"/>
<path d="M184.987 51.0544V15.8946H190.425C201.302 15.8946 207.865 23.5829 207.865 36.428C207.865 49.4605 201.677 56.9613 190.988 56.9613H189.675C185.831 57.0551 184.987 54.6173 184.987 51.0544ZM192.301 14.8633H153.766V15.8009L155.453 15.9884C159.297 16.551 161.641 18.2386 161.641 24.9893L161.829 45.8977L145.14 26.2082C140.264 20.3951 138.108 17.7698 136.608 15.1446L136.514 14.957H121.231V15.8946L121.512 15.9884C124.7 16.551 126.669 17.8636 129.951 21.4264L130.607 22.0828V44.6788C130.607 54.336 127.607 55.9299 123.856 56.8675L122.637 57.1488V58.0864H139.795V57.1488L138.576 56.8675C135.295 56.0237 131.92 55.0861 131.826 44.6788L131.638 23.2079L162.016 59.024H162.954V24.1455C162.954 18.7074 165.392 15.9884 170.173 15.9884C174.955 15.9884 177.393 18.7074 177.393 24.1455V51.1482C177.393 53.6797 176.83 56.1175 172.611 56.7738L170.83 57.055V57.9926H192.394C199.895 57.9926 206.083 55.6487 210.49 51.3357C214.428 47.3978 216.584 42.0535 216.584 36.2405C216.584 30.4274 214.428 25.1768 210.49 21.3327C205.99 17.1135 199.801 14.8633 192.301 14.8633Z" fill="black"/>
<path d="M400.259 51.0544V15.8946H405.697C416.573 15.8946 423.136 23.5829 423.136 36.428C423.136 49.4605 416.948 56.9613 406.26 56.9613H404.947C401.009 57.0551 400.259 54.6173 400.259 51.0544ZM407.572 14.8633H369.037V15.8009L370.725 15.9884C374.569 16.551 376.819 18.2386 376.913 24.9893L377.101 45.8977L360.411 26.1144C355.442 20.2076 353.379 17.6761 351.879 15.0508L351.785 14.8633H336.503V15.8009L336.784 15.8946C339.972 16.4572 341.941 17.7698 345.222 21.3327L345.879 21.989V44.585C345.879 54.2423 342.878 55.8362 339.128 56.7738L337.909 57.055V57.9926H355.067V57.055L353.848 56.7738C350.567 55.9299 347.191 54.9923 347.097 44.585L346.91 23.1141L377.194 58.7427L377.288 58.8365H378.226V23.958C378.226 18.5199 380.663 15.8009 385.445 15.8009C390.227 15.8009 392.665 18.5199 392.665 23.958V51.1482C392.665 53.6797 392.102 56.1175 387.883 56.7738L386.101 57.055V57.9926H407.666C415.167 57.9926 421.355 55.6487 425.762 51.3357C429.7 47.3978 431.856 42.0535 431.856 36.2405C431.856 30.4274 429.7 25.1768 425.762 21.3327C421.261 17.1135 414.979 14.8633 407.572 14.8633Z" fill="black"/>
<path d="M278.372 14.8633H259.714V15.8009L261.495 16.1759C265.714 17.0198 266.277 19.3638 266.277 21.8015V51.1482C266.277 53.5859 265.714 55.9299 261.495 56.7738L259.714 57.1488V58.0864H281.372V57.1488L279.966 56.8675C275.09 55.8362 274.153 54.8048 274.153 50.5856V15.8946H276.028C282.685 15.8946 286.623 20.3951 286.623 27.8959C286.623 35.3966 282.685 39.8971 276.028 39.8971H275.559V40.9284H278.466C288.216 40.9284 294.967 35.5841 294.967 27.8959C294.873 20.2076 288.123 14.8633 278.372 14.8633Z" fill="black"/>
<path d="M251.65 50.3043C248.744 55.1798 245.275 57.055 238.618 57.055H236.836C233.18 57.055 231.586 55.2736 231.586 51.2419V36.3342L234.305 36.4279C240.868 36.5217 242.649 36.803 244.712 43.1786L245.462 45.5226H246.4V26.2082H245.462L244.712 28.5521C242.743 34.834 240.774 35.2091 234.305 35.3028L231.586 35.3966V15.9884H236.18C243.868 15.9884 247.431 17.5823 250.056 22.364L252.963 27.7083H253.807V15.0508H217.241V15.9884L219.022 16.3634C222.96 17.2072 223.804 19.0824 223.804 21.8015V51.1482C223.804 53.3984 223.241 56.1174 219.022 56.7737L217.241 57.055V57.9926H255.401V45.3351H254.557L251.65 50.3043Z" fill="black"/>
<path fill-rule="evenodd" clip-rule="evenodd" d="M0 36.803C0 16.926 16.1266 0.799316 36.0036 0.799316C55.9744 0.799316 72.0073 16.926 72.0073 36.803C72.0073 56.68 55.8806 72.8066 36.0036 72.8066C16.1266 72.8066 0 56.68 0 36.803ZM55.9005 50.2894C56.4101 50.603 56.5206 50.671 56.9121 50.8668C58.131 51.6169 58.131 53.7733 55.6932 53.492C53.818 53.492 50.3489 53.8671 48.2862 54.2421L50.1614 52.5545L50.0676 52.4607C48.755 53.3983 47.4424 54.1484 46.036 54.8984C44.8171 55.3672 43.1295 56.1173 41.2543 56.9612L43.9733 54.4296L43.8795 54.3359C43.8795 54.3359 40.4104 57.1487 37.9727 58.4613C37.2618 58.7723 36.614 59.0834 36.0494 59.3545C35.4226 59.6554 34.8982 59.9072 34.5036 60.0552C33.4722 60.524 32.7222 60.6178 31.597 60.2427C30.1963 59.8004 29.4912 59.532 28.5245 59.1639C28.2618 59.0639 27.9797 58.9566 27.6591 58.8363C26.8153 58.4613 26.7215 57.2424 27.6591 56.9612C27.8583 56.9114 28.2691 56.7822 28.7089 56.644C29.0971 56.5219 29.5079 56.3928 29.8156 56.3048L30.7532 56.6799C31.089 56.7918 31.3913 56.9371 31.6802 57.076C31.8754 57.1698 32.0644 57.2606 32.2534 57.3362C32.3471 57.3831 32.4643 57.4299 32.5815 57.4768C32.6987 57.5237 32.8159 57.5706 32.9097 57.6175L33.0972 57.7112H33.1909C33.2378 57.7581 33.2847 57.7815 33.3316 57.805C33.3785 57.8284 33.4254 57.8519 33.4722 57.8988C33.566 57.9925 33.6597 58.0863 33.7535 58.2738C33.8473 58.3675 33.8473 58.5551 33.8473 58.6488V58.9301V59.0238H33.941V58.9301C34.0348 58.8363 34.0348 58.7426 34.0348 58.6488C34.0953 58.5277 34.0777 58.4457 34.0576 58.3523C34.0466 58.3011 34.0348 58.2464 34.0348 58.18C34.0348 57.9925 33.941 57.8987 33.7535 57.7112C33.7066 57.6643 33.6598 57.6409 33.6129 57.6175C33.566 57.594 33.5191 57.5706 33.4722 57.5237H33.3785C33.3316 57.5237 33.3082 57.5003 33.2847 57.4768C33.2613 57.4534 33.2378 57.43 33.1909 57.43C33.0972 57.3831 32.98 57.3128 32.8628 57.2424C32.7456 57.1721 32.6284 57.1018 32.5346 57.0549C32.0658 56.8674 31.597 56.5861 31.1282 56.3048C30.6682 56.0539 30.2082 55.7843 29.7731 55.5294C29.2328 55.2127 28.731 54.9187 28.3155 54.7109C28.3155 54.7109 31.9721 53.5858 36.66 52.2732L37.4101 52.6482V52.5545L36.9413 52.1794L35.8162 51.2418L35.2537 51.0543L34.8786 50.0229L34.3161 49.7417L33.8473 47.3977H33.7535L33.941 49.9292L32.5346 50.773V47.3977H32.4409L32.0658 50.9605L30.0969 51.3356L30.7532 47.4914H30.6594L29.4406 51.4293L27.5654 51.5231L28.9718 47.3977H28.878L26.8153 51.6169L24.9401 51.7106L27.0966 47.3977H27.0028L23.44 52.3669L21.471 52.6482L24.7526 47.8665L24.6588 47.7727L19.127 54.1484L18.8458 53.9608L23.7212 46.2726L31.222 43.4598C31.222 43.4598 31.7846 43.1785 32.0658 43.0847C32.2031 43.0847 32.2902 43.0345 32.4005 42.9708C32.4409 42.9475 32.4844 42.9224 32.5346 42.8972C32.5815 42.8972 32.6284 42.8738 32.6753 42.8504C32.7222 42.8269 32.769 42.8035 32.8159 42.8035C32.8159 42.7455 32.8517 42.7234 32.9012 42.6928C32.9318 42.6739 32.9676 42.6518 33.0034 42.6159L33.3785 42.2409L33.4722 42.1471L33.566 42.0534L33.7535 41.8659C33.7535 41.819 33.7769 41.7956 33.8004 41.7721C33.8238 41.7487 33.8473 41.7252 33.8473 41.6783C33.8473 41.6315 33.8707 41.608 33.8941 41.5846C33.9176 41.5612 33.941 41.5377 33.941 41.4908C33.941 41.444 33.9645 41.4205 33.9879 41.3971C34.0113 41.3736 34.0348 41.3502 34.0348 41.3033C34.0348 41.2564 34.0582 41.233 34.0817 41.2096C34.1051 41.1861 34.1285 41.1627 34.1285 41.1158C34.1285 41.0059 34.1607 40.9283 34.1874 40.8639C34.2062 40.8184 34.2223 40.7796 34.2223 40.7408C34.3161 40.647 34.3161 40.5532 34.3161 40.4595V40.272V40.1782H34.2223V40.272V40.4595C34.2223 40.5064 34.1989 40.5532 34.1754 40.6001C34.152 40.647 34.1285 40.6939 34.1285 40.7408C34.1285 40.8345 34.1285 40.9283 34.0348 41.022C34.0348 41.0689 34.0113 41.0924 33.9879 41.1158C33.9645 41.1392 33.941 41.1627 33.941 41.2095C33.941 41.2564 33.9176 41.2799 33.8941 41.3033C33.8707 41.3268 33.8473 41.3502 33.8473 41.3971C33.8473 41.4369 33.8473 41.4598 33.8401 41.4802C33.8303 41.5078 33.8074 41.5307 33.7535 41.5846L33.566 41.7721L33.3785 41.9596L33.2847 42.0534L33.1909 42.1471C33.1441 42.194 33.0738 42.2409 33.0034 42.2878C32.9331 42.3347 32.8628 42.3816 32.8159 42.4284C32.8159 42.4284 32.7222 42.5222 32.6284 42.5222C32.6284 42.5222 32.5346 42.6159 32.4409 42.6159C32.3471 42.6628 32.2768 42.6863 32.2065 42.7097C32.1362 42.7332 32.0658 42.7566 31.9721 42.8035C31.8783 42.8347 31.7741 42.866 31.6699 42.8972C31.4616 42.9597 31.2532 43.0222 31.1282 43.0847C31.0422 43.1277 30.9365 43.151 30.8382 43.1727C30.7222 43.1982 30.6164 43.2215 30.5657 43.2723L30.0969 42.3347L31.0345 41.4908V41.3971L28.4092 42.991L27.7529 41.7721L31.3158 39.1469L31.222 39.0531L25.8777 42.2409L25.4089 40.9283L30.4719 37.5529V37.4592L23.9088 41.022L23.6275 39.8032L29.1593 36.3341V36.2403L22.4086 39.7094L22.2211 38.303L27.7529 35.3027V35.209L20.8147 38.1155V36.7091L26.4403 34.5526V34.4589L19.5958 36.3341L19.6896 34.8339L24.8464 33.615V33.5213L18.1894 34.4589L18.377 33.1462L23.2524 32.5837V32.4899L16.408 32.5837L16.5018 31.4586H21.9398V31.3648L12.1888 30.6147V30.521L13.7827 29.9584V29.8646L9.75109 28.2708V28.177L11.345 28.0832V27.9895L7.8759 25.833V25.7392L10.3136 25.9268V25.833L7.50086 23.2078V23.114L8.81349 23.3953V23.3015L7.50086 21.6138L6.65703 19.2698H6.75079L8.06342 20.8638L9.85264 21.9027L13.0327 24.9892L20.7209 26.6768V26.5831L13.3139 24.5204L9.86211 21.9082L10.97 22.5514L11.0637 22.4577L9.18853 19.7386L8.53221 16.7383H8.62597L10.1261 18.9886L11.5275 20.1187L11.4388 20.2074L14.2515 23.489L20.9085 25.1767V25.0829L14.6266 23.0202L11.6009 20.1779L13.0327 21.3326L13.1264 21.2388L11.345 18.051L10.6887 14.1131H10.7824L12.4701 17.4884L16.1267 20.4887L16.2205 20.395L13.689 16.3633L13.1264 11.5816H13.2202L14.8141 15.8945L16.1867 17.1174L18.6582 21.145L23.815 23.114L23.9088 23.0202L19.127 20.77L16.7338 17.6048L19.9709 20.4887L26.4403 23.7703L33.566 33.7088L36.3788 36.0528L36.4725 35.959L35.2537 34.3651L38.0664 33.615V33.5213L35.6287 33.3338V33.24L39.2853 32.5837V32.4899L34.7849 32.1149V32.0211L40.5979 31.0835L42.9419 31.6461V31.5523L40.7855 30.521L37.2226 30.6147V30.521L41.0667 29.7709L43.4107 30.6147V30.521L41.2543 29.1146L38.7228 29.0208V28.9271L41.5355 28.4583L44.067 29.5834V29.4896L42.0043 27.5207H39.7541V27.4269L42.4731 26.7706L44.9109 28.7396L45.0046 28.6458L43.1295 25.9268L41.0667 25.5517V25.458L43.5982 25.2704L45.9422 28.0832L46.036 27.9895L44.3483 24.5204L42.0981 23.7703V23.6765L44.9109 23.864L47.0674 27.5207H47.1611L45.7547 23.2078L42.9419 22.1764V22.0826L46.3173 22.6452L48.1925 27.1456H48.2862L47.0674 22.1764L44.067 20.4887V20.395L47.6299 21.7076L49.3176 26.6768H49.4113L48.38 21.2388L45.0984 18.8948L45.1922 18.801L48.9425 20.8638L50.4427 26.1143H50.5364L49.5989 20.4887L46.2235 17.4884L46.3173 17.3947L50.2552 20.1137L51.3803 25.458H51.474L50.9115 19.7386L47.5361 16.082L47.6299 15.9883L51.5678 19.3636L52.4116 24.5204H52.5054L52.1304 19.0823L48.9425 14.8631L49.0363 14.7694L52.7867 18.7073L53.3492 23.2078H53.443L53.2555 18.5198L50.3489 14.0193L50.4427 13.9255L53.818 18.2385L54.2868 21.4263H54.3806L54.1931 17.9572L52.1304 13.2692H52.2241L54.8494 17.6759L55.1307 19.4574H55.2244L55.3182 17.3947L54.1931 12.9879H54.2868L55.787 16.6446H55.8807L56.8183 12.9879H56.9121L56.6308 16.6446H56.7246L59.2561 12.9879H59.3498L57.7559 16.2695L57.8497 16.3633L61.6938 13.6443L61.7876 13.738L55.8807 21.6138C55.8807 21.6138 54.0056 26.6768 53.3492 28.3645C53.2555 28.6458 52.9742 28.9271 52.6929 29.0208L47.9112 30.896L46.6923 32.0211L42.4731 32.4899V32.5837H46.6923C46.6923 32.5837 48.0049 33.0525 49.7864 33.8026C50.5365 34.0838 51.0052 34.8339 50.9115 35.6777C50.9115 35.6777 51.5678 36.3341 51.9428 36.8029C52.4116 37.3654 52.5054 38.1155 52.1304 38.5843C51.9428 38.9593 51.5678 39.1468 51.099 39.2406V39.1469C51.3803 38.9593 51.2865 38.4905 51.0052 38.1155C50.724 37.7405 50.5365 37.6467 50.2552 37.8342C50.1614 37.928 49.9739 38.0217 49.9739 38.0217L50.6302 39.0531V39.1469C50.0676 39.3344 49.4113 39.2406 49.0363 38.7718H45.7547V38.8656L47.5361 39.1469L47.6299 39.2406L41.4418 46.5538L41.5355 46.6476L43.5982 44.7724V46.4601L43.4107 46.9289L43.5982 48.054L43.5045 48.5228L45.4734 50.2105H45.5672H45.661C45.661 50.3042 45.7547 50.3042 45.7547 50.3042C45.7547 50.398 45.8485 50.398 45.8485 50.398L45.9422 50.4917L46.036 50.5855L46.1298 50.6793L46.2235 50.773C46.3173 50.773 46.3173 50.8668 46.3173 50.8668C46.3642 50.8668 46.3642 50.8902 46.3642 50.9137C46.3642 50.9371 46.3642 50.9605 46.411 50.9605C46.5048 50.9605 46.5048 51.0543 46.5048 51.0543V51.1481V51.2418V51.3356H46.5986V51.2418V51.1481V51.0543V50.9605V50.8668V50.6793C46.5986 50.6324 46.5751 50.6089 46.5517 50.5855C46.5282 50.5621 46.5048 50.5386 46.5048 50.4917C46.5048 50.4449 46.4814 50.4214 46.4579 50.398C46.4345 50.3745 46.411 50.3511 46.411 50.3042C46.411 50.3042 46.411 50.2105 46.3173 50.2105C46.2704 50.2105 46.247 50.187 46.2235 50.1636C46.2001 50.1401 46.1766 50.1167 46.1298 50.1167C46.036 50.0229 46.036 50.0229 45.9422 50.0229H45.8485L46.5986 49.8354H46.6923C46.6923 49.9292 46.7861 49.9292 46.7861 49.9292C46.7861 50.023 46.8798 50.0229 46.8798 50.0229L46.9736 50.1167L47.0674 50.2105L47.1611 50.3042L47.2549 50.398C47.3486 50.398 47.3486 50.4917 47.3486 50.4917C47.4424 50.4917 47.4424 50.5855 47.4424 50.5855C47.5362 50.5855 47.5361 50.6793 47.5361 50.6793V50.773V50.8668V50.9605H47.6299V50.8668V50.773V50.6793V50.5855V50.4917V50.3042C47.6299 50.2105 47.5362 50.1167 47.4424 50.0229C47.4424 50.0229 47.4424 49.9292 47.3486 49.9292C47.3017 49.9292 47.2783 49.9058 47.2549 49.8823C47.2314 49.8589 47.208 49.8354 47.1611 49.8354L47.1611 49.8354C47.0674 49.7417 47.0673 49.7417 46.9736 49.7417C50.3489 48.9916 52.9742 48.5228 52.9742 48.5228C54.6326 49.5089 55.4339 50.0021 55.9005 50.2894ZM16.7338 17.6048L16.2205 16.9259L16.1267 17.0196L16.1867 17.1174L16.7338 17.6048ZM11.6009 20.1779L11.5325 20.1137L11.5275 20.1187L11.6009 20.1779ZM9.86211 21.9082L9.84485 21.8951L9.85264 21.9027L9.86211 21.9082ZM51.1459 36.7091C50.9818 36.545 50.8177 36.381 50.6302 36.2403L50.2552 36.7091L51.3803 37.5529L51.474 37.6467V37.7405V37.8342C51.5678 37.8342 51.5678 37.928 51.5678 37.928C51.6616 37.928 51.6616 38.0217 51.6616 38.0217V38.1155V38.2093V38.303V38.3968V38.4905V38.5843H51.7553V38.4905V38.3968C51.8092 38.3428 51.8321 38.3199 51.8419 38.2924C51.8491 38.272 51.8491 38.2491 51.8491 38.2093V38.1155V38.0217V37.8342V37.6467C51.7553 37.5529 51.7553 37.5529 51.7553 37.4592V37.3654V37.2717L51.6616 37.1779C51.474 37.0373 51.31 36.8732 51.1459 36.7091ZM48.8488 35.0214L48.755 35.1152C48.6613 35.2089 48.6613 35.209 48.6613 35.3027C48.6613 35.3965 48.5675 35.3965 48.38 35.209V35.3027V35.3965L48.4737 35.4902L48.5675 35.584H48.6613C48.6613 35.6777 48.755 35.6777 48.755 35.6777C48.755 35.7715 48.8488 35.7715 48.9425 35.7715H49.0363H49.1301C49.1659 35.7357 49.2017 35.7136 49.2323 35.6947C49.2818 35.6641 49.3176 35.6419 49.3176 35.584C49.3715 35.5301 49.3944 35.5072 49.4041 35.4796C49.4113 35.4592 49.4113 35.4363 49.4113 35.3965V35.3027V35.209V35.1152C49.3176 35.1152 49.3176 35.0214 49.3176 35.0214H49.2238V35.1152V35.209H49.1301H49.0363V35.1152L49.1301 35.0214L49.0363 34.9277H48.9425C48.9425 35.0214 48.8488 35.0214 48.8488 35.0214ZM48.5206 37.6467C48.4972 37.6701 48.4737 37.6936 48.4737 37.7405V37.8342V37.928V38.0217V38.1155V38.2093C48.5675 38.303 48.5675 38.303 48.5675 38.303H48.6613V38.2093V38.1155V38.0217V37.928V37.8342C48.755 37.8342 48.755 37.7405 48.755 37.7405C48.755 37.6467 48.8488 37.6467 48.8488 37.6467H48.9425H49.0363H49.1301H49.2238H49.3176H49.4113L49.5051 37.5529V37.4592V37.3654H49.4113H49.3176H49.2238H49.1301H48.8488C48.8019 37.3654 48.7785 37.3888 48.755 37.4123C48.7316 37.4357 48.7081 37.4592 48.6613 37.4592C48.5675 37.4592 48.5675 37.5529 48.5675 37.5529C48.5675 37.5998 48.5441 37.6233 48.5206 37.6467ZM10.4074 25.833V25.9268L13.1264 27.0519L20.7209 28.177V27.9895L10.4074 25.833ZM15.9392 29.0208L21.3773 29.4896V29.3959L13.2202 28.0832V28.177L15.9392 29.0208ZM16.1267 22.1764L21.6585 23.9578V23.864L16.5955 21.8014L13.9703 18.9886L13.8765 19.0823L16.1267 22.1764ZM22.2211 24.7079L22.3149 25.9268L24.9401 24.3328L24.8464 24.2391L22.4086 25.458L22.3149 24.7079H22.2211ZM22.6899 26.4893V27.7082L26.159 25.6455L26.0652 25.5517L22.8774 27.2394L22.7837 26.4893H22.6899ZM23.6275 28.177L23.7212 29.3959L27.2841 27.1456L27.1903 27.0519L23.815 28.9271L23.7212 28.177H23.6275ZM24.9401 30.8022H25.0339L28.503 28.7396L28.4092 28.6458L25.1276 30.3334L25.0339 29.5834H24.9401V30.8022ZM26.6278 30.8022L26.7215 32.0211L29.8156 30.1459L29.7219 30.0522L26.8153 31.5523L26.7215 30.8022H26.6278ZM28.4092 31.9274L28.503 33.1462L31.1282 31.4586L31.0345 31.3648L28.5967 32.5837L28.503 31.9274H28.4092ZM30.1907 34.2714H30.2844L32.1596 33.0525L32.0658 32.9587L30.3782 33.8026L30.2844 33.1462H30.1907V34.2714ZM31.7846 34.3651V35.3965L33.2847 34.3651L33.1909 34.2714L31.9721 34.8339L31.8783 34.3651H31.7846ZM32.9097 35.584V36.5216L34.6911 35.4902L34.5973 35.3965L33.0972 36.0528L33.0034 35.584H32.9097ZM33.7535 38.4905V39.2406L34.6911 38.5843L34.5973 38.4905L33.8473 38.7718V38.4905H33.7535ZM33.4722 37.0841V37.8342L34.6911 36.9904L34.5973 36.8966L33.566 37.3654V37.0841H33.4722ZM29.5343 45.5225L29.4406 45.8975L30.0969 45.4287V45.335H29.2531V45.4287L29.5343 45.5225ZM31.8783 45.5225L31.7846 45.8975L32.4409 45.4287V45.335H31.597V45.4287L31.8783 45.5225ZM31.5033 59.1176L32.3471 59.3989L31.5033 58.9301C31.3626 58.8832 31.222 58.8129 31.0814 58.7426C30.9407 58.6722 30.8001 58.6019 30.6594 58.555L29.5343 57.9925L30.6594 57.43V57.3362L28.9718 57.805C28.936 57.8408 28.9001 57.8629 28.8696 57.8818C28.8201 57.9124 28.7843 57.9345 28.7843 57.9925C28.7843 58.0862 28.878 58.2738 28.9718 58.2738L30.6594 58.8363L31.5033 59.1176ZM41.348 44.3036L41.2543 44.7724L41.9106 44.0223V43.9286L40.8792 44.1161V44.2099L41.348 44.3036ZM40.973 41.6783L39.4728 42.2409L40.1292 42.3347L40.0354 43.0847H40.1292L41.0667 41.7721L40.973 41.6783ZM39.6604 45.2412L38.8165 45.4287L39.0978 45.6163L39.004 45.9913H39.0978L39.6604 45.335V45.2412ZM40.3167 39.2406L38.8165 39.8032L39.4728 39.8969L39.2853 40.647H39.3791L40.3167 39.3344V39.2406ZM42.9419 42.4284L42.8482 42.8972L43.5045 42.1471V42.0534L42.4731 42.2409V42.3347L42.9419 42.4284ZM44.2546 38.5843L44.067 38.9593L44.8171 38.303V38.2093L43.7858 38.303V38.3968L44.2546 38.5843ZM46.3173 34.3651H45.4734L45.7547 34.5526L45.5672 34.8339L45.661 34.9277L46.3173 34.4589V34.3651ZM44.4421 41.022L45.0046 40.4595H44.067V40.5532L44.4421 40.647L44.3483 41.022H44.4421ZM43.9733 36.7091L45.0046 35.959L43.5982 35.8653V35.959L44.1608 36.1465L43.8795 36.6153L43.9733 36.7091ZM44.1608 33.8963H43.1295L43.4107 34.1776L43.2232 34.5526L43.317 34.6464L44.1608 33.9901V33.8963ZM42.0981 40.7408L42.9419 39.7094L41.6293 39.9907V40.0845L42.1919 40.1782L42.0043 40.7408H42.0981ZM41.9106 38.4905L42.8482 37.2717L41.348 37.5529V37.6467L42.0043 37.8342L41.8168 38.4905H41.9106ZM41.2543 36.1465L42.2856 35.3965L40.8792 35.3027V35.3965L41.4418 35.584L41.1605 36.0528L41.2543 36.1465ZM41.2543 33.8963H40.4104L40.6917 34.0838L40.5042 34.3651L40.5979 34.4589L41.2543 33.9901V33.8963ZM38.9103 38.1155L40.0354 36.8966L38.3477 37.1779V37.2717L39.0978 37.4592L38.8165 38.1155H38.9103ZM38.629 43.2723L37.4101 43.6473L37.8789 43.8348L37.6914 44.3974H37.7852L38.629 43.366V43.2723ZM39.2853 35.0214H37.9727L38.4415 35.3027L38.1602 35.7715L38.254 35.8653L39.2853 35.1152V35.0214ZM37.2226 42.3347L37.9727 41.3033L36.66 41.5846V41.6783L37.2226 41.7721L37.1288 42.3347H37.2226ZM36.66 40.1782H36.7538L37.5976 39.2406L36.285 39.4281V39.5219L36.8476 39.6157L36.66 40.1782ZM37.1288 37.1779L36.0975 37.3654L36.5663 37.5529L36.3788 38.0217H36.4725L37.1288 37.2717V37.1779ZM33.566 44.1161L33.4722 44.4911L34.1285 44.0223V43.9286H33.2847V44.0223L33.566 44.1161ZM34.2223 45.9913L34.1285 46.3663L34.7849 45.8038V45.71H33.941V45.8038L34.2223 45.9913ZM35.2537 42.8035L35.0661 43.2723L35.8162 42.6159V42.5222H34.7849V42.6159L35.2537 42.8035ZM35.91 44.5849L35.7225 45.0537L36.5663 44.3974V44.3036H35.5349V44.3974L35.91 44.5849ZM36.7538 46.1788L36.66 46.5538L37.3164 45.9913V45.8975H36.4725V45.9913L36.7538 46.1788ZM32.7222 55.2735L32.9097 55.1797H32.8159L32.5346 55.2735C32.3471 55.3672 32.2534 55.3672 32.2534 55.3672V55.461L32.5346 55.3672C32.5346 55.2735 32.6284 55.2735 32.7222 55.2735ZM33.3751 55.0246C33.5089 55.0019 33.6565 55.0224 33.8473 55.086C33.8941 55.086 33.9645 55.0625 34.0348 55.0391C34.1051 55.0156 34.1754 54.9922 34.2223 54.9922L35.0661 54.7109L35.3474 54.6172C35.5349 54.5703 35.7225 54.5 35.91 54.4296C36.0975 54.3593 36.285 54.289 36.4725 54.2421C36.5194 54.2421 36.5897 54.2187 36.6601 54.1952C36.7304 54.1718 36.8007 54.1484 36.8476 54.1484H36.9413L37.4101 53.9608C37.5039 53.914 37.5742 53.8905 37.6445 53.8671C37.7148 53.8436 37.7852 53.8202 37.8789 53.7733C37.9727 53.6796 37.9727 53.6796 38.0664 53.6796H38.0664L38.3477 53.5858V53.492C38.3477 53.492 38.254 53.5858 38.0664 53.5858H37.9727C37.8789 53.6327 37.7852 53.6561 37.6914 53.6796C37.5976 53.703 37.5039 53.7264 37.4101 53.7733L36.9413 53.8671C36.8944 53.8671 36.8241 53.8905 36.7538 53.914C36.6835 53.9374 36.6132 53.9608 36.5663 53.9608L36.3788 54.0546C36.2936 54.083 36.1913 54.12 36.0795 54.1603C35.8222 54.2533 35.5151 54.3643 35.2537 54.4296C34.8786 54.5234 34.5973 54.6171 34.3161 54.7109L34.1285 54.8047H34.0348L33.3751 55.0246ZM41.5057 53.5982C41.407 53.6169 41.3029 53.655 41.1806 53.6998C41.1169 53.7231 41.0483 53.7482 40.973 53.7733C40.8792 53.8202 40.762 53.8436 40.6448 53.8671C40.5276 53.8905 40.4104 53.914 40.3167 53.9608L39.9416 54.0546L39.5666 54.1484C39.2853 54.2421 39.0275 54.3359 38.7696 54.4296C38.5118 54.5234 38.254 54.6171 37.9727 54.7109C37.7373 54.7698 37.5019 54.8656 37.2896 54.9519C37.1638 55.0032 37.046 55.0511 36.9413 55.086L36.3788 55.2735C36.285 55.3204 36.2147 55.3438 36.1444 55.3672C36.0741 55.3907 36.0037 55.4141 35.91 55.461C35.91 55.461 35.8162 55.5548 35.7225 55.5548C35.6287 55.6016 35.5584 55.6251 35.4881 55.6485C35.4177 55.672 35.3474 55.6954 35.2537 55.7423L35.1599 55.836C34.8786 55.9298 34.6911 56.0235 34.5036 56.1173C34.4567 56.1173 34.4098 56.1407 34.3629 56.1642C34.3161 56.1876 34.2692 56.2111 34.2223 56.2111C33.941 56.3048 33.8473 56.3986 33.8473 56.3986L33.941 56.4924L34.3161 56.3986C34.3629 56.3986 34.4098 56.3752 34.4567 56.3517C34.5036 56.3283 34.5505 56.3048 34.5973 56.3048C34.7849 56.2111 34.9724 56.1173 35.2537 56.0236L35.4412 55.9298C35.5349 55.8829 35.6053 55.8595 35.6756 55.836C35.7459 55.8126 35.8162 55.7891 35.91 55.7423L36.0975 55.6485C36.1501 55.5959 36.2324 55.5728 36.3275 55.5461C36.4018 55.5252 36.4841 55.5021 36.5663 55.461C36.66 55.4141 36.7538 55.3907 36.8476 55.3672C36.9413 55.3438 37.0351 55.3204 37.1288 55.2735C37.3164 55.2266 37.4804 55.1563 37.6445 55.0859C37.8086 55.0156 37.9727 54.9453 38.1602 54.8984L39.6604 54.3359L39.6606 54.3358C39.9418 54.2421 40.223 54.1483 40.4104 54.0546C40.5042 54.0077 40.5745 53.9843 40.6448 53.9608C40.7152 53.9374 40.7855 53.914 40.8792 53.8671L41.0667 53.7733C41.2419 53.7149 41.3806 53.6566 41.5057 53.5982ZM42.1249 53.4385L42.2856 53.3983V53.492L42.1249 53.4385ZM38.5352 51.7106C38.5352 51.7106 38.4415 51.7106 38.4415 51.8044C38.5017 51.8646 38.5232 51.8475 38.5309 51.8523C38.5352 51.855 38.5352 51.8646 38.5352 51.8981C38.5352 51.9919 38.629 51.9919 38.629 51.9919C38.629 52.0856 38.7228 52.0857 38.7228 52.0857L38.8165 52.1794L38.9103 52.2732L39.004 52.3669L39.0978 52.4607L39.1916 52.5545C39.2853 52.5545 39.2853 52.6482 39.2853 52.6482C39.3791 52.6482 39.3791 52.742 39.3791 52.742V52.8357V52.9295V53.0232H39.4728V52.9295V52.8357V52.742V52.6482V52.5545V52.3669C39.4728 52.32 39.4494 52.2966 39.426 52.2732C39.4025 52.2497 39.3791 52.2263 39.3791 52.1794L39.2853 52.0857V51.9919C39.2853 51.9919 39.2853 51.8981 39.1916 51.8981C39.1447 51.8981 39.1212 51.8747 39.0978 51.8513C39.0744 51.8278 39.0509 51.8044 39.004 51.8044C38.9103 51.7106 38.9103 51.7106 38.8165 51.7106H38.7228H38.629H38.5352ZM41.1605 51.2418C41.0667 51.1481 41.0667 51.1481 40.973 51.1481C41.1605 51.1168 41.3584 51.0751 41.5564 51.0335C41.9522 50.9501 42.3481 50.8668 42.6607 50.8668L40.7855 49.8354H40.0354L37.8789 47.2101L37.7852 47.3039L38.3477 50.398L39.4728 51.7106H39.5666H39.6604L39.7541 51.8044C39.7541 51.8981 39.8479 51.8981 39.8479 51.8981L39.9416 51.9919L40.0354 52.0857L40.1292 52.1794L40.2229 52.2732C40.2229 52.2732 40.2229 52.3669 40.3167 52.3669C40.4104 52.3669 40.4104 52.4607 40.4104 52.4607C40.5042 52.4607 40.5042 52.5545 40.5042 52.5545V52.6482V52.742V52.8357H40.5979V52.742V52.6482V52.5545V52.4607V52.3669V52.1794C40.5979 52.1325 40.5745 52.1091 40.5511 52.0857C40.5276 52.0622 40.5042 52.0388 40.5042 51.9919C40.5042 51.945 40.4807 51.9216 40.4573 51.8981C40.4339 51.8747 40.4104 51.8513 40.4104 51.8044C40.4104 51.8044 40.4104 51.7106 40.3167 51.7106C40.2698 51.7106 40.2464 51.6872 40.2229 51.6637C40.1995 51.6403 40.176 51.6169 40.1292 51.6169C40.0354 51.5231 40.0354 51.5231 39.9416 51.5231C40.065 51.482 40.1703 51.4589 40.2655 51.438C40.3874 51.4113 40.4927 51.3882 40.5979 51.3356H40.6917C40.6917 51.3825 40.7151 51.3825 40.7386 51.3825C40.762 51.3825 40.7855 51.3824 40.7855 51.4293C40.7855 51.5231 40.8792 51.5231 40.8792 51.5231L40.973 51.6169L41.0667 51.7106L41.1605 51.8044L41.2543 51.8981L41.348 51.9919C41.4418 51.9919 41.4418 52.0857 41.4418 52.0857C41.5355 52.0857 41.5355 52.1794 41.5355 52.1794V52.2732V52.3669V52.4607H41.6293V52.3669V52.2732V52.1794V52.0857V51.9919V51.8044C41.6293 51.7575 41.6059 51.7341 41.5824 51.7106C41.559 51.6872 41.5355 51.6637 41.5355 51.6169C41.5355 51.57 41.5121 51.5465 41.4887 51.5231C41.4652 51.4996 41.4418 51.4762 41.4418 51.4293C41.4418 51.4293 41.4418 51.3356 41.348 51.3356C41.3011 51.3356 41.2777 51.3121 41.2543 51.2887C41.2308 51.2653 41.2074 51.2418 41.1605 51.2418L41.1605 51.2418ZM44.5358 50.3042C44.5358 50.3042 44.4421 50.3042 44.3483 50.398C44.3782 50.398 44.389 50.398 44.3899 50.401C44.3919 50.4075 44.3483 50.4278 44.3483 50.4917C44.3483 50.5855 44.4421 50.5855 44.4421 50.5855L44.5358 50.6793L44.6296 50.773L44.7234 50.8668H44.8171L44.9109 50.9605L45.0046 51.0543C45.0984 51.0543 45.0984 51.1481 45.0984 51.1481C45.1922 51.1481 45.1922 51.2418 45.1922 51.2418C45.2859 51.2418 45.2859 51.3356 45.2859 51.3356V51.4293V51.5231V51.6169H45.3797V51.5231V51.4293V51.3356V51.2418V51.1481V50.9605C45.3797 50.9136 45.3562 50.8902 45.3328 50.8668C45.3094 50.8433 45.2859 50.8199 45.2859 50.773C45.2859 50.7261 45.2625 50.7027 45.239 50.6793C45.2156 50.6558 45.1922 50.6324 45.1922 50.5855L45.0984 50.4917C45.0046 50.398 44.9109 50.3042 44.8171 50.3042H44.7234H44.6296H44.5358ZM46.9736 52.0857H47.0674V51.8981H46.9736H46.8798H46.5986C46.5597 51.8981 46.5048 51.9142 46.4404 51.9331C46.3495 51.9597 46.2396 51.9919 46.1298 51.9919C46.036 51.9919 45.9422 52.0153 45.8485 52.0388C45.7547 52.0622 45.661 52.0857 45.5672 52.0857C45.4266 52.1325 45.239 52.1794 45.0515 52.2263C44.864 52.2732 44.6765 52.32 44.5358 52.3669C44.489 52.3669 44.4421 52.3904 44.3952 52.4138C44.3483 52.4372 44.3014 52.4607 44.2546 52.4607H44.1608H44.067V52.5545H44.1608H44.2546H44.5358C44.5747 52.5545 44.6296 52.5384 44.6939 52.5195C44.7849 52.4929 44.8948 52.4607 45.0046 52.4607C45.0435 52.4607 45.0984 52.4446 45.1628 52.4258C45.2537 52.3991 45.3636 52.3669 45.4734 52.3669H45.5672C45.661 52.3669 45.7547 52.3435 45.8485 52.3201C45.9422 52.2966 46.036 52.2732 46.1298 52.2732C46.2396 52.2732 46.3495 52.241 46.4404 52.2144C46.5048 52.1955 46.5597 52.1794 46.5986 52.1794C46.6454 52.1794 46.6923 52.156 46.7392 52.1325C46.7861 52.1091 46.8329 52.0857 46.8798 52.0857H46.9736ZM48.1925 50.773L48.2862 50.8668H48.6613C49.13 50.8668 49.5988 50.773 50.0675 50.6793L50.0676 50.6793H50.1614C50.3163 50.6793 50.4427 50.6508 50.5563 50.6253C50.6492 50.6044 50.7334 50.5855 50.8177 50.5855C50.9115 50.4917 51.0052 50.4917 51.099 50.4917C51.2088 50.4917 51.2865 50.4596 51.3509 50.4329C51.3964 50.4141 51.4352 50.398 51.474 50.398C51.5839 50.398 51.6616 50.3658 51.7259 50.3392C51.7714 50.3203 51.8102 50.3042 51.8491 50.3042H51.9428H52.1304V50.2105H51.9428H51.8491H51.474C51.4352 50.2105 51.3642 50.2266 51.281 50.2454C51.1634 50.2721 51.0213 50.3042 50.9115 50.3042C50.7709 50.3042 50.6536 50.3277 50.5364 50.3511C50.4193 50.3746 50.302 50.398 50.1614 50.398C50.0051 50.4293 49.8384 50.4605 49.6717 50.4918C49.3384 50.5543 49.005 50.6168 48.755 50.6793C48.7081 50.6793 48.6613 50.7027 48.6144 50.7261C48.5675 50.7496 48.5206 50.773 48.4737 50.773H48.38H48.1925ZM53.3492 51.1481C53.443 51.0543 53.6305 51.0543 53.7243 51.0543H53.9118L54.1931 50.8668V50.773H53.9118H53.818C53.6305 50.8668 53.443 50.8668 53.2555 50.8668H52.9742C52.7867 50.9605 52.5992 50.9605 52.4118 50.9605H52.4116L51.9428 51.0543L51.3803 51.1481L50.8177 51.4293C50.724 51.4293 50.6536 51.4528 50.5833 51.4762C50.513 51.4996 50.4427 51.5231 50.3489 51.5231C50.2552 51.6168 50.1614 51.6169 50.0676 51.6169H49.8801H49.6926H49.5051C49.3952 51.6169 49.2854 51.649 49.1944 51.6757C49.1301 51.6945 49.0751 51.7106 49.0363 51.7106H48.8488L48.5675 51.8044V51.8981H48.8488H49.0363C49.2238 51.8044 49.3175 51.8044 49.505 51.8044H49.5051C49.6926 51.7106 49.7864 51.7106 49.9739 51.7106H50.0676C50.1614 51.6169 50.3489 51.6169 50.4427 51.6169C50.5975 51.6169 50.724 51.5884 50.8376 51.5629C50.9304 51.542 51.0147 51.5231 51.099 51.5231L51.474 51.4293C51.5678 51.3356 51.7552 51.3356 51.849 51.3356H51.8491H51.9428L52.4116 51.2418C52.5665 51.2418 52.6929 51.2134 52.8066 51.1879C52.8994 51.167 52.9837 51.1481 53.068 51.1481H53.3492Z" fill="black"/>
</svg>
