<svg width="448" height="164" viewBox="0 0 448 164" fill="none" xmlns="http://www.w3.org/2000/svg">
<path d="M251.124 61.6235H238.834C238.834 73.6229 230.6 82.5925 218.667 82.5925H207.988V37.625H195.696V125.6H207.988V94.6512H218.787C230.659 94.8294 238.834 102.552 238.834 115.086V125.541H251.124V114.67C251.124 102.017 243.905 92.8691 235.313 88.5922C243.905 84.3153 251.124 72.8506 251.124 61.6235Z" fill="#030405"/>
<path d="M71.6562 60.7918C63.0648 60.7918 55.7857 64.356 50.953 68.93V37.625H38.6624V125.6H50.953V118.353C55.7857 122.927 63.0648 126.372 71.6562 126.372C89.9133 126.372 104.71 111.819 104.71 93.6414C104.71 75.4642 89.9133 60.7918 71.6562 60.7918ZM71.6562 114.373C60.2009 114.373 50.8934 105.165 50.8934 93.6414C50.8934 82.1173 60.2009 72.8506 71.6562 72.8506C83.1117 72.8506 92.2999 82.2361 92.2999 93.6414C92.2999 105.047 83.1117 114.373 71.6562 114.373Z" fill="#030405"/>
<path d="M0 163.617H417.645V0.617188H0V163.617ZM12.2907 12.6759H405.294V151.559H12.2907V12.6759Z" fill="#030405"/>
<path d="M321.944 61.6235H309.653C309.653 73.6229 301.42 82.5925 289.487 82.5925H278.807V37.625H266.517V125.6H278.807V94.6512H289.606C301.48 94.8294 309.653 102.552 309.653 115.086V125.541H321.944V114.67C321.944 102.017 314.724 92.8691 306.134 88.5922C314.724 84.3153 321.944 72.8506 321.944 61.6235Z" fill="#030405"/>
<path d="M166.402 68.9291C161.569 64.3552 154.29 60.791 145.698 60.791C127.441 60.791 112.645 75.4634 112.645 93.5811C112.645 111.699 127.441 126.312 145.698 126.312C154.349 126.312 161.569 122.866 166.402 118.292V125.54H178.692V61.6227H166.402V68.9291ZM145.698 114.372C134.242 114.372 125.055 105.046 125.055 93.6406C125.055 82.2352 134.242 72.8497 145.698 72.8497C157.154 72.8497 166.462 82.1165 166.462 93.6406C166.462 105.165 157.154 114.372 145.698 114.372Z" fill="#030405"/>
<path d="M362.397 47.6626V41.6035H350.105V46.831C350.105 55.6819 344.08 61.6816 335.191 61.6816H332.446V73.6808H347.242V101.659C347.242 116.748 356.132 125.598 371.287 125.598H378.088V113.54H371.705C363.769 113.54 359.532 109.382 359.532 101.244V73.6808H378.983V61.6222H356.908C360.666 58.058 362.397 52.8307 362.397 47.6626Z" fill="#030405"/>
<path d="M424.864 2.99281H428.027V13.0318H430.353V2.99281H433.516V0.794922H424.864V2.99281Z" fill="#030405"/>
<path d="M445.926 0.794922L441.332 7.68559L436.798 0.794922H435.305V13.0318H437.633V5.96292L440.615 10.4181H442.048L445.09 5.96292V13.0318H447.358V0.794922H445.926Z" fill="#030405"/>
</svg>
