<svg width="515" height="128" viewBox="0 0 515 128" fill="none" xmlns="http://www.w3.org/2000/svg">
<path d="M135.562 45.5786H187.577V55.3515H167.097V110.443H155.871V55.3515H135.477L135.562 45.5786ZM185.349 63.4812H194.946V72.5623H195.117C195.46 71.265 196.06 70.0542 196.917 68.8434C197.774 67.6326 198.802 66.5083 200.087 65.5569C201.287 64.5191 202.658 63.7407 204.201 63.1353C205.657 62.5299 207.2 62.1839 208.742 62.1839C209.942 62.1839 210.799 62.2704 211.227 62.2704C211.656 62.3569 212.17 62.4434 212.598 62.4434V72.3894C211.913 72.2164 211.142 72.1299 210.37 72.0434C209.599 71.9569 208.914 71.8704 208.142 71.8704C206.429 71.8704 204.8 72.2164 203.258 72.9083C201.716 73.6002 200.43 74.638 199.231 75.9353C198.117 77.3191 197.174 78.9623 196.488 80.9515C195.803 82.9407 195.46 85.2758 195.46 87.8704V110.184H185.177L185.349 63.4812ZM259.728 110.443H249.617V103.87H249.445C248.16 106.292 246.275 108.108 243.79 109.579C241.305 111.049 238.734 111.741 236.163 111.741C230.079 111.741 225.623 110.27 222.881 107.157C220.139 104.13 218.768 99.4596 218.768 93.3191V63.4812H229.051V92.2813C229.051 96.4326 229.822 99.3731 231.45 101.016C232.993 102.746 235.221 103.611 238.048 103.611C240.191 103.611 241.99 103.265 243.447 102.573C244.904 101.881 246.103 101.016 246.96 99.8921C247.903 98.7677 248.503 97.3839 248.931 95.8272C249.359 94.2704 249.531 92.5407 249.531 90.7245V63.4812H259.814V110.443H259.728ZM277.209 95.3947C277.552 98.4218 278.666 100.497 280.636 101.795C282.607 103.006 285.007 103.611 287.749 103.611C288.691 103.611 289.805 103.524 291.005 103.352C292.205 103.179 293.404 102.919 294.433 102.487C295.547 102.054 296.404 101.449 297.089 100.584C297.775 99.7191 298.117 98.6813 298.032 97.384C297.946 96.0867 297.518 94.9623 296.575 94.0975C295.632 93.2326 294.518 92.6272 293.147 92.0218C291.776 91.5029 290.148 91.0704 288.349 90.7245C286.549 90.3785 284.75 89.9461 282.864 89.5137C280.979 89.0812 279.094 88.5623 277.295 87.9569C275.495 87.3515 273.953 86.5731 272.496 85.4488C271.125 84.411 269.925 83.1137 269.154 81.4704C268.297 79.8272 267.869 77.9245 267.869 75.5029C267.869 72.9083 268.468 70.8326 269.754 69.1029C270.953 67.3731 272.582 65.9894 274.467 64.9515C276.352 63.9137 278.494 63.1353 280.808 62.7029C283.122 62.2704 285.349 62.0975 287.406 62.0975C289.805 62.0975 292.119 62.3569 294.261 62.8759C296.404 63.3948 298.46 64.1731 300.174 65.384C301.973 66.5083 303.43 68.065 304.544 69.8812C305.744 71.6975 306.429 73.9461 306.772 76.5407H296.061C295.547 74.0326 294.433 72.3894 292.719 71.5245C290.919 70.6596 288.948 70.2272 286.635 70.2272C285.949 70.2272 285.007 70.3137 284.064 70.4002C283.036 70.5731 282.179 70.7461 281.236 71.0921C280.379 71.438 279.608 71.9569 279.008 72.5623C278.409 73.1677 278.066 74.0326 278.066 75.0704C278.066 76.3677 278.494 77.3191 279.351 78.0975C280.208 78.8758 281.322 79.4813 282.779 80.0867C284.15 80.6056 285.778 81.038 287.577 81.384C289.377 81.7299 291.262 82.1623 293.147 82.5948C295.033 83.0272 296.832 83.5461 298.632 84.1515C300.431 84.7569 302.059 85.5353 303.43 86.6596C304.801 87.6975 306.001 88.9948 306.858 90.5515C307.715 92.1083 308.143 94.0975 308.143 96.3461C308.143 99.1137 307.543 101.449 306.258 103.438C304.973 105.341 303.344 106.984 301.374 108.195C299.403 109.406 297.089 110.27 294.69 110.876C292.205 111.395 289.805 111.741 287.406 111.741C284.493 111.741 281.75 111.395 279.265 110.703C276.78 110.011 274.552 108.973 272.753 107.676C270.953 106.292 269.497 104.649 268.468 102.573C267.44 100.584 266.84 98.1623 266.755 95.3083H277.123V95.3947H277.209ZM311.057 63.4812H318.854V49.2975H329.137V63.3947H338.392V71.0921H329.137V96.1731C329.137 97.2975 329.223 98.1623 329.309 99.0272C329.394 99.8056 329.651 100.497 329.909 101.016C330.251 101.535 330.765 101.968 331.365 102.227C332.051 102.487 332.908 102.66 334.107 102.66C334.793 102.66 335.564 102.66 336.25 102.573C336.935 102.487 337.706 102.4 338.392 102.227V110.27C337.278 110.443 336.164 110.53 335.05 110.616C333.936 110.789 332.908 110.789 331.708 110.789C328.966 110.789 326.824 110.53 325.196 110.011C323.567 109.492 322.282 108.714 321.339 107.762C320.397 106.724 319.797 105.514 319.454 104.043C319.112 102.573 318.94 100.757 318.854 98.8542V71.1785H311.057V63.3083V63.4812ZM345.59 63.4812H355.273V69.8812H355.444C356.901 67.1137 358.872 65.211 361.443 64.0002C364.013 62.7894 366.755 62.1839 369.84 62.1839C373.525 62.1839 376.696 62.7894 379.438 64.1731C382.18 65.4704 384.408 67.2002 386.207 69.5353C388.007 71.7839 389.378 74.465 390.235 77.4921C391.092 80.5191 391.606 83.8056 391.606 87.1785C391.606 90.3785 391.177 93.4056 390.406 96.3461C389.549 99.2866 388.349 101.968 386.721 104.216C385.093 106.465 383.037 108.281 380.466 109.665C377.895 111.049 374.982 111.741 371.554 111.741C370.097 111.741 368.555 111.568 367.098 111.308C365.641 111.049 364.185 110.616 362.814 110.011C361.443 109.406 360.157 108.627 359.043 107.676C357.844 106.724 356.901 105.6 356.13 104.389H355.958V127.827H345.676V63.4812H345.59ZM381.494 87.0056C381.494 84.9299 381.237 82.8542 380.637 80.865C380.123 78.8758 379.266 77.1461 378.152 75.5893C377.038 74.0326 375.667 72.8218 374.125 71.8704C372.497 70.9191 370.612 70.4867 368.555 70.4867C364.27 70.4867 361.014 71.9569 358.786 74.984C356.644 78.011 355.53 82.0759 355.53 87.0921C355.53 89.5137 355.787 91.6758 356.387 93.665C356.987 95.6542 357.758 97.3839 358.958 98.8542C360.072 100.324 361.443 101.449 363.071 102.314C364.699 103.179 366.498 103.611 368.641 103.611C371.04 103.611 372.925 103.092 374.553 102.141C376.181 101.189 377.467 99.892 378.581 98.4218C379.609 96.865 380.38 95.1353 380.809 93.1461C381.237 91.0704 381.494 89.0812 381.494 87.0056ZM399.575 45.5786H409.858V55.3515H399.575V45.5786ZM399.575 63.4812H409.858V110.443H399.575V63.4812ZM419.027 45.5786H429.31V110.443H419.027V45.5786ZM460.672 111.741C456.988 111.741 453.646 111.135 450.732 109.838C447.819 108.541 445.419 106.897 443.363 104.735C441.392 102.573 439.849 99.8921 438.821 96.865C437.793 93.838 437.193 90.465 437.193 86.9191C437.193 83.3731 437.707 80.0867 438.821 77.0596C439.849 74.0326 441.392 71.438 443.363 69.1894C445.334 67.0272 447.819 65.2975 450.732 64.0867C453.646 62.8758 456.988 62.1839 460.672 62.1839C464.357 62.1839 467.699 62.7894 470.612 64.0867C473.526 65.2975 475.925 67.0272 477.982 69.1894C479.953 71.3515 481.495 74.0326 482.523 77.0596C483.552 80.0867 484.151 83.3731 484.151 86.9191C484.151 90.5515 483.637 93.838 482.523 96.865C481.409 99.8921 479.953 102.487 477.982 104.735C476.011 106.897 473.526 108.627 470.612 109.838C467.699 111.049 464.443 111.741 460.672 111.741ZM460.672 103.524C462.9 103.524 464.957 103.006 466.585 102.054C468.299 101.103 469.584 99.8056 470.698 98.2488C471.812 96.6921 472.583 94.8758 473.097 92.9731C473.611 90.9839 473.869 88.9948 473.869 86.9191C473.869 84.9299 473.611 82.9407 473.097 80.9515C472.583 78.9623 471.812 77.2326 470.698 75.6758C469.584 74.1191 468.213 72.9083 466.585 71.9569C464.871 71.0056 462.9 70.4867 460.672 70.4867C458.444 70.4867 456.388 71.0056 454.76 71.9569C453.046 72.9083 451.76 74.2056 450.646 75.6758C449.532 77.2326 448.761 78.9623 448.247 80.9515C447.733 82.9407 447.476 84.9299 447.476 86.9191C447.476 88.9948 447.733 90.9839 448.247 92.9731C448.761 94.9623 449.532 96.6921 450.646 98.2488C451.76 99.8056 453.131 101.103 454.76 102.054C456.473 103.092 458.444 103.524 460.672 103.524ZM487.236 63.4812H495.034V49.2975H505.317V63.3947H514.572V71.0921H505.317V96.1731C505.317 97.2975 505.403 98.1623 505.488 99.0272C505.574 99.8056 505.831 100.497 506.088 101.016C506.431 101.535 506.945 101.968 507.545 102.227C508.23 102.487 509.087 102.66 510.287 102.66C510.973 102.66 511.744 102.66 512.429 102.573C513.115 102.487 513.886 102.4 514.572 102.227V110.27C513.458 110.443 512.344 110.53 511.23 110.616C510.116 110.789 509.087 110.789 507.888 110.789C505.146 110.789 503.003 110.53 501.375 110.011C499.747 109.492 498.462 108.714 497.519 107.762C496.577 106.724 495.977 105.514 495.634 104.043C495.291 102.573 495.12 100.757 495.034 98.8542V71.1785H487.236V63.3083V63.4812Z" fill="#14171A"/>
<path d="M123.566 45.5784H76.5219L62.0402 0.432431L47.4728 45.5784L0.428711 45.4919L38.4753 73.427L23.9079 118.573L61.9545 90.6378L100.001 118.573L85.5194 73.427L123.566 45.5784Z" fill="#00B67A"/>
<path d="M88.7755 83.6324L85.5192 73.4269L62.04 90.6377L88.7755 83.6324Z" fill="#005128"/>
</svg>
