<svg width="515" height="128" viewBox="0 0 515 128" fill="none" xmlns="http://www.w3.org/2000/svg">
<path d="M135.562 45.5781H187.577V55.351H167.097V110.443H155.871V55.351H135.477L135.562 45.5781ZM185.349 63.4807H194.946V72.5618H195.117C195.46 71.2645 196.06 70.0537 196.917 68.8429C197.774 67.6321 198.802 66.5078 200.087 65.5564C201.287 64.5186 202.658 63.7402 204.201 63.1348C205.657 62.5294 207.2 62.1834 208.742 62.1834C209.942 62.1834 210.799 62.2699 211.227 62.2699C211.656 62.3564 212.17 62.4429 212.598 62.4429V72.3889C211.913 72.2159 211.142 72.1294 210.37 72.0429C209.599 71.9564 208.914 71.8699 208.142 71.8699C206.429 71.8699 204.8 72.2159 203.258 72.9078C201.716 73.5997 200.43 74.6375 199.231 75.9348C198.117 77.3186 197.174 78.9618 196.488 80.951C195.803 82.9402 195.46 85.2753 195.46 87.8699V110.184H185.177L185.349 63.4807ZM259.728 110.443H249.617V103.87H249.445C248.16 106.292 246.275 108.108 243.79 109.579C241.305 111.049 238.734 111.741 236.163 111.741C230.079 111.741 225.623 110.27 222.881 107.157C220.139 104.13 218.768 99.4591 218.768 93.3186V63.4807H229.051V92.2808C229.051 96.4321 229.822 99.3726 231.45 101.016C232.993 102.746 235.221 103.611 238.048 103.611C240.191 103.611 241.99 103.265 243.447 102.573C244.904 101.881 246.103 101.016 246.96 99.8916C247.903 98.7672 248.503 97.3834 248.931 95.8267C249.359 94.2699 249.531 92.5402 249.531 90.724V63.4807H259.814V110.443H259.728ZM277.209 95.3942C277.552 98.4213 278.666 100.497 280.636 101.795C282.607 103.006 285.007 103.611 287.749 103.611C288.691 103.611 289.805 103.524 291.005 103.352C292.205 103.179 293.404 102.919 294.433 102.487C295.547 102.054 296.404 101.449 297.089 100.584C297.775 99.7186 298.117 98.6808 298.032 97.3835C297.946 96.0862 297.518 94.9618 296.575 94.097C295.632 93.2321 294.518 92.6267 293.147 92.0213C291.776 91.5024 290.148 91.0699 288.349 90.724C286.549 90.378 284.75 89.9456 282.864 89.5132C280.979 89.0807 279.094 88.5618 277.295 87.9564C275.495 87.351 273.953 86.5726 272.496 85.4483C271.125 84.4105 269.925 83.1132 269.154 81.4699C268.297 79.8267 267.869 77.924 267.869 75.5024C267.869 72.9078 268.468 70.8321 269.754 69.1024C270.953 67.3726 272.582 65.9889 274.467 64.951C276.352 63.9132 278.494 63.1348 280.808 62.7024C283.122 62.2699 285.349 62.097 287.406 62.097C289.805 62.097 292.119 62.3564 294.261 62.8754C296.404 63.3943 298.46 64.1726 300.174 65.3835C301.973 66.5078 303.43 68.0645 304.544 69.8807C305.744 71.697 306.429 73.9456 306.772 76.5402H296.061C295.547 74.0321 294.433 72.3889 292.719 71.524C290.919 70.6591 288.948 70.2267 286.635 70.2267C285.949 70.2267 285.007 70.3132 284.064 70.3997C283.036 70.5726 282.179 70.7456 281.236 71.0916C280.379 71.4375 279.608 71.9564 279.008 72.5618C278.409 73.1672 278.066 74.0321 278.066 75.0699C278.066 76.3672 278.494 77.3186 279.351 78.097C280.208 78.8753 281.322 79.4808 282.779 80.0862C284.15 80.6051 285.778 81.0375 287.577 81.3835C289.377 81.7294 291.262 82.1618 293.147 82.5943C295.033 83.0267 296.832 83.5456 298.632 84.151C300.431 84.7564 302.059 85.5348 303.43 86.6591C304.801 87.697 306.001 88.9943 306.858 90.551C307.715 92.1078 308.143 94.097 308.143 96.3456C308.143 99.1132 307.543 101.449 306.258 103.438C304.973 105.341 303.344 106.984 301.374 108.195C299.403 109.406 297.089 110.27 294.69 110.876C292.205 111.395 289.805 111.741 287.406 111.741C284.493 111.741 281.75 111.395 279.265 110.703C276.78 110.011 274.552 108.973 272.753 107.676C270.953 106.292 269.497 104.649 268.468 102.573C267.44 100.584 266.84 98.1618 266.755 95.3078H277.123V95.3942H277.209ZM311.057 63.4807H318.854V49.297H329.137V63.3942H338.392V71.0916H329.137V96.1726C329.137 97.297 329.223 98.1618 329.309 99.0267C329.394 99.8051 329.651 100.497 329.909 101.016C330.251 101.535 330.765 101.968 331.365 102.227C332.051 102.487 332.908 102.66 334.107 102.66C334.793 102.66 335.564 102.66 336.25 102.573C336.935 102.487 337.706 102.4 338.392 102.227V110.27C337.278 110.443 336.164 110.53 335.05 110.616C333.936 110.789 332.908 110.789 331.708 110.789C328.966 110.789 326.824 110.53 325.196 110.011C323.567 109.492 322.282 108.714 321.339 107.762C320.397 106.724 319.797 105.514 319.454 104.043C319.112 102.573 318.94 100.757 318.854 98.8537V71.178H311.057V63.3078V63.4807ZM345.59 63.4807H355.273V69.8807H355.444C356.901 67.1132 358.872 65.2105 361.443 63.9997C364.013 62.7889 366.755 62.1834 369.84 62.1834C373.525 62.1834 376.696 62.7889 379.438 64.1726C382.18 65.4699 384.408 67.1997 386.207 69.5348C388.007 71.7834 389.378 74.4645 390.235 77.4916C391.092 80.5186 391.606 83.8051 391.606 87.178C391.606 90.378 391.177 93.4051 390.406 96.3456C389.549 99.2861 388.349 101.968 386.721 104.216C385.093 106.465 383.037 108.281 380.466 109.665C377.895 111.049 374.982 111.741 371.554 111.741C370.097 111.741 368.555 111.568 367.098 111.308C365.641 111.049 364.185 110.616 362.814 110.011C361.443 109.406 360.157 108.627 359.043 107.676C357.844 106.724 356.901 105.6 356.13 104.389H355.958V127.827H345.676V63.4807H345.59ZM381.494 87.0051C381.494 84.9294 381.237 82.8537 380.637 80.8645C380.123 78.8753 379.266 77.1456 378.152 75.5888C377.038 74.0321 375.667 72.8213 374.125 71.8699C372.497 70.9186 370.612 70.4862 368.555 70.4862C364.27 70.4862 361.014 71.9564 358.786 74.9835C356.644 78.0105 355.53 82.0754 355.53 87.0916C355.53 89.5132 355.787 91.6753 356.387 93.6645C356.987 95.6537 357.758 97.3834 358.958 98.8537C360.072 100.324 361.443 101.449 363.071 102.314C364.699 103.179 366.498 103.611 368.641 103.611C371.04 103.611 372.925 103.092 374.553 102.141C376.181 101.189 377.467 99.8915 378.581 98.4213C379.609 96.8645 380.38 95.1348 380.809 93.1456C381.237 91.0699 381.494 89.0807 381.494 87.0051ZM399.575 45.5781H409.858V55.351H399.575V45.5781ZM399.575 63.4807H409.858V110.443H399.575V63.4807ZM419.027 45.5781H429.31V110.443H419.027V45.5781ZM460.672 111.741C456.988 111.741 453.646 111.135 450.732 109.838C447.819 108.541 445.419 106.897 443.363 104.735C441.392 102.573 439.849 99.8916 438.821 96.8645C437.793 93.8375 437.193 90.4645 437.193 86.9186C437.193 83.3726 437.707 80.0862 438.821 77.0591C439.849 74.0321 441.392 71.4375 443.363 69.1889C445.334 67.0267 447.819 65.297 450.732 64.0862C453.646 62.8753 456.988 62.1834 460.672 62.1834C464.357 62.1834 467.699 62.7889 470.612 64.0862C473.526 65.297 475.925 67.0267 477.982 69.1889C479.953 71.351 481.495 74.0321 482.523 77.0591C483.552 80.0862 484.151 83.3726 484.151 86.9186C484.151 90.551 483.637 93.8375 482.523 96.8645C481.409 99.8916 479.953 102.487 477.982 104.735C476.011 106.897 473.526 108.627 470.612 109.838C467.699 111.049 464.443 111.741 460.672 111.741ZM460.672 103.524C462.9 103.524 464.957 103.006 466.585 102.054C468.299 101.103 469.584 99.8051 470.698 98.2483C471.812 96.6916 472.583 94.8753 473.097 92.9726C473.611 90.9834 473.869 88.9943 473.869 86.9186C473.869 84.9294 473.611 82.9402 473.097 80.951C472.583 78.9618 471.812 77.2321 470.698 75.6753C469.584 74.1186 468.213 72.9078 466.585 71.9564C464.871 71.0051 462.9 70.4862 460.672 70.4862C458.444 70.4862 456.388 71.0051 454.76 71.9564C453.046 72.9078 451.76 74.2051 450.646 75.6753C449.532 77.2321 448.761 78.9618 448.247 80.951C447.733 82.9402 447.476 84.9294 447.476 86.9186C447.476 88.9943 447.733 90.9834 448.247 92.9726C448.761 94.9618 449.532 96.6916 450.646 98.2483C451.76 99.8051 453.131 101.103 454.76 102.054C456.473 103.092 458.444 103.524 460.672 103.524ZM487.236 63.4807H495.034V49.297H505.317V63.3942H514.572V71.0916H505.317V96.1726C505.317 97.297 505.403 98.1618 505.488 99.0267C505.574 99.8051 505.831 100.497 506.088 101.016C506.431 101.535 506.945 101.968 507.545 102.227C508.23 102.487 509.087 102.66 510.287 102.66C510.973 102.66 511.744 102.66 512.429 102.573C513.115 102.487 513.886 102.4 514.572 102.227V110.27C513.458 110.443 512.344 110.53 511.23 110.616C510.116 110.789 509.087 110.789 507.888 110.789C505.146 110.789 503.003 110.53 501.375 110.011C499.747 109.492 498.462 108.714 497.519 107.762C496.577 106.724 495.977 105.514 495.634 104.043C495.291 102.573 495.12 100.757 495.034 98.8537V71.178H487.236V63.3078V63.4807Z" fill="white"/>
<path d="M123.566 45.5786H76.5219L62.0402 0.432617L47.4728 45.5786L0.428711 45.4921L38.4753 73.4272L23.9079 118.573L61.9545 90.638L100.001 118.573L85.5194 73.4272L123.566 45.5786Z" fill="#00B67A"/>
<path d="M88.7755 83.6323L85.5192 73.4268L62.04 90.6376L88.7755 83.6323Z" fill="#005128"/>
</svg>
