<svg width="257" height="64" viewBox="0 0 257 64" fill="none" xmlns="http://www.w3.org/2000/svg">
<g clip-path="url(#clip0_262_53)">
<path d="M44.9454 4.23201e-05H20.4275V33.0763H53.5307V8.55843C53.5307 7.43226 53.3084 6.31716 52.8767 5.27705C52.4449 4.23694 51.8121 3.29227 51.0145 2.4972C50.2169 1.70213 49.2703 1.07228 48.2288 0.64377C47.1873 0.215257 46.0716 -0.0034991 44.9454 4.23201e-05Z" fill="white"/>
<path d="M12.7838 0H8.5584C6.28857 0 4.11171 0.901685 2.5067 2.5067C0.901685 4.11171 0 6.28857 0 8.5584V12.7838H12.7838V0Z" fill="white"/>
<path d="M0 20.4268H12.7838V33.2105H0V20.4268Z" fill="white"/>
<path d="M40.8547 53.5311H45.0801C46.2063 53.5311 47.3214 53.3088 48.3615 52.8771C49.4016 52.4453 50.3463 51.8125 51.1413 51.0149C51.9364 50.2173 52.5662 49.2707 52.9948 48.2292C53.4233 47.1877 53.642 46.072 53.6385 44.9458V40.855H40.8547V53.5311Z" fill="white"/>
<path d="M20.4275 40.855H33.2112V53.6387H20.4275V40.855Z" fill="white"/>
<path d="M0 40.855V45.0804C0 47.3502 0.901685 49.527 2.5067 51.1321C4.11171 52.7371 6.28857 53.6387 8.5584 53.6387H12.7838V40.855H0Z" fill="white"/>
<path d="M81.9851 3.41748H76.9792V50.2195H103.489V45.7519H81.9851V3.41748Z" fill="white"/>
<path d="M119.583 15.8247C109.84 15.8247 102.978 23.0644 102.978 33.4798V34.6639C103.137 39.0698 104.993 43.2434 108.158 46.3129C111.323 49.3823 115.551 51.1099 119.96 51.1348H120.606C125.165 51.1268 129.573 49.4953 133.04 46.5327V46.3981L130.779 42.711L130.537 42.8456C127.846 45.3558 124.312 46.7673 120.633 46.8018C118.95 46.8393 117.277 46.5332 115.716 45.9023C114.156 45.2714 112.74 44.3289 111.557 43.1324C110.373 41.9359 109.445 40.5105 108.831 38.9434C108.216 37.3763 107.928 35.7004 107.983 34.018H133.282V33.7489C133.282 33.7489 133.282 32.161 133.282 31.3805C133.524 21.8802 128.007 15.8247 119.583 15.8247ZM108.252 29.7927C108.576 27.0906 109.882 24.6019 111.922 22.8004C113.962 20.999 116.592 20.0105 119.314 20.0232C123.539 20.0232 128.168 22.553 128.545 29.7927H108.252Z" fill="white"/>
<path d="M162.644 19.7807V21.5301C161.591 19.7762 160.105 18.3227 158.328 17.3093C156.551 16.2959 154.543 15.7568 152.498 15.7437H151.879C142.917 15.7437 136.727 22.8488 136.727 33.2642C136.727 43.6796 142.648 50.9462 151.475 50.9462C153.723 51.0533 155.957 50.5431 157.935 49.4709C159.914 48.3987 161.561 46.8054 162.698 44.8638V50.0042H167.435V3.41748H162.644V19.7807ZM152.363 46.5324C146.173 46.5324 142.082 41.1498 142.082 33.3449C142.082 25.5401 146.415 20.292 152.498 20.292C157.531 20.292 162.644 24.3829 162.644 33.3449C162.644 43.0606 157.261 46.5324 152.256 46.5324H152.363Z" fill="white"/>
<path d="M196.418 20.4276V20.6968C195.476 19.1089 192.596 15.6909 185.652 15.6909C176.825 15.6909 171.011 22.4192 171.011 32.7C171.011 42.9809 177.094 49.9514 186.056 49.9514C188.12 50.1045 190.186 49.6826 192.025 48.7324C193.863 47.7822 195.402 46.341 196.471 44.5688V49.1978C196.471 55.657 192.381 59.3441 185.114 59.3441C181.982 59.3641 178.891 58.6352 176.098 57.218L175.856 57.0834L173.999 61.1742L174.268 61.3088C177.657 63.0272 181.395 63.9478 185.195 64.0001C192.973 64.0001 201.343 60.0438 201.343 49.0902V16.7944H196.418V20.4276ZM186.648 45.7529C180.189 45.7529 175.883 40.7471 175.883 32.9692C175.883 25.1913 179.57 20.5622 185.894 20.5622C192.865 20.5622 196.175 24.653 196.175 32.9692C196.175 41.2854 192.973 45.7529 186.648 45.7529Z" fill="white"/>
<path d="M221.206 15.8247C211.436 15.8247 204.708 23.0644 204.708 33.3452V34.5294C204.848 38.9822 206.716 43.2058 209.916 46.3053C213.116 49.4049 217.397 51.137 221.852 51.1348H222.525C227.07 51.1089 231.458 49.4682 234.905 46.5057L232.617 42.5764H232.348C229.667 45.0849 226.142 46.4966 222.471 46.5327C220.787 46.57 219.113 46.264 217.551 45.6334C215.989 45.0028 214.572 44.0607 213.386 42.8646C212.2 41.6685 211.27 40.2434 210.652 38.6762C210.035 37.109 209.743 35.4325 209.795 33.7489H235.308V33.4798C235.308 33.4798 235.308 31.8919 235.308 31.1114C235.308 21.8802 229.764 15.8247 221.206 15.8247ZM209.983 29.7927C210.313 27.0883 211.624 24.5993 213.669 22.7983C215.713 20.9973 218.347 20.0097 221.071 20.0232C225.27 20.0232 229.899 22.553 230.276 29.7927H209.983Z" fill="white"/>
<path d="M255.869 16.4713C255.196 16.4713 254.685 16.4713 254.012 16.2021C251.686 16.2692 249.438 17.0521 247.574 18.4441C245.71 19.8361 244.321 21.7694 243.596 23.9801V16.4713H238.725V49.8167V50.0858H243.731V35.9833C243.748 33.8156 244.102 31.6638 244.781 29.6049C246.368 24.4645 249.921 21.1811 254.146 21.1811C254.674 21.1277 255.206 21.1277 255.734 21.1811H256.003V16.4713H255.869Z" fill="white"/>
</g>
<defs>
<clipPath id="clip0_262_53">
<rect width="257" height="64" fill="white"/>
</clipPath>
</defs>
</svg>
