<svg width="32" height="32" viewBox="0 0 32 32" fill="none" xmlns="http://www.w3.org/2000/svg">
<path fill-rule="evenodd" clip-rule="evenodd" d="M16 32C24.8366 32 32 24.8366 32 16C32 7.16344 24.8366 0 16 0C7.16344 0 0 7.16344 0 16C0 24.8366 7.16344 32 16 32Z" fill="white"/>
<path fill-rule="evenodd" clip-rule="evenodd" d="M16 31.5C24.5604 31.5 31.5 24.5604 31.5 16C31.5 7.43959 24.5604 0.5 16 0.5C7.43959 0.5 0.5 7.43959 0.5 16C0.5 24.5604 7.43959 31.5 16 31.5ZM32 16C32 24.8366 24.8366 32 16 32C7.16344 32 0 24.8366 0 16C0 7.16344 7.16344 0 16 0C24.8366 0 32 7.16344 32 16Z" fill="#E6E9EC"/>
<path d="M20.8422 8.86789L17.4978 13.8334C17.4501 13.905 17.43 13.9913 17.4411 14.0765C17.4522 14.1617 17.4938 14.24 17.5582 14.2969C17.6225 14.3538 17.7053 14.3855 17.7913 14.3861C17.8772 14.3867 17.9604 14.3561 18.0256 14.3001L21.3178 11.4446C21.3371 11.4273 21.361 11.416 21.3866 11.4121C21.4122 11.4082 21.4383 11.4118 21.4619 11.4226C21.4855 11.4333 21.5054 11.4506 21.5193 11.4725C21.5331 11.4944 21.5403 11.5198 21.54 11.5457V20.4857C21.54 20.513 21.5316 20.5397 21.5158 20.5621C21.5001 20.5846 21.4779 20.6016 21.4522 20.6109C21.4265 20.6203 21.3985 20.6215 21.3721 20.6144C21.3456 20.6073 21.322 20.5922 21.3044 20.5712L11.3533 8.659C11.1933 8.46999 10.994 8.31811 10.7693 8.21392C10.5446 8.10973 10.2999 8.05573 10.0522 8.05566H9.70444C9.2524 8.05566 8.81887 8.23524 8.49922 8.55488C8.17957 8.87453 8 9.30806 8 9.76011V22.3512C8 22.8033 8.17957 23.2368 8.49922 23.5564C8.81887 23.8761 9.2524 24.0557 9.70444 24.0557V24.0557C9.99591 24.0557 10.2825 23.9811 10.537 23.8389C10.7914 23.6967 11.0051 23.4917 11.1578 23.2434L14.5022 18.2779C14.5499 18.2064 14.57 18.12 14.5589 18.0348C14.5478 17.9496 14.5062 17.8713 14.4418 17.8144C14.3775 17.7575 14.2947 17.7258 14.2087 17.7252C14.1228 17.7246 14.0396 17.7552 13.9744 17.8112L10.6822 20.6668C10.6629 20.684 10.639 20.6953 10.6134 20.6992C10.5878 20.7031 10.5617 20.6995 10.5381 20.6888C10.5145 20.678 10.4946 20.6607 10.4807 20.6388C10.4669 20.617 10.4597 20.5915 10.46 20.5657V11.6234C10.46 11.5961 10.4684 11.5694 10.4842 11.547C10.4999 11.5245 10.5221 11.5075 10.5478 11.4982C10.5735 11.4888 10.6015 11.4876 10.6279 11.4947C10.6544 11.5018 10.678 11.5169 10.6956 11.5379L20.6456 23.4523C20.8056 23.6413 21.0049 23.7932 21.2296 23.8974C21.4543 24.0016 21.699 24.0556 21.9467 24.0557H22.2944C22.5184 24.0558 22.7401 24.0118 22.947 23.9262C23.154 23.8406 23.342 23.7151 23.5004 23.5568C23.6588 23.3986 23.7844 23.2106 23.8702 23.0037C23.9559 22.7969 24 22.5751 24 22.3512V9.76011C24 9.30806 23.8204 8.87453 23.5008 8.55488C23.1811 8.23524 22.7476 8.05566 22.2956 8.05566C22.0041 8.05559 21.7175 8.1302 21.4631 8.27239C21.2086 8.41458 20.9949 8.6196 20.8422 8.86789V8.86789Z" fill="black"/>
</svg>
