<svg width="32" height="32" viewBox="0 0 32 32" fill="none" xmlns="http://www.w3.org/2000/svg">
<path fill-rule="evenodd" clip-rule="evenodd" d="M16 32C24.8366 32 32 24.8366 32 16C32 7.16344 24.8366 0 16 0C7.16344 0 0 7.16344 0 16C0 24.8366 7.16344 32 16 32Z" fill="#2853C3"/>
<path d="M12.1824 8.79899L20.2852 13.4803V18.2544L7.88574 11.0932L11.8642 8.79899C11.9626 8.74213 12.084 8.74213 12.1824 8.79899Z" fill="#D9EEFF"/>
<path d="M20.2843 8.7063L16.1533 11.0934L20.2843 13.4804V8.7063Z" fill="#BBDDFF"/>
<path d="M20.2842 8.7063L24.2626 11.0005C24.362 11.0579 24.4228 11.1643 24.4217 11.279V20.6416L20.2842 18.2545V8.7063Z" fill="#A0CCFF"/>
<path d="M24.4227 20.6414L20.4442 22.9357C20.3454 22.9912 20.2248 22.9912 20.126 22.9357L12.0166 18.2544V13.4736L24.4227 20.6414Z" fill="#BBDDFF"/>
<path d="M7.88575 11.0933V20.4558C7.88473 20.5705 7.94553 20.6769 8.04489 20.7343L12.0233 23.0285V13.4737L7.88575 11.0933Z" fill="white"/>
<path d="M12.0234 23.0285L16.1544 20.6414L12.0234 18.2544V23.0285Z" fill="#D9EEFF"/>
</svg>
