<svg width="33" height="32" viewBox="0 0 33 32" fill="none" xmlns="http://www.w3.org/2000/svg">
<path d="M16.5 32C25.3667 32 32.5 24.8667 32.5 16C32.5 7.13328 25.3667 0 16.5 0C7.63328 0 0.5 7.13328 0.5 16C0.5 24.8667 7.63328 32 16.5 32Z" fill="#E8CD24"/>
<path fill-rule="evenodd" clip-rule="evenodd" d="M16.1767 6.50627C14.9929 6.50789 13.8613 6.99515 13.0471 7.85527L13.0458 7.85529C11.8952 7.72823 10.7348 7.99475 9.75469 8.61078L9.16114 9.2583C8.84637 9.70797 8.71896 10.1576 8.59156 10.6073C8.56608 10.6972 8.5406 10.7872 8.51362 10.8771L8.24382 11.9563C8.07978 13.3091 7.73497 14.6343 7.21858 15.8954C6.69948 16.9158 6.42213 18.0419 6.40918 19.1869C6.40918 19.6186 6.46314 20.2661 6.84086 20.9136C7.42305 21.9192 8.31671 22.3019 9.06358 22.6217L9.10718 22.6404C9.86261 22.9641 10.5101 23.126 10.9958 23.18C10.9938 23.1745 10.9919 23.1691 10.99 23.1637C10.994 23.1689 10.9981 23.1742 11.0021 23.1794C11.0002 23.1795 10.9977 23.1799 10.9958 23.18C12.2045 24.557 13.9156 25.3926 15.7448 25.5C16.8267 25.4428 17.8477 24.9804 18.6047 24.205C20.0978 22.9261 21.6653 21.7368 23.2992 20.6436L24.2165 20.2659C24.5943 20.104 25.2418 19.7263 25.8353 19.0248C26.4829 18.1614 26.5908 17.2441 26.5908 16.9204C26.519 15.8995 26.1845 14.9142 25.6196 14.0606C25.9331 13.2868 26.1156 12.4661 26.1593 11.6325C26.1593 11.3087 26.1054 10.6072 25.6197 9.95971C24.9722 9.15031 24.0009 8.98843 23.5153 8.93447C21.6186 8.90641 19.7748 8.30422 18.2272 7.20775C17.6655 6.70862 16.9268 6.45609 16.1767 6.50627ZM25.6182 14.0606L25.6177 14.0596L25.6196 14.0606L25.6158 14.0671L25.6182 14.0606ZM16.1217 21.2375C17.6185 21.2391 19.0479 20.6127 20.0607 19.5108C21.3018 18.1078 21.3018 16.489 21.3018 15.8955C21.3018 15.6797 21.1939 12.4421 18.7117 11.0931C17.5786 10.4455 16.4454 10.4995 16.1217 10.5535C14.7727 10.6074 13.8554 11.201 13.4776 11.4708C13.4733 11.4741 13.4687 11.4775 13.464 11.481C13.0045 11.8253 10.9944 13.3317 10.8876 15.8955C10.8349 17.7926 11.8629 19.0721 12.1121 19.3823C12.1181 19.3897 12.1236 19.3966 12.1286 19.4029C13.6395 21.1836 15.7979 21.2375 16.1217 21.2375Z" fill="white"/>
</svg>
