<svg width="32" height="32" viewBox="0 0 32 32" fill="none" xmlns="http://www.w3.org/2000/svg">
<path fill-rule="evenodd" clip-rule="evenodd" d="M16 32C24.8366 32 32 24.8366 32 16C32 7.16344 24.8366 0 16 0C7.16344 0 0 7.16344 0 16C0 24.8366 7.16344 32 16 32Z" fill="#FF0013"/>
<path d="M26.4474 12.2939C25.5147 11.6415 24.5172 10.946 23.5414 10.2558C23.5198 10.2397 23.4982 10.2235 23.4713 10.2073C23.3634 10.1264 23.2394 10.0402 23.0885 9.99166L23.0777 9.98626C20.4681 9.35544 17.8155 8.70845 15.249 8.08302C12.9199 7.5169 10.5961 6.95078 8.26689 6.38466C8.20758 6.36849 8.14828 6.35231 8.08358 6.33614C7.8733 6.27683 7.63068 6.21213 7.37188 6.24448C7.2964 6.25526 7.2317 6.28222 7.17239 6.31996L7.10769 6.37388C7.00525 6.47093 6.95134 6.59493 6.92438 6.66502L6.9082 6.70816V6.95617L6.91899 6.99391C8.3909 11.1185 9.90055 15.3024 11.3563 19.3515C12.4777 22.4679 13.6423 25.6974 14.78 28.8677C14.8501 29.0834 15.0496 29.2236 15.2976 29.2451H15.3515C15.5833 29.2451 15.7882 29.1319 15.8906 28.9486L20.1608 22.7213C21.2014 21.2062 22.242 19.6858 23.2826 18.1707C23.7085 17.5507 24.1344 16.9253 24.5604 16.3052C25.2613 15.2808 25.9838 14.2241 26.7008 13.1943L26.7386 13.1404V13.0757C26.7548 12.887 26.7601 12.4988 26.4474 12.2939ZM21.444 14.5637C20.4412 15.0867 19.4168 15.6259 18.387 16.1597C18.9854 15.5181 19.5893 14.8711 20.1878 14.2295C20.9372 13.4207 21.719 12.585 22.4846 11.7655L22.5008 11.7493C22.5655 11.6631 22.6463 11.5822 22.7326 11.4959C22.7919 11.4366 22.8566 11.3773 22.9159 11.3072C23.3149 11.5822 23.7193 11.8625 24.1075 12.1375C24.3878 12.337 24.6736 12.5365 24.9647 12.736C23.7786 13.3399 22.5924 13.9599 21.444 14.5637ZM18.8668 14.305C18.0958 15.1407 17.2979 15.9979 16.5053 16.8444C14.9687 14.9789 13.3997 13.0864 11.8793 11.2587C11.1891 10.4284 10.4936 9.59267 9.8035 8.76237L9.79811 8.75697C9.64176 8.57905 9.49079 8.38495 9.33982 8.20164C9.24278 8.07763 9.14033 7.95901 9.03789 7.83501C9.66332 7.99676 10.2941 8.14772 10.9142 8.29329C11.4587 8.42269 12.0249 8.55748 12.5802 8.69767C15.7073 9.45788 18.8399 10.2181 21.967 10.9783C20.9264 12.089 19.8804 13.2158 18.8668 14.305ZM16.1548 24.8132C16.2141 24.2471 16.2788 23.6648 16.3328 23.0933C16.3813 22.635 16.4298 22.1659 16.4783 21.7184C16.5538 21.0013 16.6347 20.2573 16.6994 19.5294L16.7156 19.4C16.7695 18.9364 16.8234 18.4565 16.8557 17.9766C16.9151 17.9443 16.9798 17.9119 17.0498 17.885C17.1307 17.8472 17.2116 17.8149 17.2925 17.7664C18.5379 17.114 19.7834 16.4616 21.0342 15.8146C22.2797 15.1676 23.5575 14.4991 24.8246 13.8359C23.6707 15.5073 22.5116 17.1949 21.3901 18.8393C20.425 20.2465 19.4329 21.6969 18.4463 23.1256C18.0581 23.6972 17.6537 24.2795 17.2709 24.8402C16.8396 25.4656 16.3975 26.1072 15.9661 26.7488C16.02 26.1018 16.0847 25.4494 16.1548 24.8132ZM8.63891 9.10743C8.56882 8.91333 8.49334 8.71384 8.42864 8.52513C9.88438 10.2828 11.3509 12.0513 12.7797 13.7658C13.5183 14.6554 14.257 15.5396 14.9956 16.4346C15.1412 16.6018 15.2868 16.7797 15.427 16.9522C15.6103 17.1733 15.7936 17.4051 15.9931 17.6262C15.9284 18.1815 15.8745 18.7423 15.8152 19.2814C15.7774 19.6588 15.7397 20.0362 15.6965 20.4191V20.4244C15.6804 20.6671 15.648 20.9097 15.6211 21.1469C15.5833 21.4758 15.4971 22.2199 15.4971 22.2199L15.4917 22.2576C15.3946 23.3467 15.276 24.4466 15.1628 25.5141C15.1143 25.9562 15.0711 26.4091 15.0226 26.862C14.9956 26.7812 14.9633 26.7003 14.9363 26.6248C14.8555 26.4091 14.7746 26.1827 14.6991 25.9616L14.1222 24.3603C12.2944 19.276 10.4667 14.1971 8.63891 9.10743Z" fill="white"/>
</svg>
