<svg width="32" height="33" viewBox="0 0 32 33" fill="none" xmlns="http://www.w3.org/2000/svg">
<mask id="mask0" mask-type="alpha" maskUnits="userSpaceOnUse" x="0" y="4" width="28" height="29">
<path d="M27.581 21.3888C25.7109 28.8897 18.1138 33.4546 10.612 31.5841C3.11335 29.714 -1.45158 22.1164 0.419371 14.616C2.28857 7.11428 9.88569 2.54892 17.3852 4.41899C24.8865 6.28907 29.451 13.8875 27.581 21.3888Z" fill="#349C7E"/>
</mask>
<g mask="url(#mask0)">
<path d="M30.1534 29.8462H-2.1543V32H30.1534V29.8462Z" fill="#FC3B38"/>
<path d="M30.1534 27.6924H-2.1543V29.8462H30.1534V27.6924Z" fill="white"/>
<path d="M30.1534 25.5386H-2.1543V27.6924H30.1534V25.5386Z" fill="#FC3B38"/>
<path d="M30.1534 23.3848H-2.1543V25.5386H30.1534V23.3848Z" fill="white"/>
<path d="M30.1534 21.231H-2.1543V23.3848H30.1534V21.231Z" fill="#FC3B38"/>
<path d="M30.1534 19.0771H-2.1543V21.231H30.1534V19.0771Z" fill="white"/>
<path fill-rule="evenodd" clip-rule="evenodd" d="M25.7164 16.9229C25.3181 16.9738 24.9121 17 24.5 17C24.0879 17 23.6819 16.9738 23.2836 16.9229H-2.1543V19.0767H30.1534V16.9229H25.7164Z" fill="#FC3B38"/>
<path fill-rule="evenodd" clip-rule="evenodd" d="M25.7169 16.9229H30.1534V15.1354C28.8812 16.079 27.3651 16.7121 25.7169 16.9229ZM23.2827 16.9229C21.4294 16.6859 19.7431 15.9149 18.3829 14.769H-2.1543V16.9229H23.2827Z" fill="white"/>
<path fill-rule="evenodd" clip-rule="evenodd" d="M16.493 12.6152C17.0117 13.4254 17.65 14.1517 18.3829 14.7691H-2.1543V12.6152H16.493Z" fill="#FC3B38"/>
<path fill-rule="evenodd" clip-rule="evenodd" d="M15.4704 10.4614C15.7213 11.2268 16.0668 11.9494 16.4931 12.6153H-2.1543V10.4614H15.4704Z" fill="white"/>
<path fill-rule="evenodd" clip-rule="evenodd" d="M15.0945 6.15381C15.0321 6.59361 14.9998 7.0431 14.9998 7.50013C14.9998 7.77212 15.0112 8.04145 15.0336 8.30765H-2.1543V6.15381H15.0945Z" fill="white"/>
<path fill-rule="evenodd" clip-rule="evenodd" d="M15.0336 8.30762C15.0964 9.05342 15.2453 9.77469 15.4704 10.4615H-2.1543V8.30762H15.0336Z" fill="#FC3B38"/>
<path fill-rule="evenodd" clip-rule="evenodd" d="M15.6654 4C15.3947 4.68267 15.2008 5.40418 15.0944 6.15385H-2.1543V4H15.6654Z" fill="#FC3B38"/>
<rect x="-7" y="4" width="19.9961" height="15.0742" fill="#3A8EF6"/>
<path d="M-0.0318679 7.11719L-0.194053 7.62176H-0.722656L-0.296169 7.93412L-0.458355 8.43269L-0.0318679 8.12033L0.400626 8.43269L0.238441 7.93412L0.664928 7.62176H0.136324L-0.0318679 7.11719Z" fill="white"/>
<path d="M-0.0318679 9.66406L-0.194053 10.1686H-0.722656L-0.296169 10.481L-0.458355 10.9796L-0.0318679 10.6732L0.400626 10.9796L0.238441 10.481L0.664928 10.1686H0.136324L-0.0318679 9.66406Z" fill="white"/>
<path d="M-0.0318679 12.2168L-0.194053 12.7154H-0.722656L-0.296169 13.0277L-0.458355 13.5323L-0.0318679 13.2199L0.400626 13.5323L0.238441 13.0277L0.664928 12.7154H0.136324L-0.0318679 12.2168Z" fill="white"/>
<path d="M0.136324 15.2622L-0.0318679 14.7637L-0.194053 15.2622H-0.722656L-0.296169 15.5746L-0.458355 16.0792L-0.0318679 15.7668L0.400626 16.0792L0.238441 15.5746L0.664928 15.2622H0.136324Z" fill="white"/>
<path d="M1.46813 5.84375L1.30595 6.34833H0.777344L1.20383 6.65468L1.04165 7.15925L1.46813 6.8469L1.89462 7.15925L1.73243 6.65468L2.15892 6.34833H1.63032L1.46813 5.84375Z" fill="white"/>
<path d="M1.46813 8.3916L1.30595 8.89618H0.777344L1.20383 9.20853L1.04165 9.7071L1.46813 9.40075L1.89462 9.7071L1.73243 9.20853L2.15892 8.89618H1.63032L1.46813 8.3916Z" fill="white"/>
<path d="M1.46813 10.9365L1.30595 11.4411H0.777344L1.20383 11.7535L1.04165 12.258L1.46813 11.9457L1.89462 12.258L1.73243 11.7535L2.15892 11.4411H1.63032L1.46813 10.9365Z" fill="white"/>
<path d="M1.46813 13.4902L1.30595 13.9888H0.777344L1.20383 14.3012L1.04165 14.8057L1.46813 14.4934L1.89462 14.8057L1.73243 14.3012L2.15892 13.9888H1.63032L1.46813 13.4902Z" fill="white"/>
<path d="M1.63032 16.5367L1.46813 16.0381L1.30595 16.5367H0.777344L1.20383 16.849L1.04165 17.3536L1.46813 17.0412L1.89462 17.3536L1.73243 16.849L2.15892 16.5367H1.63032Z" fill="white"/>
<path d="M2.96423 7.11719L2.80204 7.62176H2.27344L2.69992 7.93412L2.53774 8.43269L2.96423 8.12033L3.39672 8.43269L3.22853 7.93412L3.66102 7.62176H3.13242L2.96423 7.11719Z" fill="white"/>
<path d="M2.96423 9.66406L2.80204 10.1686H2.27344L2.69992 10.481L2.53774 10.9796L2.96423 10.6732L3.39672 10.9796L3.22853 10.481L3.66102 10.1686H3.13242L2.96423 9.66406Z" fill="white"/>
<path d="M2.96423 12.2168L2.80204 12.7154H2.27344L2.69992 13.0277L2.53774 13.5323L2.96423 13.2199L3.39672 13.5323L3.22853 13.0277L3.66102 12.7154H3.13242L2.96423 12.2168Z" fill="white"/>
<path d="M3.13242 15.2622L2.96423 14.7637L2.80204 15.2622H2.27344L2.69992 15.5746L2.53774 16.0792L2.96423 15.7668L3.39672 16.0792L3.22853 15.5746L3.66102 15.2622H3.13242Z" fill="white"/>
<path d="M4.46716 5.84375L4.30497 6.34833H3.77637L4.20285 6.65468L4.04067 7.15925L4.46716 6.8469L4.89364 7.15925L4.73146 6.65468L5.15794 6.34833H4.62934L4.46716 5.84375Z" fill="white"/>
<path d="M4.46716 8.3916L4.30497 8.89618H3.77637L4.20285 9.20853L4.04067 9.7071L4.46716 9.40075L4.89364 9.7071L4.73146 9.20853L5.15794 8.89618H4.62934L4.46716 8.3916Z" fill="white"/>
<path d="M4.46716 10.9365L4.30497 11.4411H3.77637L4.20285 11.7535L4.04067 12.258L4.46716 11.9457L4.89364 12.258L4.73146 11.7535L5.15794 11.4411H4.62934L4.46716 10.9365Z" fill="white"/>
<path d="M4.46716 13.4902L4.30497 13.9888H3.77637L4.20285 14.3012L4.04067 14.8057L4.46716 14.4934L4.89364 14.8057L4.73146 14.3012L5.15794 13.9888H4.62934L4.46716 13.4902Z" fill="white"/>
<path d="M4.62934 16.5367L4.46716 16.0381L4.30497 16.5367H3.77637L4.20285 16.849L4.04067 17.3536L4.46716 17.0412L4.89364 17.3536L4.73146 16.849L5.15794 16.5367H4.62934Z" fill="white"/>
<path d="M5.96227 7.11719L5.80009 7.62176H5.27148L5.69797 7.93412L5.53579 8.43269L5.96227 8.12033L6.39477 8.43269L6.22657 7.93412L6.65907 7.62176H6.13047L5.96227 7.11719Z" fill="white"/>
<path d="M5.96227 9.66406L5.80009 10.1686H5.27148L5.69797 10.481L5.53579 10.9796L5.96227 10.6732L6.39477 10.9796L6.22657 10.481L6.65907 10.1686H6.13047L5.96227 9.66406Z" fill="white"/>
<path d="M5.96227 12.2168L5.80009 12.7154H5.27148L5.69797 13.0277L5.53579 13.5323L5.96227 13.2199L6.39477 13.5323L6.22657 13.0277L6.65907 12.7154H6.13047L5.96227 12.2168Z" fill="white"/>
<path d="M6.13047 15.2622L5.96227 14.7637L5.80009 15.2622H5.27148L5.69797 15.5746L5.53579 16.0792L5.96227 15.7668L6.39477 16.0792L6.22657 15.5746L6.65907 15.2622H6.13047Z" fill="white"/>
<path d="M7.46423 5.84375L7.30204 6.34833H6.77344L7.19993 6.65468L7.03774 7.15925L7.46423 6.8469L7.89071 7.15925L7.72853 6.65468L8.15501 6.34833H7.62641L7.46423 5.84375Z" fill="white"/>
<path d="M7.46423 8.3916L7.30204 8.89618H6.77344L7.19993 9.20853L7.03774 9.7071L7.46423 9.40075L7.89071 9.7071L7.72853 9.20853L8.15501 8.89618H7.62641L7.46423 8.3916Z" fill="white"/>
<path d="M7.46423 10.9365L7.30204 11.4411H6.77344L7.19993 11.7535L7.03774 12.258L7.46423 11.9457L7.89071 12.258L7.72853 11.7535L8.15501 11.4411H7.62641L7.46423 10.9365Z" fill="white"/>
<path d="M7.46423 13.4902L7.30204 13.9888H6.77344L7.19993 14.3012L7.03774 14.8057L7.46423 14.4934L7.89071 14.8057L7.72853 14.3012L8.15501 13.9888H7.62641L7.46423 13.4902Z" fill="white"/>
<path d="M7.62641 16.5367L7.46423 16.0381L7.30204 16.5367H6.77344L7.19993 16.849L7.03774 17.3536L7.46423 17.0412L7.89071 17.3536L7.72853 16.849L8.15501 16.5367H7.62641Z" fill="white"/>
<path d="M8.95934 7.11719L8.79716 7.62176H8.26855L8.69504 7.93412L8.53286 8.43269L8.95934 8.12033L9.39184 8.43269L9.22365 7.93412L9.65614 7.62176H9.12754L8.95934 7.11719Z" fill="white"/>
<path d="M8.95934 9.66406L8.79716 10.1686H8.26855L8.69504 10.481L8.53286 10.9796L8.95934 10.6732L9.39184 10.9796L9.22365 10.481L9.65614 10.1686H9.12754L8.95934 9.66406Z" fill="white"/>
<path d="M8.95934 12.2168L8.79716 12.7154H8.26855L8.69504 13.0277L8.53286 13.5323L8.95934 13.2199L9.39184 13.5323L9.22365 13.0277L9.65614 12.7154H9.12754L8.95934 12.2168Z" fill="white"/>
<path d="M9.12754 15.2622L8.95934 14.7637L8.79716 15.2622H8.26855L8.69504 15.5746L8.53286 16.0792L8.95934 15.7668L9.39184 16.0792L9.22365 15.5746L9.65614 15.2622H9.12754Z" fill="white"/>
<path d="M10.197 6.65468L10.0348 7.15925L10.4613 6.8469L10.8878 7.15925L10.7256 6.65468L11.1521 6.34833H10.6235L10.4613 5.84375L10.2991 6.34833H9.77051L10.197 6.65468Z" fill="white"/>
<path d="M10.4613 8.3916L10.2991 8.89618H9.77051L10.197 9.20853L10.0348 9.7071L10.4613 9.40075L10.8878 9.7071L10.7256 9.20853L11.1521 8.89618H10.6235L10.4613 8.3916Z" fill="white"/>
<path d="M10.4613 10.9365L10.2991 11.4411H9.77051L10.197 11.7535L10.0348 12.258L10.4613 11.9457L10.8878 12.258L10.7256 11.7535L11.1521 11.4411H10.6235L10.4613 10.9365Z" fill="white"/>
<path d="M10.4613 13.4902L10.2991 13.9888H9.77051L10.197 14.3012L10.0348 14.8057L10.4613 14.4934L10.8878 14.8057L10.7256 14.3012L11.1521 13.9888H10.6235L10.4613 13.4902Z" fill="white"/>
<path d="M10.6235 16.5367L10.4613 16.0381L10.2991 16.5367H9.77051L10.197 16.849L10.0348 17.3536L10.4613 17.0412L10.8878 17.3536L10.7256 16.849L11.1521 16.5367H10.6235Z" fill="white"/>
</g>
<path fill-rule="evenodd" clip-rule="evenodd" d="M24.5 15C28.6421 15 32 11.6421 32 7.5C32 3.35786 28.6421 0 24.5 0C20.3579 0 17 3.35786 17 7.5C17 11.6421 20.3579 15 24.5 15Z" fill="#373D43"/>
<path d="M25.8299 7.24396L23.5441 6.57398C23.2288 6.49515 22.9923 6.23899 22.9332 5.9237C22.8544 5.41136 23.2485 4.97785 23.7411 4.97785H25.1796C25.4949 4.97785 25.8102 5.07637 26.0664 5.27343C26.1846 5.35225 26.3619 5.33254 26.4605 5.23401L26.9137 4.78079C27.0516 4.64286 27.0319 4.4261 26.894 4.30787C26.4014 3.93346 25.8102 3.71671 25.1796 3.71671H25.1402V2.77085C25.1402 2.61321 24.9826 2.45557 24.8249 2.45557H24.1944C24.017 2.45557 23.8791 2.61321 23.8791 2.77085V3.71671H23.82C22.8544 3.71671 21.948 4.34728 21.7312 5.29313C21.4553 6.39663 22.1253 7.48042 23.1697 7.776L25.4555 8.44598C25.7708 8.5248 26.027 8.78097 26.0664 9.09626C26.1452 9.58889 25.7511 10.0224 25.2781 10.0224H23.82C23.5047 10.0224 23.1894 9.92388 22.9332 9.74653C22.815 9.66771 22.6376 9.68742 22.5391 9.78594L22.0859 10.2392C21.948 10.3771 21.9677 10.5939 22.1056 10.7121C22.5982 11.0865 23.1894 11.2835 23.82 11.2835H23.8791V12.2294C23.8791 12.4067 24.017 12.5447 24.1944 12.5447H24.8249C24.9826 12.5447 25.1402 12.4067 25.1402 12.2294V11.2835H25.1796C26.1452 11.2835 27.0516 10.6727 27.2684 9.72683C27.5443 8.62333 26.8743 7.53954 25.8299 7.24396Z" fill="white"/>
</svg>
