<svg width="32" height="33" viewBox="0 0 32 33" fill="none" xmlns="http://www.w3.org/2000/svg">
<path fill-rule="evenodd" clip-rule="evenodd" d="M16 32.0811C24.8366 32.0811 32 24.9176 32 16.0811C32 7.2445 24.8366 0.0810547 16 0.0810547C7.16344 0.0810547 0 7.2445 0 16.0811C0 24.9176 7.16344 32.0811 16 32.0811Z" fill="#00845D"/>
<path fill-rule="evenodd" clip-rule="evenodd" d="M14.4401 4.41992H17.4884V8.38479H23.3984V10.8301H17.4884V14.8741H19.5427C22.0099 14.8741 24.01 16.8742 24.01 19.3414C24.0099 21.8086 22.0099 23.8086 19.5427 23.8086H17.4884V27.7425H14.4401V23.8086H8.62276V21.3633H14.4401V17.3193H12.4565C9.98933 17.3193 7.98926 15.3193 7.98926 12.8521C7.98926 10.3848 9.98934 8.38477 12.4566 8.38479L14.4401 8.38479V4.41992ZM13.2146 10.8301H14.4401V14.8741H13.2146C12.11 14.8741 11.2146 13.9786 11.2146 12.8741V12.8301C11.2146 11.7255 12.11 10.8301 13.2146 10.8301ZM17.4884 17.3193V21.3633H18.9396C20.0564 21.3633 20.9616 20.458 20.9616 19.3413C20.9616 18.2246 20.0564 17.3193 18.9396 17.3193H17.4884ZM17.4844 14.8721H14.4463V17.3146H17.4844V14.8721Z" fill="white"/>
</svg>
