<svg width="32" height="32" viewBox="0 0 32 32" fill="none" xmlns="http://www.w3.org/2000/svg">
<path fill-rule="evenodd" clip-rule="evenodd" d="M16 32C24.8366 32 32 24.8366 32 16C32 7.16344 24.8366 0 16 0C7.16344 0 0 7.16344 0 16C0 24.8366 7.16344 32 16 32Z" fill="#23292F"/>
<path d="M23.3865 7.32666H26.3134L20.2217 13.5645C18.0161 15.8236 14.444 15.8236 12.2384 13.5645L6.14911 7.32666H9.07598L13.703 12.066C15.0769 13.48 17.3242 13.4974 18.7202 12.1057C18.7325 12.0933 18.7472 12.0784 18.7594 12.066L23.3865 7.32666ZM9.03918 24.6734H6.1123L12.2408 18.3958C14.4464 16.1367 18.0185 16.1367 20.2241 18.3958L26.3502 24.6734H23.4233L18.7594 19.8968C17.3856 18.4828 15.1383 18.4654 13.7423 19.8571C13.73 19.8695 13.7153 19.8844 13.703 19.8968L9.03918 24.6734Z" fill="white"/>
</svg>
